<?xml version="1.0" encoding="utf-8"?>
<!-- Generator: Adobe Illustrator 24.1.2, SVG Export Plug-In . SVG Version: 6.00 Build 0)  -->
<svg version="1.1" xmlns="http://www.w3.org/2000/svg" xmlns:xlink="http://www.w3.org/1999/xlink" x="0px" y="0px" width="80px"
	 height="93px" viewBox="0 0 80 93" style="enable-background:new 0 0 80 93;" xml:space="preserve">
<style type="text/css">
	.st0{fill:#FFFFFF;}
	.st1{fill:#6A91C3;}
	.st2{clip-path:url(#SVGID_2_);fill:#ABD9E9;stroke:#ABD9E9;stroke-width:1.2096;stroke-miterlimit:10;}
	.st3{clip-path:url(#SVGID_4_);fill:#74ADD1;stroke:#74ADD1;stroke-width:1.2096;stroke-miterlimit:10;}
	.st4{clip-path:url(#SVGID_6_);fill:#FFFFFF;stroke:#4575B4;stroke-width:1.5;stroke-miterlimit:10;}
	.st5{display:none;}
	.st6{display:inline;fill:#4575B4;stroke:#4575B4;stroke-miterlimit:10;}
	.st7{display:inline;fill:#6A91C3;stroke:#6A91C3;stroke-miterlimit:10;}
	.st8{display:inline;fill:#90BDDA;stroke:#90BDDA;stroke-miterlimit:10;}
	.st9{display:inline;fill:#ABD9E9;stroke:#ABD9E9;stroke-miterlimit:10;}
	.st10{display:inline;fill:#DDF0F6;stroke:#DDF0F6;stroke-miterlimit:10;}
	.st11{display:inline;}
	.st12{clip-path:url(#SVGID_8_);fill:#DDF0F6;stroke:#DDF0F6;stroke-miterlimit:10;}
	.st13{fill:#E0E0E0;}
	.st14{fill:#4575B4;}
</style>
<g id="Layer_4">
	<g>
		<polygon class="st0" points="1,69.02 1,23.98 40,1.46 79,23.98 79,69.02 40,91.54 		"/>
		<path class="st1" d="M40,2.62l38,21.94v43.88L40,90.38L2,68.44V24.56L40,2.62 M40,0.31L0,23.41v46.19l40,23.1l40-23.1V23.41
			L40,0.31L40,0.31z"/>
	</g>
</g>
<g id="Layer_7">
	<g>
		<defs>
			
				<rect id="SVGID_1_" x="34.68" y="25.6" transform="matrix(-1 -5.317492e-11 5.317492e-11 -1 103.6387 73.1057)" width="34.28" height="21.91"/>
		</defs>
		<clipPath id="SVGID_2_">
			<use xlink:href="#SVGID_1_"  style="overflow:visible;"/>
		</clipPath>
		<path class="st2" d="M99.22,48.58v-0.05h-3.1C89,48.72,81.18,48.4,74.34,47.24c-3.94-0.67-7.08-1.65-9.98-3.3
			c-3.93-2.23-6.96-4.95-9.99-7.57c-2.81-2.43-5.34-4.81-10.05-6.22c-3.61-1.08-7.47-1.27-10.51,0.24
			c-1.59,0.79-3.23,1.24-5.02,1.84c-2.11,0.71-3.56,1.91-4.97,3.01c-1.68,1.32-3.28,2.67-4.97,3.99c-2.88,2.25-5.8,4.5-10.16,5.9
			c-3.27,1.05-6.38,2.24-10.16,2.62c-3.33,0.33-6.85,0.48-10.23,0.61c-0.8,0.03-1.61,0.05-2.42,0.08v0.14"/>
	</g>
	<g>
		<defs>
			
				<rect id="SVGID_3_" x="29.67" y="25.6" transform="matrix(-1 -4.634971e-11 4.634971e-11 -1 98.6306 73.1057)" width="39.28" height="21.91"/>
		</defs>
		<clipPath id="SVGID_4_">
			<use xlink:href="#SVGID_3_"  style="overflow:visible;"/>
		</clipPath>
		<path class="st3" d="M97.57,48.58v-0.05h-3.26c-7.49,0.19-15.72-0.13-22.91-1.29c-4.15-0.67-7.45-1.65-10.5-3.3
			c-4.14-2.23-7.32-4.95-10.51-7.57c-2.95-2.43-5.62-4.81-10.57-6.22c-3.79-1.08-7.86-1.27-11.06,0.24
			c-1.67,0.79-3.39,1.24-5.28,1.84c-2.22,0.71-3.75,1.91-5.23,3.01c-1.77,1.32-3.45,2.67-5.23,3.99c-3.03,2.25-6.11,4.5-10.69,5.9
			c-3.44,1.05-6.71,2.24-10.69,2.62c-3.51,0.33-7.21,0.48-10.76,0.61c-0.85,0.03-1.7,0.05-2.54,0.08v0.14"/>
	</g>
	<g>
		<defs>
			
				<rect id="SVGID_5_" x="27.17" y="25.6" transform="matrix(-1 -4.553214e-11 4.553214e-11 -1 96.1277 74.0684)" width="41.79" height="22.87"/>
		</defs>
		<clipPath id="SVGID_6_">
			<use xlink:href="#SVGID_5_"  style="overflow:visible;"/>
		</clipPath>
		<path class="st4" d="M95.21,48.58v-0.05h-3.42c-7.85,0.19-16.48-0.13-24.02-1.29c-4.35-0.67-7.81-1.65-11.01-3.3
			c-4.34-2.23-7.68-4.95-11.02-7.57c-3.1-2.43-5.89-4.81-11.08-6.22c-3.98-1.08-8.24-1.27-11.6,0.24c-1.76,0.79-3.56,1.24-5.54,1.84
			c-2.32,0.71-3.93,1.91-5.48,3.01c-1.86,1.32-3.62,2.67-5.48,3.99c-3.18,2.25-6.4,4.5-11.21,5.9c-3.61,1.05-7.03,2.24-11.21,2.62
			c-3.68,0.33-7.56,0.48-11.28,0.61c-0.89,0.03-1.78,0.05-2.67,0.08v0.14"/>
	</g>
</g>
<g id="Layer_8" class="st5">
	<path class="st6" d="M12.68,45.58c0,1.38,1.13,2.5,2.5,2.5c1.38,0,2.5-1.13,2.5-2.5c0-1.38-1.13-2.5-2.5-2.5
		C13.81,43.08,12.68,44.2,12.68,45.58"/>
	<path class="st7" d="M12.68,38.72c0,1.38,1.13,2.5,2.5,2.5c1.38,0,2.5-1.13,2.5-2.5c0-1.38-1.13-2.5-2.5-2.5
		C13.81,36.22,12.68,37.35,12.68,38.72"/>
	<path class="st8" d="M12.68,31.87c0,1.38,1.13,2.5,2.5,2.5c1.38,0,2.5-1.13,2.5-2.5c0-1.38-1.13-2.5-2.5-2.5
		C13.81,29.37,12.68,30.49,12.68,31.87"/>
	<path class="st7" d="M19.48,45.58c0,1.38,1.13,2.5,2.5,2.5c1.38,0,2.5-1.13,2.5-2.5c0-1.38-1.13-2.5-2.5-2.5
		C20.61,43.08,19.48,44.2,19.48,45.58"/>
	<path class="st8" d="M19.48,38.72c0,1.38,1.13,2.5,2.5,2.5c1.38,0,2.5-1.13,2.5-2.5c0-1.38-1.13-2.5-2.5-2.5
		C20.61,36.22,19.48,37.35,19.48,38.72"/>
	<path class="st8" d="M26.28,45.58c0,1.38,1.13,2.5,2.5,2.5c1.38,0,2.5-1.13,2.5-2.5c0-1.38-1.13-2.5-2.5-2.5
		C27.41,43.08,26.28,44.2,26.28,45.58"/>
	<path class="st9" d="M33.08,45.58c0,1.38,1.13,2.5,2.5,2.5c1.38,0,2.5-1.13,2.5-2.5c0-1.38-1.13-2.5-2.5-2.5
		C34.21,43.08,33.08,44.2,33.08,45.58"/>
	<path class="st10" d="M39.88,45.58c0,1.38,1.13,2.5,2.5,2.5c1.38,0,2.5-1.13,2.5-2.5c0-1.38-1.13-2.5-2.5-2.5
		C41.01,43.08,39.88,44.2,39.88,45.58"/>
	<path class="st9" d="M26.28,38.72c0,1.38,1.13,2.5,2.5,2.5c1.38,0,2.5-1.13,2.5-2.5c0-1.38-1.13-2.5-2.5-2.5
		C27.41,36.22,26.28,37.35,26.28,38.72"/>
	<path class="st10" d="M33.08,38.72c0,1.38,1.13,2.5,2.5,2.5c1.38,0,2.5-1.13,2.5-2.5c0-1.38-1.13-2.5-2.5-2.5
		C34.21,36.22,33.08,37.35,33.08,38.72"/>
	<path class="st9" d="M19.48,31.87c0,1.38,1.13,2.5,2.5,2.5c1.38,0,2.5-1.13,2.5-2.5c0-1.38-1.13-2.5-2.5-2.5
		C20.61,29.37,19.48,30.49,19.48,31.87"/>
	<g class="st11">
		<defs>
			<path id="SVGID_7_" d="M25.7,29.74c0,0,4.66,1.4,6.83,3.96c2.17,2.55-4.6,3.06-4.6,3.06L25,34.37l-0.94-3.9L25.7,29.74z"/>
		</defs>
		<clipPath id="SVGID_8_">
			<use xlink:href="#SVGID_7_"  style="overflow:visible;"/>
		</clipPath>
		<path class="st12" d="M26.28,31.87c0,1.38,1.13,2.5,2.5,2.5c1.38,0,2.5-1.13,2.5-2.5c0-1.38-1.13-2.5-2.5-2.5
			C27.41,29.37,26.28,30.49,26.28,31.87"/>
	</g>
</g>
<g id="tidybayes" class="st5">
	<g class="st11">
		<g>
			<g>
				<path class="st13" d="M8.53,53.55H6.19v-1.63h6.63v1.63h-2.34v6.89H8.53V53.55z"/>
				<path class="st13" d="M14.89,51.92h1.94v8.52h-1.94V51.92z"/>
				<path class="st13" d="M19.59,51.92H22c2.6,0,4.29,1.29,4.29,4.22s-1.68,4.3-4.18,4.3h-2.52V51.92z M21.89,58.88
					c1.43,0,2.41-0.7,2.41-2.73s-0.98-2.66-2.41-2.66h-0.35v5.39H21.89z"/>
				<path class="st13" d="M30.11,57.41l-2.57-5.49h2.08l0.75,1.95c0.23,0.64,0.45,1.23,0.69,1.89h0.05
					c0.24-0.66,0.48-1.25,0.72-1.89l0.75-1.95h2.03l-2.57,5.49v3.03h-1.95V57.41z"/>
				<path class="st13" d="M36.27,51.92h2.93c1.77,0,3.15,0.48,3.15,2.11c0,0.76-0.43,1.58-1.12,1.84v0.05
					c0.87,0.23,1.54,0.87,1.54,2c0,1.74-1.47,2.51-3.32,2.51h-3.17V51.92z M39.11,55.33c0.92,0,1.33-0.39,1.33-1.01
					c0-0.65-0.43-0.9-1.32-0.9h-0.91v1.91H39.11z M39.28,58.94c1.04,0,1.58-0.37,1.58-1.14c0-0.74-0.53-1.04-1.58-1.04h-1.07v2.18
					H39.28z"/>
				<path class="st13" d="M46.53,51.92h2.33l2.67,8.52h-2.06l-1.11-4.31c-0.24-0.85-0.46-1.86-0.69-2.75h-0.05
					c-0.2,0.9-0.43,1.9-0.67,2.75l-1.11,4.31h-1.99L46.53,51.92z M45.62,56.92h4.1v1.51h-4.1V56.92z"/>
				<path class="st13" d="M54.65,57.41l-2.57-5.49h2.08l0.75,1.95c0.23,0.64,0.45,1.23,0.69,1.89h0.05
					c0.24-0.66,0.48-1.25,0.72-1.89l0.75-1.95h2.03l-2.57,5.49v3.03h-1.95V57.41z"/>
				<path class="st13" d="M60.81,51.92h5.35v1.63h-3.4v1.69h2.9v1.63h-2.9v1.94h3.53v1.63h-5.48V51.92z"/>
				<path class="st13" d="M68.18,59.37l1.12-1.33c0.61,0.52,1.39,0.89,2.09,0.89c0.8,0,1.19-0.31,1.19-0.81c0-0.53-0.48-0.7-1.22-1
					l-1.11-0.47c-0.88-0.36-1.72-1.09-1.72-2.33c0-1.41,1.26-2.55,3.04-2.55c0.98,0,2.01,0.39,2.75,1.12l-0.98,1.23
					c-0.56-0.43-1.09-0.67-1.77-0.67c-0.66,0-1.08,0.27-1.08,0.75c0,0.52,0.55,0.7,1.3,1l1.08,0.44c1.04,0.42,1.69,1.12,1.69,2.32
					c0,1.42-1.18,2.65-3.22,2.65C70.23,60.6,69.05,60.18,68.18,59.37z"/>
			</g>
		</g>
	</g>
</g>
<g id="tidybayes_copy">
	<g>
		<g>
			<g>
				<path class="st14" d="M12.27,55.39c0-3.68,2.46-5.8,5.42-5.8c1.61,0,2.76,0.68,3.52,1.44l-1.37,1.67
					c-0.55-0.5-1.13-0.87-2.06-0.87c-1.66,0-2.85,1.3-2.85,3.47c0,2.23,1,3.51,3.06,3.51c0.41,0,0.84-0.1,1.1-0.3v-1.82h-1.79v-2.12
					h4.09v5.14c-0.77,0.75-2.12,1.34-3.67,1.34C14.67,61.05,12.27,59.13,12.27,55.39z"/>
				<path class="st14" d="M23.6,55.39c0-3.68,2.46-5.8,5.42-5.8c1.61,0,2.76,0.68,3.52,1.44l-1.37,1.67
					c-0.55-0.5-1.13-0.87-2.06-0.87c-1.66,0-2.84,1.3-2.84,3.47c0,2.23,1,3.51,3.06,3.51c0.41,0,0.84-0.1,1.1-0.3v-1.82h-1.79v-2.12
					h4.09v5.14c-0.77,0.75-2.12,1.34-3.67,1.34C26,61.05,23.6,59.13,23.6,55.39z"/>
				<path class="st14" d="M35.44,49.79h3.16c3.38,0,5.58,1.65,5.58,5.48c0,3.83-2.21,5.58-5.44,5.58h-3.31V49.79z M38.45,58.76
					c1.81,0,3.08-0.86,3.08-3.49c0-2.63-1.27-3.39-3.08-3.39h-0.41v6.88H38.45z"/>
				<path class="st14" d="M46.7,49.79h2.6v11.06h-2.6V49.79z"/>
				<path class="st14" d="M51.63,59.46l1.49-1.78c0.79,0.67,1.8,1.14,2.69,1.14c1.01,0,1.49-0.38,1.49-1c0-0.66-0.61-0.87-1.57-1.26
					l-1.42-0.61c-1.16-0.47-2.23-1.42-2.23-3.03c0-1.85,1.65-3.33,3.98-3.33c1.27,0,2.62,0.5,3.59,1.46l-1.31,1.64
					c-0.73-0.55-1.42-0.85-2.28-0.85c-0.83,0-1.35,0.34-1.35,0.94c0,0.64,0.7,0.88,1.68,1.26l1.39,0.56
					c1.36,0.55,2.19,1.46,2.19,3.01c0,1.84-1.54,3.45-4.2,3.45C54.32,61.05,52.77,60.52,51.63,59.46z"/>
				<path class="st14" d="M64.41,51.97h-3.02v-2.18h8.63v2.18h-3.02v8.88h-2.6V51.97z"/>
			</g>
		</g>
	</g>
</g>
<g id="Layer_1">
</g>
<g id="Layer_3">
</g>
<g id="Layer_5">
</g>
<g id="Layer_6">
</g>
</svg>
