<svg xmlns="http://www.w3.org/2000/svg" xmlns:xlink="http://www.w3.org/1999/xlink" width="80" height="92.38" viewBox="0 0 80 92.38"><defs><style>.cls-1{fill:none;}.cls-2{fill:#fff;}.cls-3{fill:#686868;}.cls-4{clip-path:url(#clip-path);}.cls-5{fill:#dbdbdb;}.cls-6{clip-path:url(#clip-path-2);}.cls-7{fill:#a8a8a8;}.cls-8{clip-path:url(#clip-path-3);}.cls-9{clip-path:url(#clip-path-4);}</style><clipPath id="clip-path" transform="translate(0 -0.31)"><rect class="cls-1" x="35.55" y="20.12" width="38.77" height="27.33" transform="translate(109.88 67.57) rotate(-180)"/></clipPath><clipPath id="clip-path-2" transform="translate(0 -0.31)"><rect class="cls-1" x="38.78" y="20.12" width="35.54" height="27.33" transform="translate(113.11 67.57) rotate(-180)"/></clipPath><clipPath id="clip-path-3" transform="translate(0 -0.31)"><rect class="cls-1" x="1.47" y="19.49" width="32.27" height="27.96" transform="translate(35.21 66.94) rotate(-180)"/></clipPath><clipPath id="clip-path-4" transform="translate(0 -0.31)"><rect class="cls-1" x="34.04" y="20.12" width="40.28" height="27.33" transform="translate(108.37 67.57) rotate(-180)"/></clipPath></defs><title>logo</title><g id="Layer_4" data-name="Layer 4"><polygon class="cls-2" points="1 68.71 1 23.68 40 1.16 79 23.68 79 68.71 40 91.23 1 68.71"/><path class="cls-3" d="M40,2.62,78,24.56V68.44L40,90.38,2,68.44V24.56L40,2.62M40,.31,0,23.41V69.59l40,23.1,40-23.1V23.41L40,.31Z" transform="translate(0 -0.31)"/></g><g id="Layer_2" data-name="Layer 2"><g class="cls-4"><path class="cls-5" d="M78.53,47.23H74.9l-.16,0-.16,0-.16,0-.16,0-.16,0-.16,0-.16,0-.16,0-.16,0-.16,0-.16,0-.16,0-.16,0-.16,0-.16,0-.16,0-.16,0-.16,0-.16,0-.16,0-.16,0-.16,0-.16,0-.16,0-.16,0-.16,0-.16,0-.16,0-.16,0-.16,0L70,46l-.16,0-.16,0-.16,0-.16,0-.16-.05L69,45.71l-.16-.05-.16-.05-.16-.05-.16-.06-.16-.06-.16-.06-.16-.06-.16-.06-.16-.06-.16-.06-.16-.06L67.12,45,67,44.94l-.16-.07-.16-.07-.16-.07-.16-.08-.16-.08L66,44.49l-.16-.09-.16-.09-.16-.1-.16-.1-.16-.1-.16-.11-.16-.11-.16-.12-.16-.13-.16-.13-.16-.14-.16-.14L63.94,43l-.16-.14-.16-.15-.16-.15-.16-.15-.16-.16L63,42.06l-.16-.16-.16-.16-.16-.17-.16-.17-.16-.17L62,41.06l-.16-.17-.16-.18-.16-.18-.16-.19-.16-.19-.16-.2-.16-.2-.16-.2-.16-.2-.16-.21-.16-.21-.16-.22L60,38.48l-.16-.23L59.65,38l-.16-.23-.16-.23-.16-.23L59,37.09l-.16-.23-.16-.24-.16-.23-.16-.24-.16-.23-.16-.23-.16-.24-.16-.23L57.58,35l-.16-.24-.16-.23-.16-.24L56.95,34l-.16-.24-.16-.24-.16-.24-.16-.25-.16-.25L56,32.57l-.16-.25-.16-.25-.16-.26-.16-.25-.16-.25L55,31l-.16-.25-.16-.25-.16-.24-.16-.24-.16-.23-.16-.23-.16-.22-.16-.21L53.61,29l-.16-.2-.16-.19-.16-.19L53,28.2,52.82,28l-.16-.16-.16-.16-.16-.15-.16-.14L52,27.27l-.16-.14L51.71,27l-.16-.13-.16-.13-.16-.12-.16-.12-.16-.12-.16-.11-.16-.11-.16-.1-.16-.1-.16-.1-.16-.1-.16-.09-.16-.09-.16-.08a7.55,7.55,0,0,0-4.61-.92h-.16l-.16,0-.16,0-.16,0-.16.06-.16.07-.16.08-.16.1-.16.1-.16.12-.16.12-.16.13-.16.14-.16.14-.16.14-.16.15-.16.15-.16.14-.16.14-.16.13-.16.12-.16.12-.16.11-.16.1-.16.1-.16.09-.16.09-.16.08-.16.08-.16.08-.16.08-.16.08-.16.08-.16.08-.16.09-.16.1-.16.1-.16.11-.16.12-.16.12-.16.14-.16.15L38,29l-.16.16-.16.17-.16.18-.16.19-.16.19-.16.2-.16.2-.16.21-.16.21-.16.21-.16.22-.16.21-.16.22-.16.22-.16.23-.16.22-.16.22-.16.23-.16.23-.16.23-.16.23-.16.23-.16.23-.16.23-.16.23-.16.23-.16.23L33.6,35l-.16.23-.16.23-.16.23-.16.23-.16.22-.16.22-.16.22-.16.22-.16.22-.16.21-.16.21-.16.21-.16.21-.16.21-.16.2-.16.2-.16.2-.16.2-.16.2-.16.2-.16.2-.16.2-.16.2-.16.19-.16.19-.16.19-.16.18-.16.18L29,41l-.16.17-.16.17-.16.16-.16.16-.16.15L28,41.9l-.16.13-.16.13-.16.12-.16.12-.16.12-.16.11-.16.1-.16.1-.16.1-.16.1-.16.09-.16.09-.16.09-.16.09-.16.09-.16.09-.16.09-.16.09-.16.09-.16.09-.16.1-.16.1-.16.1-.16.1-.16.1-.16.1-.16.1-.16.1-.16.1-.16.09L23.1,45l-.16.09-.16.09-.16.09-.16.08-.16.08-.16.08-.16.08-.16.07-.16.07-.16.07-.16.07-.16.06L21,46l-.16.06-.16.06-.16.05-.16,0-.16,0-.16,0-.16,0-.16,0-.16,0-.16,0-.16,0-.16,0-.16,0-.16,0-.16,0-.16,0-.16,0h-.16l-.16,0h-.16l-.16,0h-.47l-.16,0h-.32l-.16,0h-.16l-.16,0-.16,0-.16,0-.16,0-.16,0-.16,0-.16,0-.16,0-.16,0-.16,0-.16,0h-.16l-.16,0h-.16l-.16,0H4.84v0h73.7Z" transform="translate(0 -0.31)"/></g><g class="cls-6"><path class="cls-7" d="M78.53,47.41H70.16L70,47l-.16,0-.16,0-.16,0-.16,0-.16,0-.16,0-.16,0-.16,0-.16,0-.16,0-.16,0-.16,0-.16,0-.16,0-.16,0-.16,0-.16,0-.16,0-.16,0-.16,0-.16,0-.16,0-.16,0-.16,0-.16,0-.16,0-.16,0-.16,0-.16,0-.16,0-.16,0-.16,0-.16,0-.16,0-.16-.05-.16-.05-.16-.05L64,45.61l-.16-.05-.16-.06-.16-.06-.16-.06-.16-.06L63,45.26l-.16-.06-.16-.06-.16-.06L62.38,45l-.16-.07-.16-.07-.16-.07-.16-.07-.16-.08-.16-.08-.16-.08-.16-.09-.16-.09-.16-.1-.16-.1-.16-.1-.16-.11-.16-.11L60,43.66l-.16-.13-.16-.13-.16-.14-.16-.14L59.2,43,59,42.83l-.16-.15-.16-.15-.16-.15-.16-.16-.16-.16-.16-.16-.16-.16-.16-.17-.16-.17-.16-.17-.16-.18-.16-.17L57,40.71l-.16-.18-.16-.19-.16-.19-.16-.2-.16-.2-.16-.2-.16-.2-.16-.21-.16-.21-.16-.22-.16-.22-.16-.23L54.91,38l-.16-.23-.16-.23-.16-.23-.16-.24-.16-.23L54,36.62l-.16-.23-.16-.24-.16-.23-.16-.23-.16-.24L53,35.21,52.84,35l-.16-.24-.16-.23-.16-.24L52.2,34,52,33.79l-.16-.24-.16-.24-.16-.25-.16-.25-.16-.25-.16-.25-.16-.25-.16-.26-.16-.25-.16-.25L50.3,31l-.16-.25L50,30.55l-.16-.24-.16-.24-.16-.23-.16-.23-.16-.22L49,29.16,48.87,29l-.16-.2-.16-.19-.16-.19-.16-.18L48.08,28l-.16-.16-.16-.16-.16-.15-.16-.14-.16-.14-.16-.14L47,27l-.16-.13-.16-.13-.16-.12-.16-.12-.16-.12L46,26.27l-.16-.11-.16-.1-.16-.1-.16-.1-.16-.1-.16-.09-.16-.09-.16-.08a7.55,7.55,0,0,0-4.61-.92H40l-.16,0-.16,0-.16,0-.16.06-.16.07-.16.08-.16.1-.16.1-.16.12-.16.12-.16.13-.16.14-.16.14-.16.14-.16.15-.16.15-.16.14-.16.14L37,26.6l-.16.12-.16.12-.16.11-.16.1-.16.1-.16.09-.16.09-.16.08-.16.08-.16.08-.16.08-.16.08-.16.08-.16.08-.16.09-.16.1-.16.1-.16.11-.16.12-.16.12-.16.14-.16.15L33.3,29l-.16.16-.16.17-.16.18-.16.19-.16.19-.16.2-.16.2-.16.21-.16.21-.16.21-.16.22-.16.21-.16.22-.16.22-.16.23-.16.22-.16.22-.16.23-.16.23-.16.23-.16.23-.16.23-.16.23-.16.23-.16.23-.16.23-.16.23-.16.23-.16.23-.16.23-.16.23-.16.23-.16.22-.16.22-.16.22-.16.22-.16.22-.16.21-.16.21-.16.21-.16.21-.16.21-.16.2-.16.2-.16.2-.16.2-.16.2-.16.2-.16.2-.16.2-.16.2L25,40l-.16.19-.16.19-.16.18-.16.18-.16.17-.16.17-.16.17-.16.16-.16.16-.16.15-.16.14-.16.13-.16.13-.16.12-.16.12-.16.12-.16.11-.16.1-.16.1-.16.1-.16.1-.16.09-.16.09-.16.09-.16.09-.16.09-.16.09-.16.09-.16.09-.16.09-.16.09-.16.1-.16.1-.16.1-.16.1-.16.1-.16.1-.16.1-.16.1-.16.1-.16.09-.16.09-.16.09-.16.09-.16.09-.16.08-.16.08-.16.08-.16.08-.16.07-.16.07-.16.07-.16.07-.16.06L16.3,46l-.16.06-.16.06-.16.05-.16,0-.16,0-.16,0-.16,0-.16,0-.16,0-.16,0-.16,0-.16,0-.16,0-.16,0-.16,0-.16,0-.16,0h-.16l-.16,0h-.16l-.16,0h-.47l-.16,0H12l-.16,0h-.16l-.16,0-.16,0-.16,0-.16,0-.16,0-.16,0-.16,0-.16,0-.16,0-.16,0-.16,0H9.78l-.16,0H9.46l-.16,0H1.17v.06H78.53Z" transform="translate(0 -0.31)"/></g><g class="cls-8"><path class="cls-3" d="M67,46.25a1.15,1.15,0,1,0-1.15,1.15A1.16,1.16,0,0,0,67,46.25" transform="translate(0 -0.31)"/><path class="cls-3" d="M67,46.25a1.15,1.15,0,1,0-1.15,1.15A1.16,1.16,0,0,0,67,46.25" transform="translate(0 -0.31)"/><path class="cls-3" d="M61.33,46.25a1.15,1.15,0,1,0-1.15,1.15,1.16,1.16,0,0,0,1.15-1.15" transform="translate(0 -0.31)"/><path class="cls-3" d="M61.33,46.25a1.15,1.15,0,1,0-1.15,1.15,1.16,1.16,0,0,0,1.15-1.15" transform="translate(0 -0.31)"/><path class="cls-3" d="M58.05,46.25A1.15,1.15,0,1,0,56.9,47.4a1.16,1.16,0,0,0,1.15-1.15" transform="translate(0 -0.31)"/><path class="cls-3" d="M58.05,46.25A1.15,1.15,0,1,0,56.9,47.4a1.16,1.16,0,0,0,1.15-1.15" transform="translate(0 -0.31)"/><path class="cls-3" d="M58.05,43.85A1.15,1.15,0,1,0,56.9,45a1.16,1.16,0,0,0,1.15-1.15" transform="translate(0 -0.31)"/><path class="cls-3" d="M58.05,43.85A1.15,1.15,0,1,0,56.9,45a1.16,1.16,0,0,0,1.15-1.15" transform="translate(0 -0.31)"/><path class="cls-3" d="M54.69,46.25a1.15,1.15,0,1,0-1.15,1.15,1.16,1.16,0,0,0,1.15-1.15" transform="translate(0 -0.31)"/><path class="cls-3" d="M54.69,46.25a1.15,1.15,0,1,0-1.15,1.15,1.16,1.16,0,0,0,1.15-1.15" transform="translate(0 -0.31)"/><path class="cls-3" d="M54.69,43.85A1.15,1.15,0,1,0,53.54,45a1.16,1.16,0,0,0,1.15-1.15" transform="translate(0 -0.31)"/><path class="cls-3" d="M54.69,43.85A1.15,1.15,0,1,0,53.54,45a1.16,1.16,0,0,0,1.15-1.15" transform="translate(0 -0.31)"/><path class="cls-3" d="M54.69,41.45a1.15,1.15,0,1,0-1.15,1.15,1.16,1.16,0,0,0,1.15-1.15" transform="translate(0 -0.31)"/><path class="cls-3" d="M54.69,41.45a1.15,1.15,0,1,0-1.15,1.15,1.16,1.16,0,0,0,1.15-1.15" transform="translate(0 -0.31)"/><path class="cls-3" d="M51.86,46.25a1.15,1.15,0,1,0-1.15,1.15,1.16,1.16,0,0,0,1.15-1.15" transform="translate(0 -0.31)"/><path class="cls-3" d="M51.86,46.25a1.15,1.15,0,1,0-1.15,1.15,1.16,1.16,0,0,0,1.15-1.15" transform="translate(0 -0.31)"/><path class="cls-3" d="M51.86,43.85A1.15,1.15,0,1,0,50.71,45a1.16,1.16,0,0,0,1.15-1.15" transform="translate(0 -0.31)"/><path class="cls-3" d="M51.86,43.85A1.15,1.15,0,1,0,50.71,45a1.16,1.16,0,0,0,1.15-1.15" transform="translate(0 -0.31)"/><path class="cls-3" d="M51.86,41.45a1.15,1.15,0,1,0-1.15,1.15,1.16,1.16,0,0,0,1.15-1.15" transform="translate(0 -0.31)"/><path class="cls-3" d="M51.86,41.45a1.15,1.15,0,1,0-1.15,1.15,1.16,1.16,0,0,0,1.15-1.15" transform="translate(0 -0.31)"/><path class="cls-3" d="M51.86,39a1.15,1.15,0,1,0-1.15,1.15A1.16,1.16,0,0,0,51.86,39" transform="translate(0 -0.31)"/><path class="cls-3" d="M51.86,39a1.15,1.15,0,1,0-1.15,1.15A1.16,1.16,0,0,0,51.86,39" transform="translate(0 -0.31)"/><path class="cls-3" d="M49.11,46.25A1.15,1.15,0,1,0,48,47.4a1.16,1.16,0,0,0,1.15-1.15" transform="translate(0 -0.31)"/><path class="cls-3" d="M49.11,46.25A1.15,1.15,0,1,0,48,47.4a1.16,1.16,0,0,0,1.15-1.15" transform="translate(0 -0.31)"/><path class="cls-3" d="M49.11,43.85A1.15,1.15,0,1,0,48,45a1.16,1.16,0,0,0,1.15-1.15" transform="translate(0 -0.31)"/><path class="cls-3" d="M49.11,43.85A1.15,1.15,0,1,0,48,45a1.16,1.16,0,0,0,1.15-1.15" transform="translate(0 -0.31)"/><path class="cls-3" d="M49.11,41.45A1.15,1.15,0,1,0,48,42.6a1.16,1.16,0,0,0,1.15-1.15" transform="translate(0 -0.31)"/><path class="cls-3" d="M49.11,41.45A1.15,1.15,0,1,0,48,42.6a1.16,1.16,0,0,0,1.15-1.15" transform="translate(0 -0.31)"/><path class="cls-3" d="M49.11,39A1.15,1.15,0,1,0,48,40.2,1.16,1.16,0,0,0,49.11,39" transform="translate(0 -0.31)"/><path class="cls-3" d="M49.11,39A1.15,1.15,0,1,0,48,40.2,1.16,1.16,0,0,0,49.11,39" transform="translate(0 -0.31)"/><path class="cls-3" d="M49.11,36.64A1.15,1.15,0,1,0,48,37.8a1.16,1.16,0,0,0,1.15-1.15" transform="translate(0 -0.31)"/><path class="cls-3" d="M49.11,36.64A1.15,1.15,0,1,0,48,37.8a1.16,1.16,0,0,0,1.15-1.15" transform="translate(0 -0.31)"/><path class="cls-3" d="M49.11,34.24A1.15,1.15,0,1,0,48,35.4a1.16,1.16,0,0,0,1.15-1.15" transform="translate(0 -0.31)"/><path class="cls-3" d="M49.11,34.24A1.15,1.15,0,1,0,48,35.4a1.16,1.16,0,0,0,1.15-1.15" transform="translate(0 -0.31)"/><path class="cls-3" d="M46.45,46.25a1.15,1.15,0,1,0-1.15,1.15,1.16,1.16,0,0,0,1.15-1.15" transform="translate(0 -0.31)"/><path class="cls-3" d="M46.45,46.25a1.15,1.15,0,1,0-1.15,1.15,1.16,1.16,0,0,0,1.15-1.15" transform="translate(0 -0.31)"/><path class="cls-3" d="M46.45,43.85A1.15,1.15,0,1,0,45.29,45a1.16,1.16,0,0,0,1.15-1.15" transform="translate(0 -0.31)"/><path class="cls-3" d="M46.45,43.85A1.15,1.15,0,1,0,45.29,45a1.16,1.16,0,0,0,1.15-1.15" transform="translate(0 -0.31)"/><path class="cls-3" d="M46.45,41.45a1.15,1.15,0,1,0-1.15,1.15,1.16,1.16,0,0,0,1.15-1.15" transform="translate(0 -0.31)"/><path class="cls-3" d="M46.45,41.45a1.15,1.15,0,1,0-1.15,1.15,1.16,1.16,0,0,0,1.15-1.15" transform="translate(0 -0.31)"/><path class="cls-3" d="M46.45,39a1.15,1.15,0,1,0-1.15,1.15A1.16,1.16,0,0,0,46.45,39" transform="translate(0 -0.31)"/><path class="cls-3" d="M46.45,39a1.15,1.15,0,1,0-1.15,1.15A1.16,1.16,0,0,0,46.45,39" transform="translate(0 -0.31)"/><path class="cls-3" d="M46.45,36.64a1.15,1.15,0,1,0-1.15,1.15,1.16,1.16,0,0,0,1.15-1.15" transform="translate(0 -0.31)"/><path class="cls-3" d="M46.45,36.64a1.15,1.15,0,1,0-1.15,1.15,1.16,1.16,0,0,0,1.15-1.15" transform="translate(0 -0.31)"/><path class="cls-3" d="M46.45,34.24a1.15,1.15,0,1,0-1.15,1.15,1.16,1.16,0,0,0,1.15-1.15" transform="translate(0 -0.31)"/><path class="cls-3" d="M46.45,34.24a1.15,1.15,0,1,0-1.15,1.15,1.16,1.16,0,0,0,1.15-1.15" transform="translate(0 -0.31)"/><path class="cls-3" d="M46.45,31.84A1.15,1.15,0,1,0,45.29,33a1.16,1.16,0,0,0,1.15-1.15" transform="translate(0 -0.31)"/><path class="cls-3" d="M46.45,31.84A1.15,1.15,0,1,0,45.29,33a1.16,1.16,0,0,0,1.15-1.15" transform="translate(0 -0.31)"/><path class="cls-3" d="M43.94,46.25a1.15,1.15,0,1,0-1.15,1.15,1.16,1.16,0,0,0,1.15-1.15" transform="translate(0 -0.31)"/><path class="cls-3" d="M43.94,46.25a1.15,1.15,0,1,0-1.15,1.15,1.16,1.16,0,0,0,1.15-1.15" transform="translate(0 -0.31)"/><path class="cls-3" d="M43.94,43.85A1.15,1.15,0,1,0,42.79,45a1.16,1.16,0,0,0,1.15-1.15" transform="translate(0 -0.31)"/><path class="cls-3" d="M43.94,43.85A1.15,1.15,0,1,0,42.79,45a1.16,1.16,0,0,0,1.15-1.15" transform="translate(0 -0.31)"/><path class="cls-3" d="M43.94,41.45a1.15,1.15,0,1,0-1.15,1.15,1.16,1.16,0,0,0,1.15-1.15" transform="translate(0 -0.31)"/><path class="cls-3" d="M43.94,41.45a1.15,1.15,0,1,0-1.15,1.15,1.16,1.16,0,0,0,1.15-1.15" transform="translate(0 -0.31)"/><path class="cls-3" d="M43.94,39a1.15,1.15,0,1,0-1.15,1.15A1.16,1.16,0,0,0,43.94,39" transform="translate(0 -0.31)"/><path class="cls-3" d="M43.94,39a1.15,1.15,0,1,0-1.15,1.15A1.16,1.16,0,0,0,43.94,39" transform="translate(0 -0.31)"/><path class="cls-3" d="M43.94,36.64a1.15,1.15,0,1,0-1.15,1.15,1.16,1.16,0,0,0,1.15-1.15" transform="translate(0 -0.31)"/><path class="cls-3" d="M43.94,36.64a1.15,1.15,0,1,0-1.15,1.15,1.16,1.16,0,0,0,1.15-1.15" transform="translate(0 -0.31)"/><path class="cls-3" d="M43.94,34.24a1.15,1.15,0,1,0-1.15,1.15,1.16,1.16,0,0,0,1.15-1.15" transform="translate(0 -0.31)"/><path class="cls-3" d="M43.94,34.24a1.15,1.15,0,1,0-1.15,1.15,1.16,1.16,0,0,0,1.15-1.15" transform="translate(0 -0.31)"/><path class="cls-3" d="M43.94,31.84A1.15,1.15,0,1,0,42.79,33a1.16,1.16,0,0,0,1.15-1.15" transform="translate(0 -0.31)"/><path class="cls-3" d="M43.94,31.84A1.15,1.15,0,1,0,42.79,33a1.16,1.16,0,0,0,1.15-1.15" transform="translate(0 -0.31)"/><path class="cls-3" d="M43.94,29.44a1.15,1.15,0,1,0-1.15,1.15,1.16,1.16,0,0,0,1.15-1.15" transform="translate(0 -0.31)"/><path class="cls-3" d="M43.94,29.44a1.15,1.15,0,1,0-1.15,1.15,1.16,1.16,0,0,0,1.15-1.15" transform="translate(0 -0.31)"/><path class="cls-3" d="M41.39,46.25a1.15,1.15,0,1,0-1.15,1.15,1.16,1.16,0,0,0,1.15-1.15" transform="translate(0 -0.31)"/><path class="cls-3" d="M41.39,46.25a1.15,1.15,0,1,0-1.15,1.15,1.16,1.16,0,0,0,1.15-1.15" transform="translate(0 -0.31)"/><path class="cls-3" d="M41.39,43.85A1.15,1.15,0,1,0,40.23,45a1.16,1.16,0,0,0,1.15-1.15" transform="translate(0 -0.31)"/><path class="cls-3" d="M41.39,43.85A1.15,1.15,0,1,0,40.23,45a1.16,1.16,0,0,0,1.15-1.15" transform="translate(0 -0.31)"/><path class="cls-3" d="M41.39,41.45a1.15,1.15,0,1,0-1.15,1.15,1.16,1.16,0,0,0,1.15-1.15" transform="translate(0 -0.31)"/><path class="cls-3" d="M41.39,41.45a1.15,1.15,0,1,0-1.15,1.15,1.16,1.16,0,0,0,1.15-1.15" transform="translate(0 -0.31)"/><path class="cls-3" d="M41.39,39a1.15,1.15,0,1,0-1.15,1.15A1.16,1.16,0,0,0,41.39,39" transform="translate(0 -0.31)"/><path class="cls-3" d="M41.39,39a1.15,1.15,0,1,0-1.15,1.15A1.16,1.16,0,0,0,41.39,39" transform="translate(0 -0.31)"/><path class="cls-3" d="M41.39,36.64a1.15,1.15,0,1,0-1.15,1.15,1.16,1.16,0,0,0,1.15-1.15" transform="translate(0 -0.31)"/><path class="cls-3" d="M41.39,36.64a1.15,1.15,0,1,0-1.15,1.15,1.16,1.16,0,0,0,1.15-1.15" transform="translate(0 -0.31)"/><path class="cls-3" d="M41.39,34.24a1.15,1.15,0,1,0-1.15,1.15,1.16,1.16,0,0,0,1.15-1.15" transform="translate(0 -0.31)"/><path class="cls-3" d="M41.39,34.24a1.15,1.15,0,1,0-1.15,1.15,1.16,1.16,0,0,0,1.15-1.15" transform="translate(0 -0.31)"/><path class="cls-3" d="M41.39,31.84A1.15,1.15,0,1,0,40.23,33a1.16,1.16,0,0,0,1.15-1.15" transform="translate(0 -0.31)"/><path class="cls-3" d="M41.39,31.84A1.15,1.15,0,1,0,40.23,33a1.16,1.16,0,0,0,1.15-1.15" transform="translate(0 -0.31)"/><path class="cls-3" d="M41.39,29.44a1.15,1.15,0,1,0-1.15,1.15,1.16,1.16,0,0,0,1.15-1.15" transform="translate(0 -0.31)"/><path class="cls-3" d="M41.39,29.44a1.15,1.15,0,1,0-1.15,1.15,1.16,1.16,0,0,0,1.15-1.15" transform="translate(0 -0.31)"/><path class="cls-3" d="M38.8,46.25a1.15,1.15,0,1,0-1.15,1.15,1.16,1.16,0,0,0,1.15-1.15" transform="translate(0 -0.31)"/><path class="cls-3" d="M38.8,46.25a1.15,1.15,0,1,0-1.15,1.15,1.16,1.16,0,0,0,1.15-1.15" transform="translate(0 -0.31)"/><path class="cls-3" d="M38.8,43.85A1.15,1.15,0,1,0,37.65,45a1.16,1.16,0,0,0,1.15-1.15" transform="translate(0 -0.31)"/><path class="cls-3" d="M38.8,43.85A1.15,1.15,0,1,0,37.65,45a1.16,1.16,0,0,0,1.15-1.15" transform="translate(0 -0.31)"/><path class="cls-3" d="M38.8,41.45a1.15,1.15,0,1,0-1.15,1.15,1.16,1.16,0,0,0,1.15-1.15" transform="translate(0 -0.31)"/><path class="cls-3" d="M38.8,41.45a1.15,1.15,0,1,0-1.15,1.15,1.16,1.16,0,0,0,1.15-1.15" transform="translate(0 -0.31)"/><path class="cls-3" d="M38.8,39a1.15,1.15,0,1,0-1.15,1.15A1.16,1.16,0,0,0,38.8,39" transform="translate(0 -0.31)"/><path class="cls-3" d="M38.8,39a1.15,1.15,0,1,0-1.15,1.15A1.16,1.16,0,0,0,38.8,39" transform="translate(0 -0.31)"/><path class="cls-3" d="M38.8,36.64a1.15,1.15,0,1,0-1.15,1.15,1.16,1.16,0,0,0,1.15-1.15" transform="translate(0 -0.31)"/><path class="cls-3" d="M38.8,36.64a1.15,1.15,0,1,0-1.15,1.15,1.16,1.16,0,0,0,1.15-1.15" transform="translate(0 -0.31)"/><path class="cls-3" d="M38.8,34.24a1.15,1.15,0,1,0-1.15,1.15,1.16,1.16,0,0,0,1.15-1.15" transform="translate(0 -0.31)"/><path class="cls-3" d="M38.8,34.24a1.15,1.15,0,1,0-1.15,1.15,1.16,1.16,0,0,0,1.15-1.15" transform="translate(0 -0.31)"/><path class="cls-3" d="M38.8,31.84A1.15,1.15,0,1,0,37.65,33a1.16,1.16,0,0,0,1.15-1.15" transform="translate(0 -0.31)"/><path class="cls-3" d="M38.8,31.84A1.15,1.15,0,1,0,37.65,33a1.16,1.16,0,0,0,1.15-1.15" transform="translate(0 -0.31)"/><path class="cls-3" d="M38.8,29.44a1.15,1.15,0,1,0-1.15,1.15,1.16,1.16,0,0,0,1.15-1.15" transform="translate(0 -0.31)"/><path class="cls-3" d="M38.8,29.44a1.15,1.15,0,1,0-1.15,1.15,1.16,1.16,0,0,0,1.15-1.15" transform="translate(0 -0.31)"/><path class="cls-3" d="M38.8,27a1.15,1.15,0,1,0-1.15,1.15A1.16,1.16,0,0,0,38.8,27" transform="translate(0 -0.31)"/><path class="cls-3" d="M38.8,27a1.15,1.15,0,1,0-1.15,1.15A1.16,1.16,0,0,0,38.8,27" transform="translate(0 -0.31)"/><path class="cls-3" d="M38.8,24.64a1.15,1.15,0,1,0-1.15,1.15,1.16,1.16,0,0,0,1.15-1.15" transform="translate(0 -0.31)"/><path class="cls-3" d="M38.8,24.64a1.15,1.15,0,1,0-1.15,1.15,1.16,1.16,0,0,0,1.15-1.15" transform="translate(0 -0.31)"/><path class="cls-3" d="M36.13,46.25A1.15,1.15,0,1,0,35,47.4a1.16,1.16,0,0,0,1.15-1.15" transform="translate(0 -0.31)"/><path class="cls-3" d="M36.13,46.25A1.15,1.15,0,1,0,35,47.4a1.16,1.16,0,0,0,1.15-1.15" transform="translate(0 -0.31)"/><path class="cls-3" d="M36.13,43.85A1.15,1.15,0,1,0,35,45a1.16,1.16,0,0,0,1.15-1.15" transform="translate(0 -0.31)"/><path class="cls-3" d="M36.13,43.85A1.15,1.15,0,1,0,35,45a1.16,1.16,0,0,0,1.15-1.15" transform="translate(0 -0.31)"/><path class="cls-3" d="M36.13,41.45A1.15,1.15,0,1,0,35,42.6a1.16,1.16,0,0,0,1.15-1.15" transform="translate(0 -0.31)"/><path class="cls-3" d="M36.13,41.45A1.15,1.15,0,1,0,35,42.6a1.16,1.16,0,0,0,1.15-1.15" transform="translate(0 -0.31)"/><path class="cls-3" d="M36.13,39A1.15,1.15,0,1,0,35,40.2,1.16,1.16,0,0,0,36.13,39" transform="translate(0 -0.31)"/><path class="cls-3" d="M36.13,39A1.15,1.15,0,1,0,35,40.2,1.16,1.16,0,0,0,36.13,39" transform="translate(0 -0.31)"/><path class="cls-3" d="M36.13,36.64A1.15,1.15,0,1,0,35,37.8a1.16,1.16,0,0,0,1.15-1.15" transform="translate(0 -0.31)"/><path class="cls-3" d="M36.13,36.64A1.15,1.15,0,1,0,35,37.8a1.16,1.16,0,0,0,1.15-1.15" transform="translate(0 -0.31)"/><path class="cls-3" d="M36.13,34.24A1.15,1.15,0,1,0,35,35.4a1.16,1.16,0,0,0,1.15-1.15" transform="translate(0 -0.31)"/><path class="cls-3" d="M36.13,34.24A1.15,1.15,0,1,0,35,35.4a1.16,1.16,0,0,0,1.15-1.15" transform="translate(0 -0.31)"/><path class="cls-3" d="M36.13,31.84A1.15,1.15,0,1,0,35,33a1.16,1.16,0,0,0,1.15-1.15" transform="translate(0 -0.31)"/><path class="cls-3" d="M36.13,31.84A1.15,1.15,0,1,0,35,33a1.16,1.16,0,0,0,1.15-1.15" transform="translate(0 -0.31)"/><path class="cls-3" d="M36.13,29.44A1.15,1.15,0,1,0,35,30.59a1.16,1.16,0,0,0,1.15-1.15" transform="translate(0 -0.31)"/><path class="cls-3" d="M36.13,29.44A1.15,1.15,0,1,0,35,30.59a1.16,1.16,0,0,0,1.15-1.15" transform="translate(0 -0.31)"/><path class="cls-3" d="M36.13,27A1.15,1.15,0,1,0,35,28.19,1.16,1.16,0,0,0,36.13,27" transform="translate(0 -0.31)"/><path class="cls-3" d="M36.13,27A1.15,1.15,0,1,0,35,28.19,1.16,1.16,0,0,0,36.13,27" transform="translate(0 -0.31)"/><path class="cls-3" d="M33.61,46.25a1.15,1.15,0,1,0-1.15,1.15,1.16,1.16,0,0,0,1.15-1.15" transform="translate(0 -0.31)"/><path class="cls-3" d="M33.61,46.25a1.15,1.15,0,1,0-1.15,1.15,1.16,1.16,0,0,0,1.15-1.15" transform="translate(0 -0.31)"/><path class="cls-3" d="M33.61,43.85A1.15,1.15,0,1,0,32.45,45a1.16,1.16,0,0,0,1.15-1.15" transform="translate(0 -0.31)"/><path class="cls-3" d="M33.61,43.85A1.15,1.15,0,1,0,32.45,45a1.16,1.16,0,0,0,1.15-1.15" transform="translate(0 -0.31)"/><path class="cls-3" d="M33.61,41.45a1.15,1.15,0,1,0-1.15,1.15,1.16,1.16,0,0,0,1.15-1.15" transform="translate(0 -0.31)"/><path class="cls-3" d="M33.61,41.45a1.15,1.15,0,1,0-1.15,1.15,1.16,1.16,0,0,0,1.15-1.15" transform="translate(0 -0.31)"/><path class="cls-3" d="M33.61,39a1.15,1.15,0,1,0-1.15,1.15A1.16,1.16,0,0,0,33.61,39" transform="translate(0 -0.31)"/><path class="cls-3" d="M33.61,39a1.15,1.15,0,1,0-1.15,1.15A1.16,1.16,0,0,0,33.61,39" transform="translate(0 -0.31)"/><path class="cls-3" d="M33.61,36.64a1.15,1.15,0,1,0-1.15,1.15,1.16,1.16,0,0,0,1.15-1.15" transform="translate(0 -0.31)"/><path class="cls-3" d="M33.61,36.64a1.15,1.15,0,1,0-1.15,1.15,1.16,1.16,0,0,0,1.15-1.15" transform="translate(0 -0.31)"/><path class="cls-3" d="M33.61,34.24a1.15,1.15,0,1,0-1.15,1.15,1.16,1.16,0,0,0,1.15-1.15" transform="translate(0 -0.31)"/><path class="cls-3" d="M33.61,34.24a1.15,1.15,0,1,0-1.15,1.15,1.16,1.16,0,0,0,1.15-1.15" transform="translate(0 -0.31)"/><path class="cls-3" d="M33.61,31.84A1.15,1.15,0,1,0,32.45,33a1.16,1.16,0,0,0,1.15-1.15" transform="translate(0 -0.31)"/><path class="cls-3" d="M33.61,31.84A1.15,1.15,0,1,0,32.45,33a1.16,1.16,0,0,0,1.15-1.15" transform="translate(0 -0.31)"/><path class="cls-3" d="M33.61,29.44a1.15,1.15,0,1,0-1.15,1.15,1.16,1.16,0,0,0,1.15-1.15" transform="translate(0 -0.31)"/><path class="cls-3" d="M33.61,29.44a1.15,1.15,0,1,0-1.15,1.15,1.16,1.16,0,0,0,1.15-1.15" transform="translate(0 -0.31)"/><path class="cls-3" d="M33.61,27a1.15,1.15,0,1,0-1.15,1.15A1.16,1.16,0,0,0,33.61,27" transform="translate(0 -0.31)"/><path class="cls-3" d="M33.61,27a1.15,1.15,0,1,0-1.15,1.15A1.16,1.16,0,0,0,33.61,27" transform="translate(0 -0.31)"/><path class="cls-3" d="M31.07,46.25a1.15,1.15,0,1,0-1.15,1.15,1.16,1.16,0,0,0,1.15-1.15" transform="translate(0 -0.31)"/><path class="cls-3" d="M31.07,46.25a1.15,1.15,0,1,0-1.15,1.15,1.16,1.16,0,0,0,1.15-1.15" transform="translate(0 -0.31)"/><path class="cls-3" d="M31.07,43.85A1.15,1.15,0,1,0,29.92,45a1.16,1.16,0,0,0,1.15-1.15" transform="translate(0 -0.31)"/><path class="cls-3" d="M31.07,43.85A1.15,1.15,0,1,0,29.92,45a1.16,1.16,0,0,0,1.15-1.15" transform="translate(0 -0.31)"/><path class="cls-3" d="M31.07,41.45a1.15,1.15,0,1,0-1.15,1.15,1.16,1.16,0,0,0,1.15-1.15" transform="translate(0 -0.31)"/><path class="cls-3" d="M31.07,41.45a1.15,1.15,0,1,0-1.15,1.15,1.16,1.16,0,0,0,1.15-1.15" transform="translate(0 -0.31)"/><path class="cls-3" d="M31.07,39a1.15,1.15,0,1,0-1.15,1.15A1.16,1.16,0,0,0,31.07,39" transform="translate(0 -0.31)"/><path class="cls-3" d="M31.07,39a1.15,1.15,0,1,0-1.15,1.15A1.16,1.16,0,0,0,31.07,39" transform="translate(0 -0.31)"/><path class="cls-3" d="M31.07,36.64a1.15,1.15,0,1,0-1.15,1.15,1.16,1.16,0,0,0,1.15-1.15" transform="translate(0 -0.31)"/><path class="cls-3" d="M31.07,36.64a1.15,1.15,0,1,0-1.15,1.15,1.16,1.16,0,0,0,1.15-1.15" transform="translate(0 -0.31)"/><path class="cls-3" d="M31.07,34.24a1.15,1.15,0,1,0-1.15,1.15,1.16,1.16,0,0,0,1.15-1.15" transform="translate(0 -0.31)"/><path class="cls-3" d="M31.07,34.24a1.15,1.15,0,1,0-1.15,1.15,1.16,1.16,0,0,0,1.15-1.15" transform="translate(0 -0.31)"/><path class="cls-3" d="M31.07,31.84A1.15,1.15,0,1,0,29.92,33a1.16,1.16,0,0,0,1.15-1.15" transform="translate(0 -0.31)"/><path class="cls-3" d="M31.07,31.84A1.15,1.15,0,1,0,29.92,33a1.16,1.16,0,0,0,1.15-1.15" transform="translate(0 -0.31)"/><path class="cls-3" d="M31.07,29.44a1.15,1.15,0,1,0-1.15,1.15,1.16,1.16,0,0,0,1.15-1.15" transform="translate(0 -0.31)"/><path class="cls-3" d="M31.07,29.44a1.15,1.15,0,1,0-1.15,1.15,1.16,1.16,0,0,0,1.15-1.15" transform="translate(0 -0.31)"/><path class="cls-3" d="M28.64,46.25a1.15,1.15,0,1,0-1.15,1.15,1.16,1.16,0,0,0,1.15-1.15" transform="translate(0 -0.31)"/><path class="cls-3" d="M28.64,46.25a1.15,1.15,0,1,0-1.15,1.15,1.16,1.16,0,0,0,1.15-1.15" transform="translate(0 -0.31)"/><path class="cls-3" d="M28.64,43.85A1.15,1.15,0,1,0,27.49,45a1.16,1.16,0,0,0,1.15-1.15" transform="translate(0 -0.31)"/><path class="cls-3" d="M28.64,43.85A1.15,1.15,0,1,0,27.49,45a1.16,1.16,0,0,0,1.15-1.15" transform="translate(0 -0.31)"/><path class="cls-3" d="M28.64,41.45a1.15,1.15,0,1,0-1.15,1.15,1.16,1.16,0,0,0,1.15-1.15" transform="translate(0 -0.31)"/><path class="cls-3" d="M28.64,41.45a1.15,1.15,0,1,0-1.15,1.15,1.16,1.16,0,0,0,1.15-1.15" transform="translate(0 -0.31)"/><path class="cls-3" d="M28.64,39a1.15,1.15,0,1,0-1.15,1.15A1.16,1.16,0,0,0,28.64,39" transform="translate(0 -0.31)"/><path class="cls-3" d="M28.64,39a1.15,1.15,0,1,0-1.15,1.15A1.16,1.16,0,0,0,28.64,39" transform="translate(0 -0.31)"/><path class="cls-3" d="M28.64,36.64a1.15,1.15,0,1,0-1.15,1.15,1.16,1.16,0,0,0,1.15-1.15" transform="translate(0 -0.31)"/><path class="cls-3" d="M28.64,36.64a1.15,1.15,0,1,0-1.15,1.15,1.16,1.16,0,0,0,1.15-1.15" transform="translate(0 -0.31)"/><path class="cls-3" d="M28.64,34.24a1.15,1.15,0,1,0-1.15,1.15,1.16,1.16,0,0,0,1.15-1.15" transform="translate(0 -0.31)"/><path class="cls-3" d="M28.64,34.24a1.15,1.15,0,1,0-1.15,1.15,1.16,1.16,0,0,0,1.15-1.15" transform="translate(0 -0.31)"/><path class="cls-3" d="M28.64,31.84A1.15,1.15,0,1,0,27.49,33a1.16,1.16,0,0,0,1.15-1.15" transform="translate(0 -0.31)"/><path class="cls-3" d="M28.64,31.84A1.15,1.15,0,1,0,27.49,33a1.16,1.16,0,0,0,1.15-1.15" transform="translate(0 -0.31)"/><path class="cls-3" d="M26.07,46.25a1.15,1.15,0,1,0-1.15,1.15,1.16,1.16,0,0,0,1.15-1.15" transform="translate(0 -0.31)"/><path class="cls-3" d="M26.07,46.25a1.15,1.15,0,1,0-1.15,1.15,1.16,1.16,0,0,0,1.15-1.15" transform="translate(0 -0.31)"/><path class="cls-3" d="M26.07,43.85A1.15,1.15,0,1,0,24.91,45a1.16,1.16,0,0,0,1.15-1.15" transform="translate(0 -0.31)"/><path class="cls-3" d="M26.07,43.85A1.15,1.15,0,1,0,24.91,45a1.16,1.16,0,0,0,1.15-1.15" transform="translate(0 -0.31)"/><path class="cls-3" d="M26.07,41.45a1.15,1.15,0,1,0-1.15,1.15,1.16,1.16,0,0,0,1.15-1.15" transform="translate(0 -0.31)"/><path class="cls-3" d="M26.07,41.45a1.15,1.15,0,1,0-1.15,1.15,1.16,1.16,0,0,0,1.15-1.15" transform="translate(0 -0.31)"/><path class="cls-3" d="M26.07,39a1.15,1.15,0,1,0-1.15,1.15A1.16,1.16,0,0,0,26.07,39" transform="translate(0 -0.31)"/><path class="cls-3" d="M26.07,39a1.15,1.15,0,1,0-1.15,1.15A1.16,1.16,0,0,0,26.07,39" transform="translate(0 -0.31)"/><path class="cls-3" d="M26.07,36.64a1.15,1.15,0,1,0-1.15,1.15,1.16,1.16,0,0,0,1.15-1.15" transform="translate(0 -0.31)"/><path class="cls-3" d="M26.07,36.64a1.15,1.15,0,1,0-1.15,1.15,1.16,1.16,0,0,0,1.15-1.15" transform="translate(0 -0.31)"/><path class="cls-3" d="M26.07,34.24a1.15,1.15,0,1,0-1.15,1.15,1.16,1.16,0,0,0,1.15-1.15" transform="translate(0 -0.31)"/><path class="cls-3" d="M26.07,34.24a1.15,1.15,0,1,0-1.15,1.15,1.16,1.16,0,0,0,1.15-1.15" transform="translate(0 -0.31)"/><path class="cls-3" d="M23.42,46.25a1.15,1.15,0,1,0-1.15,1.15,1.16,1.16,0,0,0,1.15-1.15" transform="translate(0 -0.31)"/><path class="cls-3" d="M23.42,46.25a1.15,1.15,0,1,0-1.15,1.15,1.16,1.16,0,0,0,1.15-1.15" transform="translate(0 -0.31)"/><path class="cls-3" d="M23.42,43.85A1.15,1.15,0,1,0,22.27,45a1.16,1.16,0,0,0,1.15-1.15" transform="translate(0 -0.31)"/><path class="cls-3" d="M23.42,43.85A1.15,1.15,0,1,0,22.27,45a1.16,1.16,0,0,0,1.15-1.15" transform="translate(0 -0.31)"/><path class="cls-3" d="M23.42,41.45a1.15,1.15,0,1,0-1.15,1.15,1.16,1.16,0,0,0,1.15-1.15" transform="translate(0 -0.31)"/><path class="cls-3" d="M23.42,41.45a1.15,1.15,0,1,0-1.15,1.15,1.16,1.16,0,0,0,1.15-1.15" transform="translate(0 -0.31)"/><path class="cls-3" d="M23.42,39a1.15,1.15,0,1,0-1.15,1.15A1.16,1.16,0,0,0,23.42,39" transform="translate(0 -0.31)"/><path class="cls-3" d="M23.42,39a1.15,1.15,0,1,0-1.15,1.15A1.16,1.16,0,0,0,23.42,39" transform="translate(0 -0.31)"/><path class="cls-3" d="M20.76,46.25a1.15,1.15,0,1,0-1.15,1.15,1.16,1.16,0,0,0,1.15-1.15" transform="translate(0 -0.31)"/><path class="cls-3" d="M20.76,46.25a1.15,1.15,0,1,0-1.15,1.15,1.16,1.16,0,0,0,1.15-1.15" transform="translate(0 -0.31)"/><path class="cls-3" d="M20.76,43.85A1.15,1.15,0,1,0,19.61,45a1.16,1.16,0,0,0,1.15-1.15" transform="translate(0 -0.31)"/><path class="cls-3" d="M20.76,43.85A1.15,1.15,0,1,0,19.61,45a1.16,1.16,0,0,0,1.15-1.15" transform="translate(0 -0.31)"/><path class="cls-3" d="M20.76,41.45a1.15,1.15,0,1,0-1.15,1.15,1.16,1.16,0,0,0,1.15-1.15" transform="translate(0 -0.31)"/><path class="cls-3" d="M20.76,41.45a1.15,1.15,0,1,0-1.15,1.15,1.16,1.16,0,0,0,1.15-1.15" transform="translate(0 -0.31)"/><path class="cls-3" d="M17.77,46.25a1.15,1.15,0,1,0-1.15,1.15,1.16,1.16,0,0,0,1.15-1.15" transform="translate(0 -0.31)"/><path class="cls-3" d="M17.77,46.25a1.15,1.15,0,1,0-1.15,1.15,1.16,1.16,0,0,0,1.15-1.15" transform="translate(0 -0.31)"/><path class="cls-3" d="M17.77,43.85A1.15,1.15,0,1,0,16.62,45a1.16,1.16,0,0,0,1.15-1.15" transform="translate(0 -0.31)"/><path class="cls-3" d="M17.77,43.85A1.15,1.15,0,1,0,16.62,45a1.16,1.16,0,0,0,1.15-1.15" transform="translate(0 -0.31)"/><path class="cls-3" d="M14.31,46.25a1.15,1.15,0,1,0-1.15,1.15,1.16,1.16,0,0,0,1.15-1.15" transform="translate(0 -0.31)"/><path class="cls-3" d="M14.31,46.25a1.15,1.15,0,1,0-1.15,1.15,1.16,1.16,0,0,0,1.15-1.15" transform="translate(0 -0.31)"/><path class="cls-3" d="M9.94,46.25A1.15,1.15,0,1,0,8.79,47.4a1.16,1.16,0,0,0,1.15-1.15" transform="translate(0 -0.31)"/><path class="cls-3" d="M9.94,46.25A1.15,1.15,0,1,0,8.79,47.4a1.16,1.16,0,0,0,1.15-1.15" transform="translate(0 -0.31)"/></g><path class="cls-3" d="M12.59,56.09H10.53v3.5c0,.9,0,1.61,1,1.61a2.26,2.26,0,0,0,1-.24l0,1.06a3.55,3.55,0,0,1-1.36.25c-1.66,0-1.93-.9-1.93-2.35V56.09H7.84v-1H9.36v-2h1.17v2h2.06Z" transform="translate(0 -0.31)"/><path class="cls-3" d="M14.73,51.52a.85.85,0,0,1,.85.85.85.85,0,0,1-1.7,0A.85.85,0,0,1,14.73,51.52Zm-.58,3.58h1.17v7H14.14Z" transform="translate(0 -0.31)"/><path class="cls-3" d="M23.14,60.86h0a3,3,0,0,1-2.69,1.42,3.68,3.68,0,0,1,.18-7.35,3.24,3.24,0,0,1,2.51,1.2h0V50.81H24.3V62.1H23.14ZM20.66,56a2.6,2.6,0,1,0,2.48,2.6A2.44,2.44,0,0,0,20.66,56Z" transform="translate(0 -0.31)"/><path class="cls-3" d="M29.11,63.7c-.46,1.18-.93,2-2.33,2a2.53,2.53,0,0,1-1-.18l.15-1a2.27,2.27,0,0,0,.82.12c.76,0,1-.46,1.3-1.15l.48-1.31-2.9-7h1.36l2.17,5.48h0l2.08-5.48h1.27Z" transform="translate(0 -0.31)"/><path class="cls-3" d="M34,50.81h1.79v5h0a3,3,0,0,1,2.43-1.09,3.52,3.52,0,0,1,3.47,3.76,3.48,3.48,0,0,1-3.54,3.76A2.76,2.76,0,0,1,35.76,61h0V62.1H34Zm3.84,5.56A2.15,2.15,0,1,0,40,58.51,2.07,2.07,0,0,0,37.87,56.36Z" transform="translate(0 -0.31)"/><path class="cls-3" d="M47.91,61.11h0a2.58,2.58,0,0,1-2.3,1.17c-1.33,0-2.61-.73-2.61-2.15,0-2.33,2.72-2.5,4.51-2.5h.45v-.19c0-.88-.69-1.34-1.64-1.34a2.82,2.82,0,0,0-1.91.75l-.94-.94a4.2,4.2,0,0,1,3-1.15c3.06,0,3.06,2.21,3.06,3.23V62.1H47.91Zm-.1-2.23h-.37c-1,0-2.69.08-2.69,1.11,0,.66.67.94,1.25.94,1.23,0,1.81-.64,1.81-1.64Z" transform="translate(0 -0.31)"/><path class="cls-3" d="M50.3,54.93h2l2,5h0l1.79-5H58l-3.39,8.71c-.52,1.34-1.15,2-2.73,2a5.35,5.35,0,0,1-1.37-.18l.22-1.61a2.67,2.67,0,0,0,.91.18c.88,0,1.12-.31,1.42-1.06l.34-.85Z" transform="translate(0 -0.31)"/><path class="cls-3" d="M60,59.14a1.86,1.86,0,0,0,1.93,1.7,2.36,2.36,0,0,0,1.93-1l1.29,1a3.83,3.83,0,1,1-3-6.09c2,0,3.36,1.4,3.36,3.9v.49Zm3.67-1.34a1.65,1.65,0,0,0-1.82-1.7A1.78,1.78,0,0,0,60,57.8Z" transform="translate(0 -0.31)"/><path class="cls-3" d="M70.68,56.91a1.63,1.63,0,0,0-1.4-.73c-.48,0-1,.22-1,.76,0,1.28,3.87.24,3.87,3,0,1.7-1.63,2.3-3.09,2.3a3.51,3.51,0,0,1-2.79-1.11l1.2-1.12a2.19,2.19,0,0,0,1.7.88c.52,0,1.2-.25,1.2-.82,0-1.48-3.87-.31-3.87-3,0-1.6,1.43-2.32,2.88-2.32a3.1,3.1,0,0,1,2.55,1.09Z" transform="translate(0 -0.31)"/><g class="cls-9"><path class="cls-3" d="M74.48,47.4H71.3l-.32,0H66.69l-.16,0h-.16l-.16,0h-.16l-.15,0h-.32l-.16,0-.16,0-.16,0-.16,0h-.16l-.16,0-.15,0-.17,0-.15,0-.16,0-.16,0-.16,0-.16,0-.16,0-.16,0-.16,0-.15,0-.17,0-.15,0-.16,0-.16,0-.16,0-.16,0-.16,0-.16,0-.15,0-.16,0-.16,0-.16,0-.16,0-.16,0-.16,0-.16,0-.15,0-.17,0-.15,0-.17-.05-.15,0-.16-.06-.16,0-.16,0-.16-.06-.16-.05-.16-.07-.15-.05-.16-.07-.16-.06L58,45.14l-.16-.06L57.63,45l-.15-.06-.17-.07-.15-.07L57,44.74l-.15-.08-.16-.08-.16-.08-.16-.09-.16-.09-.16-.1-.16-.1L55.72,44l-.15-.11-.16-.12-.16-.12-.16-.13-.16-.13-.15-.13-.17-.14L54.46,43l-.17-.14-.15-.15L54,42.53l-.15-.15-.16-.16-.16-.15-.16-.16-.16-.17L53,41.58l-.15-.17-.17-.17-.15-.17-.16-.17-.16-.18-.16-.19-.16-.18-.15-.19-.17-.2-.15-.2-.17-.2-.15-.21L51,39.14l-.16-.21-.16-.22-.16-.23-.16-.22L50.17,38,50,37.8l-.15-.23-.17-.24-.15-.24-.16-.23-.16-.24-.16-.23-.16-.24-.15-.23-.17-.23-.15-.24-.16-.23L48.1,35l-.16-.24-.16-.23-.16-.24L47.46,34l-.16-.24-.15-.24L47,33.31l-.15-.25-.17-.24-.15-.25-.16-.25-.16-.25L46,31.81l-.16-.25-.15-.26L45.56,31l-.16-.25-.16-.25-.32-.48-.16-.24-.16-.22-.15-.23-.17-.21L44.13,29l-.17-.2-.15-.19-.16-.19-.16-.17-.32-.34L43,27.72l-.16-.16-.15-.14-.16-.14-.16-.14L42.22,27l-.16-.13-.16-.13-.15-.12-.17-.12-.15-.12-.17-.11-.15-.12-.16-.1-.16-.11-.16-.1-.16-.09-.16-.09-.16-.09L40,25.5a7.59,7.59,0,0,0-4.6-.91h-.16l-.16,0-.16,0-.16.05-.16,0-.15.07-.17.09-.15.09L34,25.1l-.15.11-.32.26-.16.14-.16.15L33,25.9l-.17.15-.15.14-.16.14-.16.14-.16.13-.16.13-.16.12-.16.11-.16.1-.15.1-.17.09-.15.09-.17.08-.15.07-.16.08-.16.08-.16.07-.16.08-.15.08-.16.09-.16.1-.16.1-.16.11-.16.12-.16.13-.16.13-.15.15-.17.15-.15.17-.17.17-.15.18-.16.18-.16.19-.16.2-.16.2-.16.21-.16.21-.16.22-.15.21-.16.22-.16.22-.16.22-.16.23-.15.22-.17.23-.15.23-.17.22-.15.23-.16.24-.16.22-.16.24-.16.23-.32.46-.16.23-.15.24-.17.23-.15.23-.16.23-.16.23-.16.22-.16.22-.15.23-.17.22-.15.21-.17.22-.15.21-.16.21-.16.21-.16.21-.16.21-.16.2-.15.2-.17.2-.15.2-.17.2-.15.2-.16.2-.16.19-.16.19-.16.19-.15.19-.17.18-.15.18L19.5,41l-.16.17-.16.17-.16.16-.16.15-.15.15-.17.15-.15.13-.17.13-.15.13-.17.11-.15.12-.16.11-.16.11-.32.2L17,43l-.16.09-.16.09-.16.09-.16.09-.16.09-.16.09-.16.1-.15.09-.17.09-.15.09L15.2,44l-.15.1-.16.09-.16.1-.16.09-.16.1-.16.09-.15.1-.16.09-.16.09-.16.09-.16.09-.16.09-.16.09-.15.08-.17.08-.15.08-.17.08-.15.07-.16.07-.16.07-.16.06-.16.07-.16,0-.32.12-.15.05-.16,0-.16,0-.16,0-.16,0-.15,0-.17,0-.15,0-.17,0-.15,0-.17,0-.15,0H9.17l-.16,0-.16,0H8.69l-.16,0H8.38l-.17,0-.15,0H7.9l-.16,0-.16,0H7.27l-.17,0-.15,0-.17,0-.15,0H6.47l-.16,0-.16,0-.16,0-.16,0-.15,0-.17,0-.15,0-.17,0H5l-.16,0H4.72l-.16,0-.16,0H4.25l-.17,0H3.93l-.32,0-.16,0H3l-.17,0H1.25v.17H76.54V47.4Z" transform="translate(0 -0.31)"/></g></g></svg>