<?xml version="1.0" encoding="utf-8"?>
<!-- Generator: Adobe Illustrator 24.1.2, SVG Export Plug-In . SVG Version: 6.00 Build 0)  -->
<svg version="1.1" xmlns="http://www.w3.org/2000/svg" xmlns:xlink="http://www.w3.org/1999/xlink" x="0px" y="0px" width="80px"
	 height="93px" viewBox="0 0 80 93" style="enable-background:new 0 0 80 93;" xml:space="preserve">
<style type="text/css">
	.st0{fill:#FFFFFF;}
	.st1{fill:#6A91C3;}
	.st2{fill:#4575B4;stroke:#4575B4;stroke-miterlimit:10;}
	.st3{fill:#74ADD1;stroke:#74ADD1;stroke-miterlimit:10;}
	.st4{fill:#ABD9E9;stroke:#ABD9E9;stroke-miterlimit:10;}
	.st5{fill:#CDE8F2;stroke:#CDE8F2;stroke-miterlimit:10;}
	.st6{fill:#D7EDF4;stroke:#D7EDF4;stroke-miterlimit:10;}
	.st7{fill:#4575B4;}
</style>
<g id="Layer_4">
	<g>
		<polygon class="st0" points="1,69.02 1,23.98 40,1.46 79,23.98 79,69.02 40,91.54 		"/>
		<path class="st1" d="M40,2.62l38,21.94v43.88L40,90.38L2,68.44V24.56L40,2.62 M40,0.31L0,23.41v46.19l40,23.1l40-23.1V23.41
			L40,0.31L40,0.31z"/>
	</g>
</g>
<g id="Layer_7">
</g>
<g id="Layer_8">
	<g>
		<path class="st2" d="M27.97,45.69c0,1.88,1.54,3.42,3.42,3.42c1.88,0,3.42-1.54,3.42-3.42c0-1.88-1.54-3.42-3.42-3.42
			C29.51,42.27,27.97,43.81,27.97,45.69"/>
		<path class="st3" d="M27.97,36.32c0,1.88,1.54,3.42,3.42,3.42c1.88,0,3.42-1.54,3.42-3.42c0-1.88-1.54-3.42-3.42-3.42
			C29.51,32.9,27.97,34.44,27.97,36.32"/>
		<path class="st2" d="M19.23,45.69c0,1.88,1.54,3.42,3.42,3.42c1.88,0,3.42-1.54,3.42-3.42c0-1.88-1.54-3.42-3.42-3.42
			C20.77,42.27,19.23,43.81,19.23,45.69"/>
		<path class="st2" d="M19.23,36.32c0,1.88,1.54,3.42,3.42,3.42c1.88,0,3.42-1.54,3.42-3.42c0-1.88-1.54-3.42-3.42-3.42
			C20.77,32.9,19.23,34.44,19.23,36.32"/>
		<path class="st2" d="M10.6,45.69c0,1.88,1.54,3.42,3.42,3.42c1.88,0,3.42-1.54,3.42-3.42c0-1.88-1.54-3.42-3.42-3.42
			C12.14,42.27,10.6,43.81,10.6,45.69"/>
		<path class="st3" d="M36.75,45.69c0,1.88,1.54,3.42,3.42,3.42c1.88,0,3.42-1.54,3.42-3.42c0-1.88-1.54-3.42-3.42-3.42
			C38.29,42.27,36.75,43.81,36.75,45.69"/>
		<path class="st4" d="M45.47,45.69c0,1.88,1.54,3.42,3.42,3.42c1.88,0,3.42-1.54,3.42-3.42c0-1.88-1.54-3.42-3.42-3.42
			C47.01,42.27,45.47,43.81,45.47,45.69"/>
		<path class="st5" d="M54.1,45.69c0,1.88,1.54,3.42,3.42,3.42c1.88,0,3.42-1.54,3.42-3.42c0-1.88-1.54-3.42-3.42-3.42
			C55.64,42.27,54.1,43.81,54.1,45.69"/>
		<path class="st4" d="M36.75,36.32c0,1.88,1.54,3.42,3.42,3.42c1.88,0,3.42-1.54,3.42-3.42c0-1.88-1.54-3.42-3.42-3.42
			C38.29,32.9,36.75,34.44,36.75,36.32"/>
		<path class="st5" d="M45.47,36.32c0,1.88,1.54,3.42,3.42,3.42c1.88,0,3.42-1.54,3.42-3.42c0-1.88-1.54-3.42-3.42-3.42
			C47.01,32.9,45.47,34.44,45.47,36.32"/>
		<path class="st4" d="M27.97,26.95c0,1.88,1.54,3.42,3.42,3.42c1.88,0,3.42-1.54,3.42-3.42c0-1.88-1.54-3.42-3.42-3.42
			C29.51,23.53,27.97,25.07,27.97,26.95"/>
		<path class="st5" d="M36.75,26.95c0,1.88,1.54,3.42,3.42,3.42c1.88,0,3.42-1.54,3.42-3.42c0-1.88-1.54-3.42-3.42-3.42
			C38.29,23.53,36.75,25.07,36.75,26.95"/>
		<path class="st6" d="M45.47,26.95c0,1.88,1.54,3.42,3.42,3.42c1.88,0,3.42-1.54,3.42-3.42c0-1.88-1.54-3.42-3.42-3.42
			C47.01,23.53,45.47,25.07,45.47,26.95"/>
		<path class="st6" d="M54.1,36.32c0,1.88,1.54,3.42,3.42,3.42c1.88,0,3.42-1.54,3.42-3.42c0-1.88-1.54-3.42-3.42-3.42
			C55.64,32.9,54.1,34.44,54.1,36.32"/>
		<path class="st6" d="M62.56,45.69c0,1.88,1.54,3.42,3.42,3.42c1.88,0,3.42-1.54,3.42-3.42c0-1.88-1.54-3.42-3.42-3.42
			C64.1,42.27,62.56,43.81,62.56,45.69"/>
	</g>
</g>
<g id="Layer_2">
	<g>
		<g>
			<g>
				<path class="st7" d="M8.05,56.17H5.82v-1.87h6.7v1.87h-2.23v6.57H8.05V56.17z"/>
				<path class="st7" d="M14.33,54.29h2.23v8.44h-2.23V54.29z"/>
				<path class="st7" d="M18.99,54.29h2.49c2.57,0,4.34,1.19,4.34,4.18c0,2.99-1.77,4.26-4.21,4.26h-2.62V54.29z M21.35,60.94
					c1.22,0,2.18-0.49,2.18-2.47c0-1.97-0.96-2.39-2.18-2.39h-0.13v4.86H21.35z"/>
				<path class="st7" d="M29.36,59.83l-2.54-5.53h2.39l0.62,1.77c0.21,0.64,0.42,1.22,0.64,1.88h0.05c0.22-0.66,0.44-1.25,0.66-1.88
					l0.62-1.77h2.34l-2.54,5.53v2.91h-2.23V59.83z"/>
				<path class="st7" d="M35.5,54.29h3.04c1.77,0,3.19,0.44,3.19,2.1c0,0.73-0.42,1.56-1.06,1.82v0.05c0.8,0.23,1.45,0.86,1.45,1.97
					c0,1.74-1.51,2.49-3.32,2.49h-3.3V54.29z M38.49,57.59c0.73,0,1.06-0.34,1.06-0.86s-0.34-0.73-1.06-0.73h-0.75v1.58H38.49z
					 M38.64,61.02c0.88,0,1.3-0.31,1.3-0.94c0-0.62-0.42-0.86-1.3-0.86h-0.91v1.79H38.64z"/>
				<path class="st7" d="M45.51,54.29h2.7l2.57,8.44h-2.36l-0.96-4.1c-0.21-0.8-0.42-1.83-0.62-2.67h-0.05
					c-0.18,0.86-0.39,1.87-0.6,2.67l-0.96,4.1h-2.29L45.51,54.29z M44.78,59.22h4.13v1.73h-4.13V59.22z"/>
				<path class="st7" d="M53.63,59.83l-2.54-5.53h2.39l0.62,1.77c0.21,0.64,0.42,1.22,0.64,1.88h0.05c0.22-0.66,0.44-1.25,0.66-1.88
					l0.62-1.77h2.34l-2.54,5.53v2.91h-2.23V59.83z"/>
				<path class="st7" d="M59.77,54.29h5.45v1.87H62v1.32h2.75v1.87H62v1.51h3.35v1.87h-5.58V54.29z"/>
				<path class="st7" d="M67.03,61.68l1.27-1.53c0.6,0.48,1.35,0.82,1.97,0.82c0.67,0,0.96-0.22,0.96-0.6c0-0.4-0.43-0.53-1.14-0.82
					l-1.05-0.44c-0.91-0.36-1.7-1.13-1.7-2.35c0-1.44,1.3-2.62,3.14-2.62c0.96,0,2.03,0.36,2.81,1.13l-1.12,1.4
					c-0.57-0.4-1.06-0.61-1.69-0.61c-0.54,0-0.88,0.2-0.88,0.57c0,0.4,0.48,0.55,1.25,0.84l1.03,0.4c1.05,0.42,1.65,1.14,1.65,2.31
					c0,1.43-1.19,2.7-3.3,2.7C69.15,62.89,67.93,62.5,67.03,61.68z"/>
			</g>
		</g>
	</g>
</g>
<g id="Layer_1">
</g>
<g id="Layer_3">
</g>
<g id="Layer_5">
</g>
<g id="Layer_6">
</g>
</svg>
