<svg xmlns="http://www.w3.org/2000/svg" xmlns:xlink="http://www.w3.org/1999/xlink" width="80" height="92.38" viewBox="0 0 80 92.38"><defs><style>.cls-1{fill:none;}.cls-2{fill:#fff;}.cls-3{fill:#686868;}.cls-4{clip-path:url(#clip-path);}.cls-5{fill:#dbdbdb;}.cls-6{clip-path:url(#clip-path-2);}.cls-7{fill:#a8a8a8;}.cls-8{clip-path:url(#clip-path-3);}.cls-9{clip-path:url(#clip-path-4);}</style><clipPath id="clip-path" transform="translate(0 -0.31)"><polygon class="cls-1" points="35.55 46.46 74.33 47 74.33 19.67 35.55 19.67 35.55 46.46"/></clipPath><clipPath id="clip-path-2" transform="translate(0 -0.31)"><polygon class="cls-1" points="38.78 46.4 74.33 47 74.33 19.67 38.78 19.67 38.78 46.4"/></clipPath><clipPath id="clip-path-3" transform="translate(0 -0.31)"><rect class="cls-1" x="1.47" y="19.04" width="32.27" height="27.96" transform="translate(35.21 66.04) rotate(-180)"/></clipPath><clipPath id="clip-path-4" transform="translate(0 -0.31)"><rect class="cls-1" x="34.04" y="19.67" width="40.28" height="27.33" transform="translate(108.37 66.67) rotate(-180)"/></clipPath></defs><title>logo</title><g id="Layer_4" data-name="Layer 4"><polygon class="cls-2" points="1 68.71 1 23.68 40 1.16 79 23.68 79 68.71 40 91.23 1 68.71"/><path class="cls-3" d="M40,2.62,78,24.56V68.44L40,90.38,2,68.44V24.56L40,2.62M40,.31,0,23.41V69.59l40,23.1,40-23.1V23.41L40,.31Z" transform="translate(0 -0.31)"/></g><g id="Layer_2" data-name="Layer 2"><g class="cls-4"><path class="cls-5" d="M78.53,46.78H74.9l-.16,0-.16,0-.16,0-.16,0-.16,0-.16,0-.16,0-.16,0-.16,0-.16,0-.16,0-.16,0-.16,0-.16,0-.16,0-.16,0-.16,0L72,46l-.16,0-.16,0-.16,0-.16,0-.16,0-.16,0-.16,0-.16,0-.16,0-.16,0-.16,0-.16,0-.16,0-.16,0-.16,0-.16,0-.16,0-.16-.05L69,45.26l-.16-.05-.16-.05-.16-.05L68.39,45,68.23,45l-.16-.06-.16-.06-.16-.06-.16-.06-.16-.06-.16-.06-.16-.07L67,44.49l-.16-.07-.16-.07-.16-.07-.16-.08-.16-.08L66,44,65.85,44l-.16-.09-.16-.1-.16-.1-.16-.1-.16-.11-.16-.11-.16-.12-.16-.13-.16-.13-.16-.14-.16-.14-.16-.15-.16-.14-.16-.15-.16-.15-.16-.15-.16-.16L63,41.61l-.16-.16-.16-.16-.16-.17L62.36,41l-.16-.17L62,40.61l-.16-.17-.16-.18-.16-.18-.16-.19-.16-.19-.16-.2-.16-.2-.16-.2-.16-.2-.16-.21-.16-.21-.16-.22L60,38l-.16-.23-.16-.23-.16-.23-.16-.23-.16-.23L59,36.64l-.16-.23-.16-.24-.16-.23-.16-.24-.16-.23-.16-.23L57.9,35l-.16-.23-.16-.23-.16-.24-.16-.23-.16-.24-.16-.24-.16-.24-.16-.24-.16-.24-.16-.25-.16-.25L56,32.11l-.16-.25-.16-.25-.16-.26-.16-.25-.16-.25L55,30.59l-.16-.25-.16-.25-.16-.24-.16-.24-.16-.23-.16-.23-.16-.22-.16-.21-.16-.21-.16-.2-.16-.19-.16-.19L53,27.75l-.16-.17-.16-.16-.16-.16-.16-.15L52.18,27,52,26.82l-.16-.14-.16-.13-.16-.13-.16-.13-.16-.12-.16-.12-.16-.12-.16-.11-.16-.11-.16-.1-.16-.1-.16-.1L50,25.3l-.16-.09-.16-.09L49.48,25a7.55,7.55,0,0,0-4.61-.92h-.16l-.16,0-.16,0-.16,0-.16.06-.16.07-.16.08-.16.1-.16.1-.16.12-.16.12L43,25l-.16.14-.16.14-.16.14-.16.15-.16.15-.16.14-.16.14-.16.13-.16.12-.16.12-.16.11-.16.1-.16.1-.16.09-.16.09-.16.08-.16.08-.16.08-.16.08-.16.08-.16.08-.16.08-.16.09-.16.1-.16.1-.16.11-.16.12-.16.12-.16.14-.16.15-.16.15-.16.16-.16.17-.16.18-.16.19-.16.19-.16.2-.16.2-.16.21-.16.21-.16.21-.16.22-.16.21-.16.22-.16.22-.16.23-.16.22-.16.22-.16.23-.16.23-.16.23-.16.23-.16.23-.16.23-.16.23-.16.23-.16.23-.16.23-.16.23-.16.23-.16.23-.16.23-.16.23-.16.22-.16.22-.16.22-.16.22-.16.22-.16.21-.16.21-.16.21-.16.21-.16.21-.16.2L31,38l-.16.2-.16.2-.16.2-.16.2-.16.2-.16.2-.16.2-.16.19-.16.19-.16.19-.16.18-.16.18-.16.17-.16.17-.16.17L28.5,41l-.16.16-.16.15-.16.14-.16.13-.16.13-.16.12-.16.12-.16.12-.16.11-.16.1-.16.1-.16.1-.16.1-.16.09-.16.09-.16.09-.16.09-.16.09-.16.09-.16.09-.16.09L25,43.4l-.16.09-.16.1-.16.1-.16.1-.16.1-.16.1-.16.1-.16.1-.16.1-.16.1-.16.09-.16.09-.16.09-.16.09-.16.09-.16.08-.16.08-.16.08-.16.08-.16.07-.16.07-.16.07-.16.07-.16.06-.16.06-.16.06-.16.06-.16.05-.16,0-.16,0-.16,0-.16,0-.16,0-.16,0-.16,0-.16,0-.16,0L19,46l-.16,0-.16,0-.16,0-.16,0h-.16l-.16,0h-.16l-.16,0h-.47l-.16,0h-.32l-.16,0h-.16l-.16,0-.16,0-.16,0-.16,0-.16,0-.16,0-.16,0-.16,0-.16,0-.16,0-.16,0h-.16l-.16,0h-.16l-.16,0H4.84v0h73.7Z" transform="translate(0 -0.31)"/></g><g class="cls-6"><path class="cls-7" d="M78.53,47H70.16l-.16,0-.16,0-.16,0-.16,0-.16,0-.16,0-.16,0-.16,0-.16,0-.16,0-.16,0-.16,0-.16,0-.16,0-.16,0-.16,0-.16,0-.16,0-.16,0L67,46l-.16,0-.16,0-.16,0-.16,0-.16,0-.16,0-.16,0-.16,0-.16,0-.16,0-.16,0-.16,0-.16,0-.16,0-.16,0-.16-.05-.16-.05-.16-.05L64,45.15l-.16-.05L63.65,45,63.49,45l-.16-.06-.16-.06L63,44.81l-.16-.06-.16-.06-.16-.06-.16-.07-.16-.07-.16-.07-.16-.07-.16-.07-.16-.08-.16-.08L61.26,44,61.11,44l-.16-.09-.16-.1-.16-.1-.16-.1-.16-.11-.16-.11L60,43.2l-.16-.13-.16-.13-.16-.14-.16-.14-.16-.15L59,42.38l-.16-.15-.16-.15-.16-.15-.16-.16-.16-.16-.16-.16-.16-.16-.16-.17L57.61,41l-.16-.17-.16-.18-.16-.17L57,40.26l-.16-.18-.16-.19-.16-.19-.16-.2-.16-.2L56,39.1l-.16-.2-.16-.21-.16-.21-.16-.22L55.22,38l-.16-.23-.16-.23-.16-.23-.16-.23-.16-.23-.16-.24-.16-.23L54,36.17l-.16-.23-.16-.24-.16-.23-.16-.23L53.16,35,53,34.76l-.16-.23-.16-.24-.16-.23-.16-.24-.16-.24L52,33.34l-.16-.24-.16-.24-.16-.25-.16-.25-.16-.25-.16-.25-.16-.25-.16-.26-.16-.25-.16-.25-.16-.25-.16-.25L50,30.1l-.16-.24-.16-.24-.16-.23-.16-.23-.16-.22L49,28.71l-.16-.21-.16-.2-.16-.19-.16-.19-.16-.18-.16-.17-.16-.16-.16-.16-.16-.15L47.44,27l-.16-.14-.16-.14L47,26.55l-.16-.13-.16-.13-.16-.12-.16-.12-.16-.12L46,25.82l-.16-.11-.16-.1-.16-.1-.16-.1-.16-.1-.16-.09-.16-.09L44.74,25a7.55,7.55,0,0,0-4.61-.92H40l-.16,0-.16,0-.16,0-.16.06-.16.07-.16.08-.16.1-.16.1-.16.12-.16.12-.16.13-.16.14-.16.14-.16.14-.16.15-.16.15-.16.14-.16.14-.16.13-.16.12-.16.12-.16.11-.16.1-.16.1-.16.09-.16.09-.16.08-.16.08-.16.08-.16.08-.16.08-.16.08-.16.08-.16.09-.16.1-.16.1-.16.11-.16.12-.16.12-.16.14-.16.15-.16.15-.16.16-.16.17-.16.18-.16.19-.16.19-.16.2-.16.2L32,30l-.16.21-.16.21-.16.22-.16.21-.16.22-.16.22-.16.23-.16.22L30.6,32l-.16.23-.16.23-.16.23L30,32.9l-.16.23-.16.23-.16.23-.16.23-.16.23-.16.23-.16.23-.16.23-.16.23-.16.23-.16.23-.16.22-.16.22-.16.22-.16.22-.16.22-.16.21L27.1,37l-.16.21-.16.21-.16.21-.16.2-.16.2-.16.2-.16.2-.16.2-.16.2-.16.2-.16.2-.16.2L25,39.6l-.16.19-.16.19-.16.18-.16.18-.16.17-.16.17-.16.17-.16.16-.16.16-.16.15-.16.14-.16.13-.16.13-.16.12-.16.12-.16.12-.16.11-.16.1-.16.1-.16.1-.16.1-.16.09-.16.09-.16.09-.16.09-.16.09-.16.09-.16.09-.16.09-.16.09-.16.09-.16.1-.16.1-.16.1-.16.1-.16.1-.16.1-.16.1-.16.1-.16.1-.16.09-.16.09-.16.09-.16.09-.16.09-.16.08-.16.08-.16.08-.16.08-.16.07-.16.07-.16.07-.16.07-.16.06-.16.06-.16.06-.16.06-.16.05-.16,0-.16,0-.16,0-.16,0-.16,0-.16,0-.16,0-.16,0-.16,0-.16,0-.16,0-.16,0-.16,0-.16,0h-.16l-.16,0h-.16l-.16,0h-.47l-.16,0H12l-.16,0h-.16l-.16,0-.16,0-.16,0-.16,0-.16,0-.16,0-.16,0-.16,0-.16,0-.16,0-.16,0H9.78l-.16,0H9.46l-.16,0H1.17V47H78.53Z" transform="translate(0 -0.31)"/></g><g class="cls-8"><path class="cls-3" d="M67,45.8A1.15,1.15,0,1,0,65.89,47,1.16,1.16,0,0,0,67,45.8" transform="translate(0 -0.31)"/><path class="cls-3" d="M67,45.8A1.15,1.15,0,1,0,65.89,47,1.16,1.16,0,0,0,67,45.8" transform="translate(0 -0.31)"/><path class="cls-3" d="M61.33,45.8A1.15,1.15,0,1,0,60.18,47a1.16,1.16,0,0,0,1.15-1.15" transform="translate(0 -0.31)"/><path class="cls-3" d="M61.33,45.8A1.15,1.15,0,1,0,60.18,47a1.16,1.16,0,0,0,1.15-1.15" transform="translate(0 -0.31)"/><path class="cls-3" d="M58.05,45.8A1.15,1.15,0,1,0,56.9,47a1.16,1.16,0,0,0,1.15-1.15" transform="translate(0 -0.31)"/><path class="cls-3" d="M58.05,45.8A1.15,1.15,0,1,0,56.9,47a1.16,1.16,0,0,0,1.15-1.15" transform="translate(0 -0.31)"/><path class="cls-3" d="M58.05,43.4a1.15,1.15,0,1,0-1.15,1.15,1.16,1.16,0,0,0,1.15-1.15" transform="translate(0 -0.31)"/><path class="cls-3" d="M58.05,43.4a1.15,1.15,0,1,0-1.15,1.15,1.16,1.16,0,0,0,1.15-1.15" transform="translate(0 -0.31)"/><path class="cls-3" d="M54.69,45.8A1.15,1.15,0,1,0,53.54,47a1.16,1.16,0,0,0,1.15-1.15" transform="translate(0 -0.31)"/><path class="cls-3" d="M54.69,45.8A1.15,1.15,0,1,0,53.54,47a1.16,1.16,0,0,0,1.15-1.15" transform="translate(0 -0.31)"/><path class="cls-3" d="M54.69,43.4a1.15,1.15,0,1,0-1.15,1.15,1.16,1.16,0,0,0,1.15-1.15" transform="translate(0 -0.31)"/><path class="cls-3" d="M54.69,43.4a1.15,1.15,0,1,0-1.15,1.15,1.16,1.16,0,0,0,1.15-1.15" transform="translate(0 -0.31)"/><path class="cls-3" d="M54.69,41a1.15,1.15,0,1,0-1.15,1.15A1.16,1.16,0,0,0,54.69,41" transform="translate(0 -0.31)"/><path class="cls-3" d="M54.69,41a1.15,1.15,0,1,0-1.15,1.15A1.16,1.16,0,0,0,54.69,41" transform="translate(0 -0.31)"/><path class="cls-3" d="M51.86,45.8A1.15,1.15,0,1,0,50.71,47a1.16,1.16,0,0,0,1.15-1.15" transform="translate(0 -0.31)"/><path class="cls-3" d="M51.86,45.8A1.15,1.15,0,1,0,50.71,47a1.16,1.16,0,0,0,1.15-1.15" transform="translate(0 -0.31)"/><path class="cls-3" d="M51.86,43.4a1.15,1.15,0,1,0-1.15,1.15,1.16,1.16,0,0,0,1.15-1.15" transform="translate(0 -0.31)"/><path class="cls-3" d="M51.86,43.4a1.15,1.15,0,1,0-1.15,1.15,1.16,1.16,0,0,0,1.15-1.15" transform="translate(0 -0.31)"/><path class="cls-3" d="M51.86,41a1.15,1.15,0,1,0-1.15,1.15A1.16,1.16,0,0,0,51.86,41" transform="translate(0 -0.31)"/><path class="cls-3" d="M51.86,41a1.15,1.15,0,1,0-1.15,1.15A1.16,1.16,0,0,0,51.86,41" transform="translate(0 -0.31)"/><path class="cls-3" d="M51.86,38.59a1.15,1.15,0,1,0-1.15,1.15,1.16,1.16,0,0,0,1.15-1.15" transform="translate(0 -0.31)"/><path class="cls-3" d="M51.86,38.59a1.15,1.15,0,1,0-1.15,1.15,1.16,1.16,0,0,0,1.15-1.15" transform="translate(0 -0.31)"/><path class="cls-3" d="M49.11,45.8A1.15,1.15,0,1,0,48,47a1.16,1.16,0,0,0,1.15-1.15" transform="translate(0 -0.31)"/><path class="cls-3" d="M49.11,45.8A1.15,1.15,0,1,0,48,47a1.16,1.16,0,0,0,1.15-1.15" transform="translate(0 -0.31)"/><path class="cls-3" d="M49.11,43.4A1.15,1.15,0,1,0,48,44.55a1.16,1.16,0,0,0,1.15-1.15" transform="translate(0 -0.31)"/><path class="cls-3" d="M49.11,43.4A1.15,1.15,0,1,0,48,44.55a1.16,1.16,0,0,0,1.15-1.15" transform="translate(0 -0.31)"/><path class="cls-3" d="M49.11,41A1.15,1.15,0,1,0,48,42.15,1.16,1.16,0,0,0,49.11,41" transform="translate(0 -0.31)"/><path class="cls-3" d="M49.11,41A1.15,1.15,0,1,0,48,42.15,1.16,1.16,0,0,0,49.11,41" transform="translate(0 -0.31)"/><path class="cls-3" d="M49.11,38.59A1.15,1.15,0,1,0,48,39.75a1.16,1.16,0,0,0,1.15-1.15" transform="translate(0 -0.31)"/><path class="cls-3" d="M49.11,38.59A1.15,1.15,0,1,0,48,39.75a1.16,1.16,0,0,0,1.15-1.15" transform="translate(0 -0.31)"/><path class="cls-3" d="M49.11,36.19A1.15,1.15,0,1,0,48,37.34a1.16,1.16,0,0,0,1.15-1.15" transform="translate(0 -0.31)"/><path class="cls-3" d="M49.11,36.19A1.15,1.15,0,1,0,48,37.34a1.16,1.16,0,0,0,1.15-1.15" transform="translate(0 -0.31)"/><path class="cls-3" d="M49.11,33.79A1.15,1.15,0,1,0,48,34.94a1.16,1.16,0,0,0,1.15-1.15" transform="translate(0 -0.31)"/><path class="cls-3" d="M49.11,33.79A1.15,1.15,0,1,0,48,34.94a1.16,1.16,0,0,0,1.15-1.15" transform="translate(0 -0.31)"/><path class="cls-3" d="M46.45,45.8A1.15,1.15,0,1,0,45.29,47a1.16,1.16,0,0,0,1.15-1.15" transform="translate(0 -0.31)"/><path class="cls-3" d="M46.45,45.8A1.15,1.15,0,1,0,45.29,47a1.16,1.16,0,0,0,1.15-1.15" transform="translate(0 -0.31)"/><path class="cls-3" d="M46.45,43.4a1.15,1.15,0,1,0-1.15,1.15,1.16,1.16,0,0,0,1.15-1.15" transform="translate(0 -0.31)"/><path class="cls-3" d="M46.45,43.4a1.15,1.15,0,1,0-1.15,1.15,1.16,1.16,0,0,0,1.15-1.15" transform="translate(0 -0.31)"/><path class="cls-3" d="M46.45,41a1.15,1.15,0,1,0-1.15,1.15A1.16,1.16,0,0,0,46.45,41" transform="translate(0 -0.31)"/><path class="cls-3" d="M46.45,41a1.15,1.15,0,1,0-1.15,1.15A1.16,1.16,0,0,0,46.45,41" transform="translate(0 -0.31)"/><path class="cls-3" d="M46.45,38.59a1.15,1.15,0,1,0-1.15,1.15,1.16,1.16,0,0,0,1.15-1.15" transform="translate(0 -0.31)"/><path class="cls-3" d="M46.45,38.59a1.15,1.15,0,1,0-1.15,1.15,1.16,1.16,0,0,0,1.15-1.15" transform="translate(0 -0.31)"/><path class="cls-3" d="M46.45,36.19a1.15,1.15,0,1,0-1.15,1.15,1.16,1.16,0,0,0,1.15-1.15" transform="translate(0 -0.31)"/><path class="cls-3" d="M46.45,36.19a1.15,1.15,0,1,0-1.15,1.15,1.16,1.16,0,0,0,1.15-1.15" transform="translate(0 -0.31)"/><path class="cls-3" d="M46.45,33.79a1.15,1.15,0,1,0-1.15,1.15,1.16,1.16,0,0,0,1.15-1.15" transform="translate(0 -0.31)"/><path class="cls-3" d="M46.45,33.79a1.15,1.15,0,1,0-1.15,1.15,1.16,1.16,0,0,0,1.15-1.15" transform="translate(0 -0.31)"/><path class="cls-3" d="M46.45,31.39a1.15,1.15,0,1,0-1.15,1.15,1.16,1.16,0,0,0,1.15-1.15" transform="translate(0 -0.31)"/><path class="cls-3" d="M46.45,31.39a1.15,1.15,0,1,0-1.15,1.15,1.16,1.16,0,0,0,1.15-1.15" transform="translate(0 -0.31)"/><path class="cls-3" d="M43.94,45.8A1.15,1.15,0,1,0,42.79,47a1.16,1.16,0,0,0,1.15-1.15" transform="translate(0 -0.31)"/><path class="cls-3" d="M43.94,45.8A1.15,1.15,0,1,0,42.79,47a1.16,1.16,0,0,0,1.15-1.15" transform="translate(0 -0.31)"/><path class="cls-3" d="M43.94,43.4a1.15,1.15,0,1,0-1.15,1.15,1.16,1.16,0,0,0,1.15-1.15" transform="translate(0 -0.31)"/><path class="cls-3" d="M43.94,43.4a1.15,1.15,0,1,0-1.15,1.15,1.16,1.16,0,0,0,1.15-1.15" transform="translate(0 -0.31)"/><path class="cls-3" d="M43.94,41a1.15,1.15,0,1,0-1.15,1.15A1.16,1.16,0,0,0,43.94,41" transform="translate(0 -0.31)"/><path class="cls-3" d="M43.94,41a1.15,1.15,0,1,0-1.15,1.15A1.16,1.16,0,0,0,43.94,41" transform="translate(0 -0.31)"/><path class="cls-3" d="M43.94,38.59a1.15,1.15,0,1,0-1.15,1.15,1.16,1.16,0,0,0,1.15-1.15" transform="translate(0 -0.31)"/><path class="cls-3" d="M43.94,38.59a1.15,1.15,0,1,0-1.15,1.15,1.16,1.16,0,0,0,1.15-1.15" transform="translate(0 -0.31)"/><path class="cls-3" d="M43.94,36.19a1.15,1.15,0,1,0-1.15,1.15,1.16,1.16,0,0,0,1.15-1.15" transform="translate(0 -0.31)"/><path class="cls-3" d="M43.94,36.19a1.15,1.15,0,1,0-1.15,1.15,1.16,1.16,0,0,0,1.15-1.15" transform="translate(0 -0.31)"/><path class="cls-3" d="M43.94,33.79a1.15,1.15,0,1,0-1.15,1.15,1.16,1.16,0,0,0,1.15-1.15" transform="translate(0 -0.31)"/><path class="cls-3" d="M43.94,33.79a1.15,1.15,0,1,0-1.15,1.15,1.16,1.16,0,0,0,1.15-1.15" transform="translate(0 -0.31)"/><path class="cls-3" d="M43.94,31.39a1.15,1.15,0,1,0-1.15,1.15,1.16,1.16,0,0,0,1.15-1.15" transform="translate(0 -0.31)"/><path class="cls-3" d="M43.94,31.39a1.15,1.15,0,1,0-1.15,1.15,1.16,1.16,0,0,0,1.15-1.15" transform="translate(0 -0.31)"/><path class="cls-3" d="M43.94,29a1.15,1.15,0,1,0-1.15,1.15A1.16,1.16,0,0,0,43.94,29" transform="translate(0 -0.31)"/><path class="cls-3" d="M43.94,29a1.15,1.15,0,1,0-1.15,1.15A1.16,1.16,0,0,0,43.94,29" transform="translate(0 -0.31)"/><path class="cls-3" d="M41.39,45.8A1.15,1.15,0,1,0,40.23,47a1.16,1.16,0,0,0,1.15-1.15" transform="translate(0 -0.31)"/><path class="cls-3" d="M41.39,45.8A1.15,1.15,0,1,0,40.23,47a1.16,1.16,0,0,0,1.15-1.15" transform="translate(0 -0.31)"/><path class="cls-3" d="M41.39,43.4a1.15,1.15,0,1,0-1.15,1.15,1.16,1.16,0,0,0,1.15-1.15" transform="translate(0 -0.31)"/><path class="cls-3" d="M41.39,43.4a1.15,1.15,0,1,0-1.15,1.15,1.16,1.16,0,0,0,1.15-1.15" transform="translate(0 -0.31)"/><path class="cls-3" d="M41.39,41a1.15,1.15,0,1,0-1.15,1.15A1.16,1.16,0,0,0,41.39,41" transform="translate(0 -0.31)"/><path class="cls-3" d="M41.39,41a1.15,1.15,0,1,0-1.15,1.15A1.16,1.16,0,0,0,41.39,41" transform="translate(0 -0.31)"/><path class="cls-3" d="M41.39,38.59a1.15,1.15,0,1,0-1.15,1.15,1.16,1.16,0,0,0,1.15-1.15" transform="translate(0 -0.31)"/><path class="cls-3" d="M41.39,38.59a1.15,1.15,0,1,0-1.15,1.15,1.16,1.16,0,0,0,1.15-1.15" transform="translate(0 -0.31)"/><path class="cls-3" d="M41.39,36.19a1.15,1.15,0,1,0-1.15,1.15,1.16,1.16,0,0,0,1.15-1.15" transform="translate(0 -0.31)"/><path class="cls-3" d="M41.39,36.19a1.15,1.15,0,1,0-1.15,1.15,1.16,1.16,0,0,0,1.15-1.15" transform="translate(0 -0.31)"/><path class="cls-3" d="M41.39,33.79a1.15,1.15,0,1,0-1.15,1.15,1.16,1.16,0,0,0,1.15-1.15" transform="translate(0 -0.31)"/><path class="cls-3" d="M41.39,33.79a1.15,1.15,0,1,0-1.15,1.15,1.16,1.16,0,0,0,1.15-1.15" transform="translate(0 -0.31)"/><path class="cls-3" d="M41.39,31.39a1.15,1.15,0,1,0-1.15,1.15,1.16,1.16,0,0,0,1.15-1.15" transform="translate(0 -0.31)"/><path class="cls-3" d="M41.39,31.39a1.15,1.15,0,1,0-1.15,1.15,1.16,1.16,0,0,0,1.15-1.15" transform="translate(0 -0.31)"/><path class="cls-3" d="M41.39,29a1.15,1.15,0,1,0-1.15,1.15A1.16,1.16,0,0,0,41.39,29" transform="translate(0 -0.31)"/><path class="cls-3" d="M41.39,29a1.15,1.15,0,1,0-1.15,1.15A1.16,1.16,0,0,0,41.39,29" transform="translate(0 -0.31)"/><path class="cls-3" d="M38.8,45.8A1.15,1.15,0,1,0,37.65,47,1.16,1.16,0,0,0,38.8,45.8" transform="translate(0 -0.31)"/><path class="cls-3" d="M38.8,45.8A1.15,1.15,0,1,0,37.65,47,1.16,1.16,0,0,0,38.8,45.8" transform="translate(0 -0.31)"/><path class="cls-3" d="M38.8,43.4a1.15,1.15,0,1,0-1.15,1.15A1.16,1.16,0,0,0,38.8,43.4" transform="translate(0 -0.31)"/><path class="cls-3" d="M38.8,43.4a1.15,1.15,0,1,0-1.15,1.15A1.16,1.16,0,0,0,38.8,43.4" transform="translate(0 -0.31)"/><path class="cls-3" d="M38.8,41a1.15,1.15,0,1,0-1.15,1.15A1.16,1.16,0,0,0,38.8,41" transform="translate(0 -0.31)"/><path class="cls-3" d="M38.8,41a1.15,1.15,0,1,0-1.15,1.15A1.16,1.16,0,0,0,38.8,41" transform="translate(0 -0.31)"/><path class="cls-3" d="M38.8,38.59a1.15,1.15,0,1,0-1.15,1.15,1.16,1.16,0,0,0,1.15-1.15" transform="translate(0 -0.31)"/><path class="cls-3" d="M38.8,38.59a1.15,1.15,0,1,0-1.15,1.15,1.16,1.16,0,0,0,1.15-1.15" transform="translate(0 -0.31)"/><path class="cls-3" d="M38.8,36.19a1.15,1.15,0,1,0-1.15,1.15,1.16,1.16,0,0,0,1.15-1.15" transform="translate(0 -0.31)"/><path class="cls-3" d="M38.8,36.19a1.15,1.15,0,1,0-1.15,1.15,1.16,1.16,0,0,0,1.15-1.15" transform="translate(0 -0.31)"/><path class="cls-3" d="M38.8,33.79a1.15,1.15,0,1,0-1.15,1.15,1.16,1.16,0,0,0,1.15-1.15" transform="translate(0 -0.31)"/><path class="cls-3" d="M38.8,33.79a1.15,1.15,0,1,0-1.15,1.15,1.16,1.16,0,0,0,1.15-1.15" transform="translate(0 -0.31)"/><path class="cls-3" d="M38.8,31.39a1.15,1.15,0,1,0-1.15,1.15,1.16,1.16,0,0,0,1.15-1.15" transform="translate(0 -0.31)"/><path class="cls-3" d="M38.8,31.39a1.15,1.15,0,1,0-1.15,1.15,1.16,1.16,0,0,0,1.15-1.15" transform="translate(0 -0.31)"/><path class="cls-3" d="M38.8,29a1.15,1.15,0,1,0-1.15,1.15A1.16,1.16,0,0,0,38.8,29" transform="translate(0 -0.31)"/><path class="cls-3" d="M38.8,29a1.15,1.15,0,1,0-1.15,1.15A1.16,1.16,0,0,0,38.8,29" transform="translate(0 -0.31)"/><path class="cls-3" d="M38.8,26.58a1.15,1.15,0,1,0-1.15,1.15,1.16,1.16,0,0,0,1.15-1.15" transform="translate(0 -0.31)"/><path class="cls-3" d="M38.8,26.58a1.15,1.15,0,1,0-1.15,1.15,1.16,1.16,0,0,0,1.15-1.15" transform="translate(0 -0.31)"/><path class="cls-3" d="M38.8,24.18a1.15,1.15,0,1,0-1.15,1.15,1.16,1.16,0,0,0,1.15-1.15" transform="translate(0 -0.31)"/><path class="cls-3" d="M38.8,24.18a1.15,1.15,0,1,0-1.15,1.15,1.16,1.16,0,0,0,1.15-1.15" transform="translate(0 -0.31)"/><path class="cls-3" d="M36.13,45.8A1.15,1.15,0,1,0,35,47a1.16,1.16,0,0,0,1.15-1.15" transform="translate(0 -0.31)"/><path class="cls-3" d="M36.13,45.8A1.15,1.15,0,1,0,35,47a1.16,1.16,0,0,0,1.15-1.15" transform="translate(0 -0.31)"/><path class="cls-3" d="M36.13,43.4A1.15,1.15,0,1,0,35,44.55a1.16,1.16,0,0,0,1.15-1.15" transform="translate(0 -0.31)"/><path class="cls-3" d="M36.13,43.4A1.15,1.15,0,1,0,35,44.55a1.16,1.16,0,0,0,1.15-1.15" transform="translate(0 -0.31)"/><path class="cls-3" d="M36.13,41A1.15,1.15,0,1,0,35,42.15,1.16,1.16,0,0,0,36.13,41" transform="translate(0 -0.31)"/><path class="cls-3" d="M36.13,41A1.15,1.15,0,1,0,35,42.15,1.16,1.16,0,0,0,36.13,41" transform="translate(0 -0.31)"/><path class="cls-3" d="M36.13,38.59A1.15,1.15,0,1,0,35,39.75a1.16,1.16,0,0,0,1.15-1.15" transform="translate(0 -0.31)"/><path class="cls-3" d="M36.13,38.59A1.15,1.15,0,1,0,35,39.75a1.16,1.16,0,0,0,1.15-1.15" transform="translate(0 -0.31)"/><path class="cls-3" d="M36.13,36.19A1.15,1.15,0,1,0,35,37.34a1.16,1.16,0,0,0,1.15-1.15" transform="translate(0 -0.31)"/><path class="cls-3" d="M36.13,36.19A1.15,1.15,0,1,0,35,37.34a1.16,1.16,0,0,0,1.15-1.15" transform="translate(0 -0.31)"/><path class="cls-3" d="M36.13,33.79A1.15,1.15,0,1,0,35,34.94a1.16,1.16,0,0,0,1.15-1.15" transform="translate(0 -0.31)"/><path class="cls-3" d="M36.13,33.79A1.15,1.15,0,1,0,35,34.94a1.16,1.16,0,0,0,1.15-1.15" transform="translate(0 -0.31)"/><path class="cls-3" d="M36.13,31.39A1.15,1.15,0,1,0,35,32.54a1.16,1.16,0,0,0,1.15-1.15" transform="translate(0 -0.31)"/><path class="cls-3" d="M36.13,31.39A1.15,1.15,0,1,0,35,32.54a1.16,1.16,0,0,0,1.15-1.15" transform="translate(0 -0.31)"/><path class="cls-3" d="M36.13,29A1.15,1.15,0,1,0,35,30.14,1.16,1.16,0,0,0,36.13,29" transform="translate(0 -0.31)"/><path class="cls-3" d="M36.13,29A1.15,1.15,0,1,0,35,30.14,1.16,1.16,0,0,0,36.13,29" transform="translate(0 -0.31)"/><path class="cls-3" d="M36.13,26.58A1.15,1.15,0,1,0,35,27.74a1.16,1.16,0,0,0,1.15-1.15" transform="translate(0 -0.31)"/><path class="cls-3" d="M36.13,26.58A1.15,1.15,0,1,0,35,27.74a1.16,1.16,0,0,0,1.15-1.15" transform="translate(0 -0.31)"/><path class="cls-3" d="M33.61,45.8A1.15,1.15,0,1,0,32.45,47a1.16,1.16,0,0,0,1.15-1.15" transform="translate(0 -0.31)"/><path class="cls-3" d="M33.61,45.8A1.15,1.15,0,1,0,32.45,47a1.16,1.16,0,0,0,1.15-1.15" transform="translate(0 -0.31)"/><path class="cls-3" d="M33.61,43.4a1.15,1.15,0,1,0-1.15,1.15,1.16,1.16,0,0,0,1.15-1.15" transform="translate(0 -0.31)"/><path class="cls-3" d="M33.61,43.4a1.15,1.15,0,1,0-1.15,1.15,1.16,1.16,0,0,0,1.15-1.15" transform="translate(0 -0.31)"/><path class="cls-3" d="M33.61,41a1.15,1.15,0,1,0-1.15,1.15A1.16,1.16,0,0,0,33.61,41" transform="translate(0 -0.31)"/><path class="cls-3" d="M33.61,41a1.15,1.15,0,1,0-1.15,1.15A1.16,1.16,0,0,0,33.61,41" transform="translate(0 -0.31)"/><path class="cls-3" d="M33.61,38.59a1.15,1.15,0,1,0-1.15,1.15,1.16,1.16,0,0,0,1.15-1.15" transform="translate(0 -0.31)"/><path class="cls-3" d="M33.61,38.59a1.15,1.15,0,1,0-1.15,1.15,1.16,1.16,0,0,0,1.15-1.15" transform="translate(0 -0.31)"/><path class="cls-3" d="M33.61,36.19a1.15,1.15,0,1,0-1.15,1.15,1.16,1.16,0,0,0,1.15-1.15" transform="translate(0 -0.31)"/><path class="cls-3" d="M33.61,36.19a1.15,1.15,0,1,0-1.15,1.15,1.16,1.16,0,0,0,1.15-1.15" transform="translate(0 -0.31)"/><path class="cls-3" d="M33.61,33.79a1.15,1.15,0,1,0-1.15,1.15,1.16,1.16,0,0,0,1.15-1.15" transform="translate(0 -0.31)"/><path class="cls-3" d="M33.61,33.79a1.15,1.15,0,1,0-1.15,1.15,1.16,1.16,0,0,0,1.15-1.15" transform="translate(0 -0.31)"/><path class="cls-3" d="M33.61,31.39a1.15,1.15,0,1,0-1.15,1.15,1.16,1.16,0,0,0,1.15-1.15" transform="translate(0 -0.31)"/><path class="cls-3" d="M33.61,31.39a1.15,1.15,0,1,0-1.15,1.15,1.16,1.16,0,0,0,1.15-1.15" transform="translate(0 -0.31)"/><path class="cls-3" d="M33.61,29a1.15,1.15,0,1,0-1.15,1.15A1.16,1.16,0,0,0,33.61,29" transform="translate(0 -0.31)"/><path class="cls-3" d="M33.61,29a1.15,1.15,0,1,0-1.15,1.15A1.16,1.16,0,0,0,33.61,29" transform="translate(0 -0.31)"/><path class="cls-3" d="M33.61,26.58a1.15,1.15,0,1,0-1.15,1.15,1.16,1.16,0,0,0,1.15-1.15" transform="translate(0 -0.31)"/><path class="cls-3" d="M33.61,26.58a1.15,1.15,0,1,0-1.15,1.15,1.16,1.16,0,0,0,1.15-1.15" transform="translate(0 -0.31)"/><path class="cls-3" d="M31.07,45.8A1.15,1.15,0,1,0,29.92,47a1.16,1.16,0,0,0,1.15-1.15" transform="translate(0 -0.31)"/><path class="cls-3" d="M31.07,45.8A1.15,1.15,0,1,0,29.92,47a1.16,1.16,0,0,0,1.15-1.15" transform="translate(0 -0.31)"/><path class="cls-3" d="M31.07,43.4a1.15,1.15,0,1,0-1.15,1.15,1.16,1.16,0,0,0,1.15-1.15" transform="translate(0 -0.31)"/><path class="cls-3" d="M31.07,43.4a1.15,1.15,0,1,0-1.15,1.15,1.16,1.16,0,0,0,1.15-1.15" transform="translate(0 -0.31)"/><path class="cls-3" d="M31.07,41a1.15,1.15,0,1,0-1.15,1.15A1.16,1.16,0,0,0,31.07,41" transform="translate(0 -0.31)"/><path class="cls-3" d="M31.07,41a1.15,1.15,0,1,0-1.15,1.15A1.16,1.16,0,0,0,31.07,41" transform="translate(0 -0.31)"/><path class="cls-3" d="M31.07,38.59a1.15,1.15,0,1,0-1.15,1.15,1.16,1.16,0,0,0,1.15-1.15" transform="translate(0 -0.31)"/><path class="cls-3" d="M31.07,38.59a1.15,1.15,0,1,0-1.15,1.15,1.16,1.16,0,0,0,1.15-1.15" transform="translate(0 -0.31)"/><path class="cls-3" d="M31.07,36.19a1.15,1.15,0,1,0-1.15,1.15,1.16,1.16,0,0,0,1.15-1.15" transform="translate(0 -0.31)"/><path class="cls-3" d="M31.07,36.19a1.15,1.15,0,1,0-1.15,1.15,1.16,1.16,0,0,0,1.15-1.15" transform="translate(0 -0.31)"/><path class="cls-3" d="M31.07,33.79a1.15,1.15,0,1,0-1.15,1.15,1.16,1.16,0,0,0,1.15-1.15" transform="translate(0 -0.31)"/><path class="cls-3" d="M31.07,33.79a1.15,1.15,0,1,0-1.15,1.15,1.16,1.16,0,0,0,1.15-1.15" transform="translate(0 -0.31)"/><path class="cls-3" d="M31.07,31.39a1.15,1.15,0,1,0-1.15,1.15,1.16,1.16,0,0,0,1.15-1.15" transform="translate(0 -0.31)"/><path class="cls-3" d="M31.07,31.39a1.15,1.15,0,1,0-1.15,1.15,1.16,1.16,0,0,0,1.15-1.15" transform="translate(0 -0.31)"/><path class="cls-3" d="M31.07,29a1.15,1.15,0,1,0-1.15,1.15A1.16,1.16,0,0,0,31.07,29" transform="translate(0 -0.31)"/><path class="cls-3" d="M31.07,29a1.15,1.15,0,1,0-1.15,1.15A1.16,1.16,0,0,0,31.07,29" transform="translate(0 -0.31)"/><path class="cls-3" d="M28.64,45.8A1.15,1.15,0,1,0,27.49,47a1.16,1.16,0,0,0,1.15-1.15" transform="translate(0 -0.31)"/><path class="cls-3" d="M28.64,45.8A1.15,1.15,0,1,0,27.49,47a1.16,1.16,0,0,0,1.15-1.15" transform="translate(0 -0.31)"/><path class="cls-3" d="M28.64,43.4a1.15,1.15,0,1,0-1.15,1.15,1.16,1.16,0,0,0,1.15-1.15" transform="translate(0 -0.31)"/><path class="cls-3" d="M28.64,43.4a1.15,1.15,0,1,0-1.15,1.15,1.16,1.16,0,0,0,1.15-1.15" transform="translate(0 -0.31)"/><path class="cls-3" d="M28.64,41a1.15,1.15,0,1,0-1.15,1.15A1.16,1.16,0,0,0,28.64,41" transform="translate(0 -0.31)"/><path class="cls-3" d="M28.64,41a1.15,1.15,0,1,0-1.15,1.15A1.16,1.16,0,0,0,28.64,41" transform="translate(0 -0.31)"/><path class="cls-3" d="M28.64,38.59a1.15,1.15,0,1,0-1.15,1.15,1.16,1.16,0,0,0,1.15-1.15" transform="translate(0 -0.31)"/><path class="cls-3" d="M28.64,38.59a1.15,1.15,0,1,0-1.15,1.15,1.16,1.16,0,0,0,1.15-1.15" transform="translate(0 -0.31)"/><path class="cls-3" d="M28.64,36.19a1.15,1.15,0,1,0-1.15,1.15,1.16,1.16,0,0,0,1.15-1.15" transform="translate(0 -0.31)"/><path class="cls-3" d="M28.64,36.19a1.15,1.15,0,1,0-1.15,1.15,1.16,1.16,0,0,0,1.15-1.15" transform="translate(0 -0.31)"/><path class="cls-3" d="M28.64,33.79a1.15,1.15,0,1,0-1.15,1.15,1.16,1.16,0,0,0,1.15-1.15" transform="translate(0 -0.31)"/><path class="cls-3" d="M28.64,33.79a1.15,1.15,0,1,0-1.15,1.15,1.16,1.16,0,0,0,1.15-1.15" transform="translate(0 -0.31)"/><path class="cls-3" d="M28.64,31.39a1.15,1.15,0,1,0-1.15,1.15,1.16,1.16,0,0,0,1.15-1.15" transform="translate(0 -0.31)"/><path class="cls-3" d="M28.64,31.39a1.15,1.15,0,1,0-1.15,1.15,1.16,1.16,0,0,0,1.15-1.15" transform="translate(0 -0.31)"/><path class="cls-3" d="M26.07,45.8A1.15,1.15,0,1,0,24.91,47a1.16,1.16,0,0,0,1.15-1.15" transform="translate(0 -0.31)"/><path class="cls-3" d="M26.07,45.8A1.15,1.15,0,1,0,24.91,47a1.16,1.16,0,0,0,1.15-1.15" transform="translate(0 -0.31)"/><path class="cls-3" d="M26.07,43.4a1.15,1.15,0,1,0-1.15,1.15,1.16,1.16,0,0,0,1.15-1.15" transform="translate(0 -0.31)"/><path class="cls-3" d="M26.07,43.4a1.15,1.15,0,1,0-1.15,1.15,1.16,1.16,0,0,0,1.15-1.15" transform="translate(0 -0.31)"/><path class="cls-3" d="M26.07,41a1.15,1.15,0,1,0-1.15,1.15A1.16,1.16,0,0,0,26.07,41" transform="translate(0 -0.31)"/><path class="cls-3" d="M26.07,41a1.15,1.15,0,1,0-1.15,1.15A1.16,1.16,0,0,0,26.07,41" transform="translate(0 -0.31)"/><path class="cls-3" d="M26.07,38.59a1.15,1.15,0,1,0-1.15,1.15,1.16,1.16,0,0,0,1.15-1.15" transform="translate(0 -0.31)"/><path class="cls-3" d="M26.07,38.59a1.15,1.15,0,1,0-1.15,1.15,1.16,1.16,0,0,0,1.15-1.15" transform="translate(0 -0.31)"/><path class="cls-3" d="M26.07,36.19a1.15,1.15,0,1,0-1.15,1.15,1.16,1.16,0,0,0,1.15-1.15" transform="translate(0 -0.31)"/><path class="cls-3" d="M26.07,36.19a1.15,1.15,0,1,0-1.15,1.15,1.16,1.16,0,0,0,1.15-1.15" transform="translate(0 -0.31)"/><path class="cls-3" d="M26.07,33.79a1.15,1.15,0,1,0-1.15,1.15,1.16,1.16,0,0,0,1.15-1.15" transform="translate(0 -0.31)"/><path class="cls-3" d="M26.07,33.79a1.15,1.15,0,1,0-1.15,1.15,1.16,1.16,0,0,0,1.15-1.15" transform="translate(0 -0.31)"/><path class="cls-3" d="M23.42,45.8A1.15,1.15,0,1,0,22.27,47a1.16,1.16,0,0,0,1.15-1.15" transform="translate(0 -0.31)"/><path class="cls-3" d="M23.42,45.8A1.15,1.15,0,1,0,22.27,47a1.16,1.16,0,0,0,1.15-1.15" transform="translate(0 -0.31)"/><path class="cls-3" d="M23.42,43.4a1.15,1.15,0,1,0-1.15,1.15,1.16,1.16,0,0,0,1.15-1.15" transform="translate(0 -0.31)"/><path class="cls-3" d="M23.42,43.4a1.15,1.15,0,1,0-1.15,1.15,1.16,1.16,0,0,0,1.15-1.15" transform="translate(0 -0.31)"/><path class="cls-3" d="M23.42,41a1.15,1.15,0,1,0-1.15,1.15A1.16,1.16,0,0,0,23.42,41" transform="translate(0 -0.31)"/><path class="cls-3" d="M23.42,41a1.15,1.15,0,1,0-1.15,1.15A1.16,1.16,0,0,0,23.42,41" transform="translate(0 -0.31)"/><path class="cls-3" d="M23.42,38.59a1.15,1.15,0,1,0-1.15,1.15,1.16,1.16,0,0,0,1.15-1.15" transform="translate(0 -0.31)"/><path class="cls-3" d="M23.42,38.59a1.15,1.15,0,1,0-1.15,1.15,1.16,1.16,0,0,0,1.15-1.15" transform="translate(0 -0.31)"/><path class="cls-3" d="M20.76,45.8A1.15,1.15,0,1,0,19.61,47a1.16,1.16,0,0,0,1.15-1.15" transform="translate(0 -0.31)"/><path class="cls-3" d="M20.76,45.8A1.15,1.15,0,1,0,19.61,47a1.16,1.16,0,0,0,1.15-1.15" transform="translate(0 -0.31)"/><path class="cls-3" d="M20.76,43.4a1.15,1.15,0,1,0-1.15,1.15,1.16,1.16,0,0,0,1.15-1.15" transform="translate(0 -0.31)"/><path class="cls-3" d="M20.76,43.4a1.15,1.15,0,1,0-1.15,1.15,1.16,1.16,0,0,0,1.15-1.15" transform="translate(0 -0.31)"/><path class="cls-3" d="M20.76,41a1.15,1.15,0,1,0-1.15,1.15A1.16,1.16,0,0,0,20.76,41" transform="translate(0 -0.31)"/><path class="cls-3" d="M20.76,41a1.15,1.15,0,1,0-1.15,1.15A1.16,1.16,0,0,0,20.76,41" transform="translate(0 -0.31)"/><path class="cls-3" d="M17.77,45.8A1.15,1.15,0,1,0,16.62,47a1.16,1.16,0,0,0,1.15-1.15" transform="translate(0 -0.31)"/><path class="cls-3" d="M17.77,45.8A1.15,1.15,0,1,0,16.62,47a1.16,1.16,0,0,0,1.15-1.15" transform="translate(0 -0.31)"/><path class="cls-3" d="M17.77,43.4a1.15,1.15,0,1,0-1.15,1.15,1.16,1.16,0,0,0,1.15-1.15" transform="translate(0 -0.31)"/><path class="cls-3" d="M17.77,43.4a1.15,1.15,0,1,0-1.15,1.15,1.16,1.16,0,0,0,1.15-1.15" transform="translate(0 -0.31)"/><path class="cls-3" d="M14.31,45.8A1.15,1.15,0,1,0,13.16,47a1.16,1.16,0,0,0,1.15-1.15" transform="translate(0 -0.31)"/><path class="cls-3" d="M14.31,45.8A1.15,1.15,0,1,0,13.16,47a1.16,1.16,0,0,0,1.15-1.15" transform="translate(0 -0.31)"/><path class="cls-3" d="M9.94,45.8A1.15,1.15,0,1,0,8.79,47,1.16,1.16,0,0,0,9.94,45.8" transform="translate(0 -0.31)"/><path class="cls-3" d="M9.94,45.8A1.15,1.15,0,1,0,8.79,47,1.16,1.16,0,0,0,9.94,45.8" transform="translate(0 -0.31)"/></g><path class="cls-3" d="M12.59,55.86H10.53v3.5c0,.9,0,1.61,1,1.61a2.26,2.26,0,0,0,1-.24l0,1.06a3.55,3.55,0,0,1-1.36.25c-1.66,0-1.93-.9-1.93-2.35V55.86H7.84v-1H9.36v-2h1.17v2h2.06Z" transform="translate(0 -0.31)"/><path class="cls-3" d="M14.73,51.29a.85.85,0,0,1,.85.85.85.85,0,0,1-1.7,0A.85.85,0,0,1,14.73,51.29Zm-.58,3.58h1.17v7H14.14Z" transform="translate(0 -0.31)"/><path class="cls-3" d="M23.14,60.62h0A3,3,0,0,1,20.42,62a3.68,3.68,0,0,1,.18-7.35,3.24,3.24,0,0,1,2.51,1.2h0V50.57H24.3V61.87H23.14Zm-2.48-4.85a2.6,2.6,0,1,0,2.48,2.6A2.44,2.44,0,0,0,20.66,55.77Z" transform="translate(0 -0.31)"/><path class="cls-3" d="M29.11,63.46c-.46,1.18-.93,2-2.33,2a2.53,2.53,0,0,1-1-.18l.15-1a2.27,2.27,0,0,0,.82.12c.76,0,1-.46,1.3-1.15l.48-1.31-2.9-7h1.36l2.17,5.48h0l2.08-5.48h1.27Z" transform="translate(0 -0.31)"/><path class="cls-3" d="M34,50.57h1.79v5h0a3,3,0,0,1,2.43-1.09,3.52,3.52,0,0,1,3.47,3.76A3.48,3.48,0,0,1,38.23,62a2.76,2.76,0,0,1-2.46-1.25h0v1.08H34Zm3.84,5.56A2.15,2.15,0,1,0,40,58.28,2.07,2.07,0,0,0,37.87,56.13Z" transform="translate(0 -0.31)"/><path class="cls-3" d="M47.91,60.88h0A2.58,2.58,0,0,1,45.57,62C44.24,62,43,61.31,43,59.89c0-2.33,2.72-2.5,4.51-2.5h.45V57.2c0-.88-.69-1.34-1.64-1.34a2.82,2.82,0,0,0-1.91.75l-.94-.94a4.2,4.2,0,0,1,3-1.15c3.06,0,3.06,2.21,3.06,3.23v4.12H47.91Zm-.1-2.23h-.37c-1,0-2.69.08-2.69,1.11,0,.66.67.94,1.25.94,1.23,0,1.81-.64,1.81-1.64Z" transform="translate(0 -0.31)"/><path class="cls-3" d="M50.3,54.69h2l2,5h0l1.79-5H58L54.58,63.4c-.52,1.34-1.15,2-2.73,2a5.35,5.35,0,0,1-1.37-.18l.22-1.61a2.67,2.67,0,0,0,.91.18c.88,0,1.12-.31,1.42-1.06l.34-.85Z" transform="translate(0 -0.31)"/><path class="cls-3" d="M60,58.91a1.86,1.86,0,0,0,1.93,1.7,2.36,2.36,0,0,0,1.93-1l1.29,1a3.83,3.83,0,1,1-3-6.09c2,0,3.36,1.4,3.36,3.9v.49Zm3.67-1.34a1.65,1.65,0,0,0-1.82-1.7A1.78,1.78,0,0,0,60,57.56Z" transform="translate(0 -0.31)"/><path class="cls-3" d="M70.68,56.68a1.63,1.63,0,0,0-1.4-.73c-.48,0-1,.22-1,.76,0,1.28,3.87.24,3.87,3,0,1.7-1.63,2.3-3.09,2.3a3.51,3.51,0,0,1-2.79-1.11l1.2-1.12a2.19,2.19,0,0,0,1.7.88c.52,0,1.2-.25,1.2-.82,0-1.48-3.87-.31-3.87-3,0-1.6,1.43-2.32,2.88-2.32a3.1,3.1,0,0,1,2.55,1.09Z" transform="translate(0 -0.31)"/><g class="cls-9"><path class="cls-3" d="M74.48,46.94H71.3l-.32,0H66.69l-.16,0h-.16l-.16,0h-.16l-.15,0h-.32l-.16,0-.16,0-.16,0-.16,0h-.16l-.16,0-.15,0-.17,0-.15,0-.16,0-.16,0-.16,0-.16,0-.16,0-.16,0-.16,0-.15,0-.17,0-.15,0-.16,0-.16,0-.16,0-.16,0-.16,0-.16,0-.15,0-.16,0-.16,0-.16,0-.16,0-.16,0-.16,0-.16,0-.15,0-.17,0-.15,0-.17-.05-.15,0-.16-.06-.16,0-.16,0L58.9,45,58.74,45l-.16-.07-.15-.05-.16-.07-.16-.06L58,44.68l-.16-.06-.16-.07-.15-.06-.17-.07-.15-.07L57,44.28l-.15-.08-.16-.08L56.52,44,56.36,44l-.16-.09-.16-.1-.16-.1-.16-.11-.15-.11-.16-.12-.16-.12-.16-.13-.16-.13-.15-.13-.17-.14-.15-.15-.17-.14-.15-.15L54,42.07l-.15-.15-.16-.16-.16-.15-.16-.16-.16-.17L53,41.12,52.87,41l-.17-.17-.15-.17-.16-.17-.16-.18-.16-.19-.16-.18-.15-.19-.17-.2-.15-.2-.17-.2-.15-.21L51,38.68l-.16-.21-.16-.22L50.48,38l-.16-.22-.15-.23L50,37.34l-.15-.23-.17-.24-.15-.24-.16-.23-.16-.24-.16-.23-.16-.24-.15-.23-.17-.23L48.42,35l-.16-.23-.16-.24-.16-.24-.16-.23-.16-.24-.16-.23-.16-.24-.15-.24L47,32.85l-.15-.25-.17-.24-.15-.25-.16-.25-.16-.25L46,31.35l-.16-.25-.15-.26-.16-.25-.16-.25-.16-.25-.32-.48-.16-.24-.16-.22-.15-.23-.17-.21-.15-.21L44,28.3l-.15-.19-.16-.19-.16-.17-.32-.34L43,27.26l-.16-.16L42.7,27l-.16-.14-.16-.14-.16-.13-.16-.13-.16-.13-.15-.12-.17-.12-.15-.12-.17-.11-.15-.12L41,25.6l-.16-.11-.16-.1-.16-.09-.16-.09-.16-.09L40,25a7.59,7.59,0,0,0-4.6-.91h-.16l-.16,0-.16,0-.16.05-.16,0-.15.07-.17.09-.15.09-.17.11-.15.11-.32.26-.16.14-.16.15-.15.14-.17.15-.15.14-.16.14-.16.14-.16.13-.16.13-.16.12-.16.11-.16.1-.15.1-.17.09-.15.09-.17.08-.15.07-.16.08-.16.08-.16.07-.16.08-.15.08-.16.09-.16.1-.16.1-.16.11-.16.12-.16.13-.16.13-.15.15-.17.15-.15.17-.17.17-.15.18-.16.18-.16.19-.16.2-.16.2-.16.21-.16.21-.16.22-.15.21-.16.22-.16.22-.16.22-.16.23-.15.22-.17.23-.15.23-.17.22-.15.23-.16.24-.16.22-.16.24-.16.23-.32.46-.16.23-.15.24-.17.23-.15.23-.16.23-.16.23-.16.22-.16.22-.15.23-.17.22-.15.21-.17.22-.15.21-.16.21-.16.21-.16.21-.16.21-.16.2-.15.2-.17.2-.15.2-.17.2-.15.2-.16.2-.16.19-.16.19-.16.19L20,40l-.17.18-.15.18-.16.17-.16.17-.16.17L19,41l-.16.15-.15.15-.17.15-.15.13-.17.13-.15.13L17.9,42l-.15.12-.16.11-.16.11-.32.2-.15.09-.16.09-.16.09-.16.09-.16.09-.16.09-.16.09-.16.1-.15.09-.17.09-.15.09-.17.09-.15.1-.16.09-.16.1-.16.09-.16.1-.16.09-.15.1-.16.09-.16.09-.16.09-.16.09-.16.09-.16.09-.15.08-.17.08-.15.08-.17.08-.15.07-.16.07-.16.07-.16.06-.16.07-.16,0-.32.12-.15.05-.16,0-.16,0-.16,0-.16,0-.15,0-.17,0L10,46,9.8,46l-.15,0-.17,0-.15,0H9.17l-.16,0-.16,0H8.69l-.16,0H8.38l-.17,0-.15,0H7.9l-.16,0-.16,0H7.27l-.17,0-.15,0-.17,0-.15,0H6.47l-.16,0-.16,0-.16,0-.16,0-.15,0-.17,0-.15,0-.17,0H5l-.16,0H4.72l-.16,0-.16,0H4.25l-.17,0H3.93l-.32,0-.16,0H3l-.17,0H1.25V47H76.54v-.06Z" transform="translate(0 -0.31)"/></g></g></svg>