<svg xmlns="http://www.w3.org/2000/svg" xmlns:xlink="http://www.w3.org/1999/xlink" width="80" height="92.38464" viewBox="0 0 80 92.38464"><defs><style>.cls-1{fill:none;}.cls-2{fill:#fff;}.cls-3{fill:#686868;}.cls-4{clip-path:url(#clip-path);}.cls-5{fill:#dbdbdb;}.cls-6{clip-path:url(#clip-path-2);}.cls-7{fill:#a8a8a8;}.cls-8{clip-path:url(#clip-path-3);}.cls-9{clip-path:url(#clip-path-4);}</style><clipPath id="clip-path" transform="translate(0 -0.30768)"><polygon class="cls-1" points="35.508 46.457 74.283 47 74.283 19.667 35.508 19.667 35.508 46.457"/></clipPath><clipPath id="clip-path-2" transform="translate(0 -0.30768)"><polygon class="cls-1" points="38.742 46.395 74.283 47 74.283 19.667 38.742 19.667 38.742 46.395"/></clipPath><clipPath id="clip-path-3" transform="translate(0 -0.30768)"><rect class="cls-1" x="1.32855" y="19.03708" width="32.27145" height="27.96292" transform="translate(34.92855 66.03708) rotate(-180)"/></clipPath><clipPath id="clip-path-4" transform="translate(0 -0.30768)"><rect class="cls-1" x="34" y="19.66678" width="40.28257" height="27.33322" transform="translate(108.28257 66.66678) rotate(-180)"/></clipPath></defs><title>logo</title><g id="Layer_4" data-name="Layer 4"><polygon class="cls-2" points="1.001 68.708 1.001 23.677 40 1.155 78.999 23.677 78.999 68.708 40 91.229 1.001 68.708"/><path class="cls-3" d="M40,2.61859,77.99881,24.562V68.43793L40,90.38142,2.00119,68.43794V24.562L40,2.61859M40,.30768,0,23.40675V69.5932L40,92.69231,80,69.5932V23.40675L40,.30768Z" transform="translate(0 -0.30768)"/></g><g id="Layer_2" data-name="Layer 2"><g class="cls-4"><path class="cls-5" d="M78.49035,46.77956l-.1366-.00793-.15552-.00476-.15552-.00952-.1637-.00476-.15552-.00952-.16364-.00952-.15552-.00476-.15552-.00952-.1637-.00952-.15552-.00946-.16364-.00952-.15552-.00952-.1637-.00952-.15552-.01428-.15552-.00952-.16364-.01428-.15552-.01428-.1637-.01428-.15552-.01422-.15552-.01428-.16364-.01428L75.0227,46.548l-.1637-.01428-.15552-.019-.1637-.019-.15546-.019-.15552-.019-.1637-.019-.15552-.0238-.1637-.02374-.15546-.0238-.15552-.02856-.1637-.02856-.15552-.0285L72.952,46.253l-.15546-.03333-.1637-.03326-.15552-.03333-.15552-.03333-.1637-.03326-.15546-.03809-.1637-.03333-.15552-.038-.15552-.03809-.1637-.03809-.15546-.038-.1637-.03333-.15552-.03809-.15552-.04279-.1637-.03809-.15546-.038-.1637-.04285-.15552-.04285-.1637-.038-.15552-.04761-.15546-.04279-.1637-.04761-.15552-.04761-.1637-.05231-.15552-.05237-.15546-.05231-.1637-.05231-.15552-.05237-.1637-.05707-.15552-.05713-.1637-.06183-.15546-.05713L67.714,44.8066l-.1637-.06189-.15552-.06183-.1637-.06183-.15546-.06665-.15552-.06659-.1637-.06659-.15552-.07141-.16364-.07135-.15552-.07611-.15552-.08087-.1637-.08093-.15552-.09039-.16364-.09039-.15552-.09515-.1637-.10468-.15552-.10468-.15546-.1142-.1637-.1142-.15552-.12372-.1637-.12842-.15552-.12848-.15546-.138-.1637-.13794-.15552-.14752-.1637-.1427-.15552-.15228-.16364-.15228-.15552-.15222-.15552-.157-.1637-.157-.15552-.16174-.16364-.1618-.15552-.1665-.15552-.16656-.1637-.1665-.15552-.176-.16364-.17133L61.674,40.258l-.1637-.18079-.15552-.18555-.15552-.19037-.16364-.19507-.15552-.19983-.1637-.20459-.15552-.20459-.15552-.21411-.16364-.21411-.15552-.21881-.1637-.22363-.15552-.22839-.15552-.22839-.16364-.22839-.15552-.23309-.1637-.23315-.15552-.23792-.16364-.23315-.15552-.23785-.15552-.23315-.1637-.23792-.15552-.23309-.16364-.23315L57.8601,34.991l-.15552-.23315-.1637-.23309-.15552-.23792-.16364-.23315-.15552-.23785-.1637-.23792L56.747,33.34l-.15552-.24268-.16364-.24261-.15552-.24744-.1637-.24738-.15552-.24744-.15546-.25214-.1637-.2522-.15552-.257-.1637-.25214-.15552-.2522-.15546-.25214-.1637-.2522-.15552-.24738-.1637-.24268-.15552-.24268-.1637-.23309-.15546-.22839-.15552-.22363-.1637-.21411-.15552-.20935-.1637-.19983-.15546-.19031-.15552-.18555-.1637-.17609-.15552-.17126-.1637-.16174-.15546-.157-.1637-.15222-.15552-.14276-.15552-.14276-.1637-.13794-.15546-.13324-.1637-.12848-.15552-.12848-.15552-.12366-.1637-.119-.15546-.119-.1637-.1142-.15552-.1142-.15552-.10468-.1637-.10468-.15546-.09991-.1637-.09515-.15552-.09039-.1637-.08563-.15552-.07611a7.54849,7.54849,0,0,0-4.60779-.91827l-.15546.0047-.1637.019-.15552.02856-.1637.04761-.15552.05707-.15546.07135-.1637.08087-.15552.09521-.1637.10468-.15552.1189-.16364.12372-.15552.13324-.15552.1427-.1637.14276-.15552.14276-.16364.14746-.15552.14752-.15552.138-.1637.13794L41.655,26.146l-.16364.12372-.15552.119-.1637.11414-.15552.1-.15546.09985-.1637.09045-.15552.08563-.1637.08087-.15552.07611-.15546.07617-.1637.07611-.15552.07611-.1637.08087-.15546.08093-.15552.09039-.1637.09515-.15552.09991-.1637.1142-.15546.1189-.1637.12372-.15552.138-.15552.14746-.1637.15228-.15546.16174-.1637.17133-.15552.18079-.15552.18555-.1637.19031-.15546.19983-.1637.19983-.15552.20935-.1637.20935-.15552.21411-.15546.21887-.1637.21411-.15552.22363-.1637.21887L35.615,31.532l-.15546.22363-.1637.22357-.15552.22839-.1637.22839-.15552.22839-.15546.23309-.1637.22839-.15552.23315-.1637.23315-.15552.23309-.1637.22839-.15546.23315-.15552.23315-.1637.23309-.15552.22839-.1637.22839-.15546.22839-.15552.22363-.1637.22357-.15552.22363-.1637.21887-.15546.21887-.1637.21411-.15552.21411-.15552.20935-.1637.20935-.15546.20935-.1637.20459-.15552.20459-.15546.20459-.16376.19983-.15546.19983-.1637.19983-.15552.19983-.1637.19507-.15546.19507-.15552.19031-.1637.19037-.15552.18555-.1637.18079-.15546.18079-.15552.17133-.1637.17126-.15552.1665-.1637.157-.15546.157-.15552.14752-.1637.14276-.15552.13318-.1637.13324-.15546.12372-.1637.119-.15552.1189-.15552.10944-.1637.10468-.15546.09991-.1637.09991-.15552.09515-.15552.09045-.1637.09039-.15546.09039-.1637.09039-.15552.09039-.1637.09039-.15552.09039-.15546.09039-.1637.09045-.15552.09039-.1637.09515-.15546.09515-.15552.09515-.1637.09515-.15552.09515-.1637.09515-.15546.09515-.15552.09515-.1637.09515-.15552.09045-.16364.09039-.15552.09039-.1637.09039-.15552.08563-.15552.08087-.16364.08087-.15552.08093-.1637.07611-.15552.07135-.15552.07141-.16364.06659-.15552.06659-.1637.06189-.15552.05707-.1637.05713-.15546.05707-.15552.05237-.1637.04755-.15552.04761-.1637.04279-.15546.03809-.15552.038-.1637.03809L19.41,45.958l-.1637.0285-.15546.02856-.1637.02856-.15552.0238-.15552.019-.1637.02374-.15546.019-.1637.01428-.15552.019-.15552.01428-.1637.019-.15546.01428-.1637.01428-.15552.01428-.15552.019-.1637.01428-.15546.01428-.1637.019-.15552.01428-.1637.019-.15552.019-.15546.019-.1637.019-.15552.019-.1637.019-.15552.019-.15546.019-.1637.019-.15552.019-.1637.019-.15552.01428-.1637.019-.15546.01428-.15552.019-.1637.01422-.15546.01428-.16376.01428-.15546.01428-.15552.01428-.1637.00952-.15546.01428-.16376.00952-.15546.01422-.15552.00952-.1637.01428-.15546.00952-.1637.00952-.15552.00952-.1637.00952-.15552.00952-.15546.00952-.1637.00946-.15552.00952-.1637.00952-.15552.00476-.15546.00952-.1637.00476-.15552.00952-.1637.00476-.15552.00476-.1637.00476-.15546.00476-.15552.00476-.1637.00476-.15552.00476h-.1637l-.15546.00476-.15552.00476h-.1637l-.15552.00476-.16364.00476H7.96825l-.15552.0047H7.649l-.15552.00482-.16364.0047H7.17437l-.1637.00476H6.85515l-.15552.00476-.16364.00476H6.38048l-.1637.00476H6.06127l-.15552.00476H5.5866l-.1637.00476H5.26739l-.16364.00476h-.311V47H78.49035Z" transform="translate(0 -0.30768)"/></g><g class="cls-6"><path class="cls-7" d="M78.49035,46.95241H77.426l-.15552-.00476H77.115l-.1637-.00476-.15552-.00476-.1637-.00476-.15552-.00952-.1637-.00476-.15546-.0047-.15552-.00952-.1637-.00952-.15552-.00952-.1637-.00952-.15546-.00952-.15552-.00952-.1637-.00952-.15552-.00952-.1637-.00476-.15546-.00952-.1637-.00952-.15552-.00952-.15552-.00946-.1637-.00476-.15546-.00952-.1637-.00952-.15552-.00476-.15552-.00952-.1637-.00476-.15546-.00952-.1637-.00952-.15552-.00476-.15552-.00952-.1637-.00952-.15546-.00946-.1637-.00952-.15552-.00952-.1637-.00952-.15552-.01428-.15546-.00952-.1637-.01428-.15552-.01428-.1637-.01428-.15552-.01422-.15546-.01428-.1637-.01428-.15552-.01428-.1637-.01428-.15552-.019-.16364-.019-.15552-.019-.15552-.019-.1637-.019-.15552-.0238-.16364-.02374-.15552-.0238-.15552-.02856-.1637-.02856-.15552-.0285-.16364-.02856-.15552-.03333-.1637-.03326-.15552-.03333-.15552-.03333-.16364-.03326-.15552-.03809-.1637-.03333-.15552-.038-.15546-.03809-.1637-.03809-.15552-.038-.1637-.03333-.15552-.03809-.15546-.04279-.1637-.03809-.15552-.038-.1637-.04285-.15552-.04285-.16364-.038-.15552-.04761-.15552-.04279-.1637-.04761-.15546-.04761-.1637-.05231-.15552-.05237-.15552-.05231-.1637-.05231-.15546-.05237-.1637-.05707-.15552-.05713-.1637-.06183-.15546-.05713-.15552-.06183-.1637-.06189-.15552-.06183-.1637-.06183-.15546-.06665-.15552-.06659-.1637-.06659-.15552-.07141-.1637-.07135-.15546-.07611-.15552-.08087-.1637-.08093-.15552-.09039-.1637-.09039-.15546-.09515-.1637-.10468-.15552-.10468-.15552-.1142-.1637-.1142-.15546-.12372-.1637-.12842-.15552-.12848-.15552-.138-.1637-.13794-.15546-.14752-.1637-.1427-.15552-.15228-.1637-.15228-.15552-.15222-.15546-.157-.1637-.157-.15552-.16174-.1637-.1618-.15552-.1665-.15546-.16656-.1637-.1665-.15552-.176-.1637-.17133-.15552-.18079-.1637-.18079-.15546-.18555-.15552-.19037-.1637-.19507-.15552-.19983-.1637-.20459-.15546-.20459-.15552-.21411-.1637-.21411-.15552-.21881-.1637-.22363-.15546-.22839-.15552-.22839-.1637-.22839-.15552-.23309-.1637-.23315-.15546-.23792-.1637-.23315-.15552-.23785-.15552-.23315-.1637-.23792-.15546-.23309-.1637-.23315-.15552-.23792-.15552-.23315-.1637-.23309-.15546-.23792-.1637-.23315-.15552-.23785-.1637-.23792L52.00536,33.34l-.15546-.24268-.1637-.24261-.15552-.24744-.1637-.24738-.15552-.24744-.15546-.25214-.1637-.2522-.15552-.257-.1637-.25214-.15552-.2522-.15546-.25214-.1637-.2522-.15552-.24738-.1637-.24268-.15546-.24268-.1637-.23309-.15552-.22839-.15552-.22363-.1637-.21411-.15546-.20935-.1637-.19983-.15552-.19031-.15552-.18555-.16364-.17609-.15552-.17126-.1637-.16174-.15552-.157-.1637-.15222-.15546-.14276-.15552-.14276-.1637-.13794-.15552-.13324-.16364-.12848-.15552-.12848-.15552-.12366-.1637-.119-.15552-.119-.16364-.1142-.15552-.1142-.15552-.10468-.1637-.10468-.15552-.09991-.16364-.09515L45.016,25.2087l-.1637-.08563-.15552-.07611a7.54849,7.54849,0,0,0-4.60779-.91827l-.15552.0047-.1637.019-.15546.02856-.1637.04761-.15552.05707-.15552.07135-.1637.08087-.15546.09521-.1637.10468-.15552.1189-.1637.12372-.15552.13324-.15546.1427-.1637.14276-.15552.14276-.1637.14746-.15552.14752-.15546.138-.1637.13794-.15552.13324-.1637.12372-.15552.119-.1637.11414-.15546.1-.15552.09985-.1637.09045-.15552.08563-.1637.08087-.15546.07611-.15552.07617-.1637.07611-.15552.07611-.1637.08087-.15546.08093-.15552.09039-.1637.09515-.15552.09991-.1637.1142-.15546.1189-.1637.12372-.15552.138-.15552.14746-.16364.15228-.15552.16174-.1637.17133-.15552.18079-.15546.18555-.1637.19031-.15552.19983-.1637.19983-.15552.20935-.16364.20935-.15552.21411-.15552.21887-.1637.21411-.15552.22363-.16364.21887-.15552.22839-.15552.22363-.1637.22357-.15552.22839L30.235,32.436l-.15552.22839-.15552.23309-.1637.22839-.15552.23315-.16364.23315-.15552.23309-.1637.22839-.15552.23315L28.8109,34.52l-.16364.23309-.15552.22839-.1637.22839-.15552.22839-.15552.22363-.16364.22357-.15552.22363-.1637.21887-.15552.21887-.16364.21411-.15552.21411-.15552.20935-.1637.20935-.15552.20935-.16364.20459-.15552.20459-.15552.20459-.1637.19983-.15552.19983-.16364.19983-.15552.19983-.1637.19507-.15552.19507-.15552.19031-.16364.19037-.15552.18555-.1637.18079-.15552.18079-.15552.17133-.16364.17126-.15552.1665-.1637.157-.15552.157-.15552.14752-.16364.14276-.15552.13318-.1637.13324-.15552.12372-.1637.119-.15546.1189-.15552.10944-.1637.10468-.15552.09991-.1637.09991-.15546.09515-.15552.09045-.1637.09039-.15552.09039-.1637.09039-.15546.09039-.1637.09039-.15552.09039-.15552.09039-.1637.09045-.15546.09039-.1637.09515-.15552.09515-.15552.09515-.1637.09515-.15546.09515-.1637.09515-.15552.09515-.15552.09515-.1637.09515-.15546.09045-.1637.09039-.15552.09039-.1637.09039-.15552.08563-.15546.08087-.1637.08087-.15552.08093-.1637.07611-.15552.07135-.15546.07141-.1637.06659-.15552.06659-.1637.06189-.15552.05707-.16364.05713-.15552.05707-.15552.05237-.1637.04755-.15552.04761-.16364.04279-.15552.03809-.15552.038-.1637.03809-.15546.03333-.1637.0285-.15552.02856-.1637.02856-.15552.0238-.15546.019-.1637.02374-.15552.019-.1637.01428-.15552.019-.15546.01428-.1637.019-.15552.01428-.1637.01428-.15552.01428-.15546.019-.1637.01428-.15552.01428-.1637.019-.15552.01428-.16364.019-.15552.019-.15552.019-.1637.019-.15552.019-.16364.019-.15552.019-.15552.019-.1637.019-.15552.019-.16364.019-.15552.01428-.1637.019-.15552.01428-.15552.019-.16364.01422-.15552.01428-.1637.01428-.15552.01428-.15552.01428-.16364.00952-.15552.01428-.1637.00952-.15552.01422-.15546.00952-.1637.01428-.15552.00952-.1637.00952-.15552.00952-.16364.00952-.15552.00952-.15552.00952-.1637.00946-.15546.00952-.1637.00952-.15552.00476-.15552.00952-.1637.00476-.15546.00952-.1637.00476L5.1336,46.862l-.1637.00476-.15552.00476-.15546.00476-.1637.00476-.15552.00476H4.176l-.15552.00476-.15546.00476h-.1637l-.15552.00476-.1637.00476H3.22661l-.15546.0047h-.1637l-.15552.00482-.1637.0047H2.43273l-.1637.00476H2.11358l-.15552.00476-.1637.00476H1.63885l-.1637.00476H1.31969l-.15552.00476H1.12975V47h77.3606Z" transform="translate(0 -0.30768)"/></g><g class="cls-8"><path class="cls-3" d="M66.90318,45.79909A1.15286,1.15286,0,1,0,65.75032,46.952a1.15625,1.15625,0,0,0,1.15286-1.15287" transform="translate(0 -0.30768)"/><path class="cls-3" d="M66.90318,45.79909A1.15286,1.15286,0,1,0,65.75032,46.952a1.15625,1.15625,0,0,0,1.15286-1.15287" transform="translate(0 -0.30768)"/><path class="cls-3" d="M61.19031,45.79909A1.15286,1.15286,0,1,0,60.03745,46.952a1.15625,1.15625,0,0,0,1.15286-1.15287" transform="translate(0 -0.30768)"/><path class="cls-3" d="M61.19031,45.79909A1.15286,1.15286,0,1,0,60.03745,46.952a1.15625,1.15625,0,0,0,1.15286-1.15287" transform="translate(0 -0.30768)"/><path class="cls-3" d="M57.91355,45.79909A1.15286,1.15286,0,1,0,56.76069,46.952a1.15623,1.15623,0,0,0,1.15286-1.15287" transform="translate(0 -0.30768)"/><path class="cls-3" d="M57.91355,45.79909A1.15286,1.15286,0,1,0,56.76069,46.952a1.15623,1.15623,0,0,0,1.15286-1.15287" transform="translate(0 -0.30768)"/><path class="cls-3" d="M57.91355,43.39728a1.15286,1.15286,0,1,0-1.15286,1.15287,1.15624,1.15624,0,0,0,1.15286-1.15287" transform="translate(0 -0.30768)"/><path class="cls-3" d="M57.91355,43.39728a1.15286,1.15286,0,1,0-1.15286,1.15287,1.15624,1.15624,0,0,0,1.15286-1.15287" transform="translate(0 -0.30768)"/><path class="cls-3" d="M54.551,45.79909A1.15287,1.15287,0,1,0,53.39818,46.952,1.15625,1.15625,0,0,0,54.551,45.79909" transform="translate(0 -0.30768)"/><path class="cls-3" d="M54.551,45.79909A1.15287,1.15287,0,1,0,53.39818,46.952,1.15625,1.15625,0,0,0,54.551,45.79909" transform="translate(0 -0.30768)"/><path class="cls-3" d="M54.551,43.39728a1.15287,1.15287,0,1,0-1.15286,1.15287A1.15626,1.15626,0,0,0,54.551,43.39728" transform="translate(0 -0.30768)"/><path class="cls-3" d="M54.551,43.39728a1.15287,1.15287,0,1,0-1.15286,1.15287A1.15626,1.15626,0,0,0,54.551,43.39728" transform="translate(0 -0.30768)"/><path class="cls-3" d="M54.551,40.99548a1.15287,1.15287,0,1,0-1.15286,1.15286A1.15626,1.15626,0,0,0,54.551,40.99548" transform="translate(0 -0.30768)"/><path class="cls-3" d="M54.551,40.99548a1.15287,1.15287,0,1,0-1.15286,1.15286A1.15626,1.15626,0,0,0,54.551,40.99548" transform="translate(0 -0.30768)"/><path class="cls-3" d="M51.72032,45.79909A1.15286,1.15286,0,1,0,50.56746,46.952a1.15623,1.15623,0,0,0,1.15286-1.15287" transform="translate(0 -0.30768)"/><path class="cls-3" d="M51.72032,45.79909A1.15286,1.15286,0,1,0,50.56746,46.952a1.15623,1.15623,0,0,0,1.15286-1.15287" transform="translate(0 -0.30768)"/><path class="cls-3" d="M51.72032,43.39728a1.15286,1.15286,0,1,0-1.15286,1.15287,1.15624,1.15624,0,0,0,1.15286-1.15287" transform="translate(0 -0.30768)"/><path class="cls-3" d="M51.72032,43.39728a1.15286,1.15286,0,1,0-1.15286,1.15287,1.15624,1.15624,0,0,0,1.15286-1.15287" transform="translate(0 -0.30768)"/><path class="cls-3" d="M51.72032,40.99548a1.15286,1.15286,0,1,0-1.15286,1.15286,1.15625,1.15625,0,0,0,1.15286-1.15286" transform="translate(0 -0.30768)"/><path class="cls-3" d="M51.72032,40.99548a1.15286,1.15286,0,1,0-1.15286,1.15286,1.15625,1.15625,0,0,0,1.15286-1.15286" transform="translate(0 -0.30768)"/><path class="cls-3" d="M51.72032,38.59368a1.15286,1.15286,0,1,0-1.15286,1.15286,1.15625,1.15625,0,0,0,1.15286-1.15286" transform="translate(0 -0.30768)"/><path class="cls-3" d="M51.72032,38.59368a1.15286,1.15286,0,1,0-1.15286,1.15286,1.15625,1.15625,0,0,0,1.15286-1.15286" transform="translate(0 -0.30768)"/><path class="cls-3" d="M48.96683,45.79909A1.15286,1.15286,0,1,0,47.814,46.952a1.15625,1.15625,0,0,0,1.15286-1.15287" transform="translate(0 -0.30768)"/><path class="cls-3" d="M48.96683,45.79909A1.15286,1.15286,0,1,0,47.814,46.952a1.15625,1.15625,0,0,0,1.15286-1.15287" transform="translate(0 -0.30768)"/><path class="cls-3" d="M48.96683,43.39728A1.15286,1.15286,0,1,0,47.814,44.55016a1.15626,1.15626,0,0,0,1.15286-1.15287" transform="translate(0 -0.30768)"/><path class="cls-3" d="M48.96683,43.39728A1.15286,1.15286,0,1,0,47.814,44.55016a1.15626,1.15626,0,0,0,1.15286-1.15287" transform="translate(0 -0.30768)"/><path class="cls-3" d="M48.96683,40.99548A1.15286,1.15286,0,1,0,47.814,42.14835a1.15626,1.15626,0,0,0,1.15286-1.15286" transform="translate(0 -0.30768)"/><path class="cls-3" d="M48.96683,40.99548A1.15286,1.15286,0,1,0,47.814,42.14835a1.15626,1.15626,0,0,0,1.15286-1.15286" transform="translate(0 -0.30768)"/><path class="cls-3" d="M48.96683,38.59368A1.15286,1.15286,0,1,0,47.814,39.74654a1.15626,1.15626,0,0,0,1.15286-1.15286" transform="translate(0 -0.30768)"/><path class="cls-3" d="M48.96683,38.59368A1.15286,1.15286,0,1,0,47.814,39.74654a1.15626,1.15626,0,0,0,1.15286-1.15286" transform="translate(0 -0.30768)"/><path class="cls-3" d="M48.96683,36.19187A1.15286,1.15286,0,1,0,47.814,37.34473a1.15625,1.15625,0,0,0,1.15286-1.15286" transform="translate(0 -0.30768)"/><path class="cls-3" d="M48.96683,36.19187A1.15286,1.15286,0,1,0,47.814,37.34473a1.15625,1.15625,0,0,0,1.15286-1.15286" transform="translate(0 -0.30768)"/><path class="cls-3" d="M48.96683,33.79006A1.15286,1.15286,0,1,0,47.814,34.94293a1.15625,1.15625,0,0,0,1.15286-1.15287" transform="translate(0 -0.30768)"/><path class="cls-3" d="M48.96683,33.79006A1.15286,1.15286,0,1,0,47.814,34.94293a1.15625,1.15625,0,0,0,1.15286-1.15287" transform="translate(0 -0.30768)"/><path class="cls-3" d="M46.30768,45.79909A1.15286,1.15286,0,1,0,45.15482,46.952a1.15625,1.15625,0,0,0,1.15286-1.15287" transform="translate(0 -0.30768)"/><path class="cls-3" d="M46.30768,45.79909A1.15286,1.15286,0,1,0,45.15482,46.952a1.15625,1.15625,0,0,0,1.15286-1.15287" transform="translate(0 -0.30768)"/><path class="cls-3" d="M46.30768,43.39728a1.15286,1.15286,0,1,0-1.15286,1.15287,1.15626,1.15626,0,0,0,1.15286-1.15287" transform="translate(0 -0.30768)"/><path class="cls-3" d="M46.30768,43.39728a1.15286,1.15286,0,1,0-1.15286,1.15287,1.15626,1.15626,0,0,0,1.15286-1.15287" transform="translate(0 -0.30768)"/><path class="cls-3" d="M46.30768,40.99548a1.15286,1.15286,0,1,0-1.15286,1.15286,1.15626,1.15626,0,0,0,1.15286-1.15286" transform="translate(0 -0.30768)"/><path class="cls-3" d="M46.30768,40.99548a1.15286,1.15286,0,1,0-1.15286,1.15286,1.15626,1.15626,0,0,0,1.15286-1.15286" transform="translate(0 -0.30768)"/><path class="cls-3" d="M46.30768,38.59368a1.15286,1.15286,0,1,0-1.15286,1.15286,1.15626,1.15626,0,0,0,1.15286-1.15286" transform="translate(0 -0.30768)"/><path class="cls-3" d="M46.30768,38.59368a1.15286,1.15286,0,1,0-1.15286,1.15286,1.15626,1.15626,0,0,0,1.15286-1.15286" transform="translate(0 -0.30768)"/><path class="cls-3" d="M46.30768,36.19187a1.15286,1.15286,0,1,0-1.15286,1.15286,1.15625,1.15625,0,0,0,1.15286-1.15286" transform="translate(0 -0.30768)"/><path class="cls-3" d="M46.30768,36.19187a1.15286,1.15286,0,1,0-1.15286,1.15286,1.15625,1.15625,0,0,0,1.15286-1.15286" transform="translate(0 -0.30768)"/><path class="cls-3" d="M46.30768,33.79006a1.15286,1.15286,0,1,0-1.15286,1.15287,1.15625,1.15625,0,0,0,1.15286-1.15287" transform="translate(0 -0.30768)"/><path class="cls-3" d="M46.30768,33.79006a1.15286,1.15286,0,1,0-1.15286,1.15287,1.15625,1.15625,0,0,0,1.15286-1.15287" transform="translate(0 -0.30768)"/><path class="cls-3" d="M46.30768,31.38825a1.15286,1.15286,0,1,0-1.15286,1.15287,1.15626,1.15626,0,0,0,1.15286-1.15287" transform="translate(0 -0.30768)"/><path class="cls-3" d="M46.30768,31.38825a1.15286,1.15286,0,1,0-1.15286,1.15287,1.15626,1.15626,0,0,0,1.15286-1.15287" transform="translate(0 -0.30768)"/><path class="cls-3" d="M43.803,45.79909A1.15287,1.15287,0,1,0,42.6501,46.952,1.15625,1.15625,0,0,0,43.803,45.79909" transform="translate(0 -0.30768)"/><path class="cls-3" d="M43.803,45.79909A1.15287,1.15287,0,1,0,42.6501,46.952,1.15625,1.15625,0,0,0,43.803,45.79909" transform="translate(0 -0.30768)"/><path class="cls-3" d="M43.803,43.39728a1.15287,1.15287,0,1,0-1.15286,1.15287A1.15626,1.15626,0,0,0,43.803,43.39728" transform="translate(0 -0.30768)"/><path class="cls-3" d="M43.803,43.39728a1.15287,1.15287,0,1,0-1.15286,1.15287A1.15626,1.15626,0,0,0,43.803,43.39728" transform="translate(0 -0.30768)"/><path class="cls-3" d="M43.803,40.99548a1.15287,1.15287,0,1,0-1.15286,1.15286A1.15626,1.15626,0,0,0,43.803,40.99548" transform="translate(0 -0.30768)"/><path class="cls-3" d="M43.803,40.99548a1.15287,1.15287,0,1,0-1.15286,1.15286A1.15626,1.15626,0,0,0,43.803,40.99548" transform="translate(0 -0.30768)"/><path class="cls-3" d="M43.803,38.59368a1.15287,1.15287,0,1,0-1.15286,1.15286A1.15626,1.15626,0,0,0,43.803,38.59368" transform="translate(0 -0.30768)"/><path class="cls-3" d="M43.803,38.59368a1.15287,1.15287,0,1,0-1.15286,1.15286A1.15626,1.15626,0,0,0,43.803,38.59368" transform="translate(0 -0.30768)"/><path class="cls-3" d="M43.803,36.19187a1.15287,1.15287,0,1,0-1.15286,1.15286A1.15625,1.15625,0,0,0,43.803,36.19187" transform="translate(0 -0.30768)"/><path class="cls-3" d="M43.803,36.19187a1.15287,1.15287,0,1,0-1.15286,1.15286A1.15625,1.15625,0,0,0,43.803,36.19187" transform="translate(0 -0.30768)"/><path class="cls-3" d="M43.803,33.79006a1.15287,1.15287,0,1,0-1.15286,1.15287A1.15625,1.15625,0,0,0,43.803,33.79006" transform="translate(0 -0.30768)"/><path class="cls-3" d="M43.803,33.79006a1.15287,1.15287,0,1,0-1.15286,1.15287A1.15625,1.15625,0,0,0,43.803,33.79006" transform="translate(0 -0.30768)"/><path class="cls-3" d="M43.803,31.38825a1.15287,1.15287,0,1,0-1.15286,1.15287A1.15626,1.15626,0,0,0,43.803,31.38825" transform="translate(0 -0.30768)"/><path class="cls-3" d="M43.803,31.38825a1.15287,1.15287,0,1,0-1.15286,1.15287A1.15626,1.15626,0,0,0,43.803,31.38825" transform="translate(0 -0.30768)"/><path class="cls-3" d="M43.803,28.98645a1.15287,1.15287,0,1,0-1.15286,1.15286A1.15626,1.15626,0,0,0,43.803,28.98645" transform="translate(0 -0.30768)"/><path class="cls-3" d="M43.803,28.98645a1.15287,1.15287,0,1,0-1.15286,1.15286A1.15626,1.15626,0,0,0,43.803,28.98645" transform="translate(0 -0.30768)"/><path class="cls-3" d="M41.24674,45.79909A1.15286,1.15286,0,1,0,40.09388,46.952a1.15625,1.15625,0,0,0,1.15286-1.15287" transform="translate(0 -0.30768)"/><path class="cls-3" d="M41.24674,45.79909A1.15286,1.15286,0,1,0,40.09388,46.952a1.15625,1.15625,0,0,0,1.15286-1.15287" transform="translate(0 -0.30768)"/><path class="cls-3" d="M41.24674,43.39728a1.15286,1.15286,0,1,0-1.15286,1.15287,1.15626,1.15626,0,0,0,1.15286-1.15287" transform="translate(0 -0.30768)"/><path class="cls-3" d="M41.24674,43.39728a1.15286,1.15286,0,1,0-1.15286,1.15287,1.15626,1.15626,0,0,0,1.15286-1.15287" transform="translate(0 -0.30768)"/><path class="cls-3" d="M41.24674,40.99548a1.15286,1.15286,0,1,0-1.15286,1.15286,1.15626,1.15626,0,0,0,1.15286-1.15286" transform="translate(0 -0.30768)"/><path class="cls-3" d="M41.24674,40.99548a1.15286,1.15286,0,1,0-1.15286,1.15286,1.15626,1.15626,0,0,0,1.15286-1.15286" transform="translate(0 -0.30768)"/><path class="cls-3" d="M41.24674,38.59368a1.15286,1.15286,0,1,0-1.15286,1.15286,1.15626,1.15626,0,0,0,1.15286-1.15286" transform="translate(0 -0.30768)"/><path class="cls-3" d="M41.24674,38.59368a1.15286,1.15286,0,1,0-1.15286,1.15286,1.15626,1.15626,0,0,0,1.15286-1.15286" transform="translate(0 -0.30768)"/><path class="cls-3" d="M41.24674,36.19187a1.15286,1.15286,0,1,0-1.15286,1.15286,1.15625,1.15625,0,0,0,1.15286-1.15286" transform="translate(0 -0.30768)"/><path class="cls-3" d="M41.24674,36.19187a1.15286,1.15286,0,1,0-1.15286,1.15286,1.15625,1.15625,0,0,0,1.15286-1.15286" transform="translate(0 -0.30768)"/><path class="cls-3" d="M41.24674,33.79006a1.15286,1.15286,0,1,0-1.15286,1.15287,1.15625,1.15625,0,0,0,1.15286-1.15287" transform="translate(0 -0.30768)"/><path class="cls-3" d="M41.24674,33.79006a1.15286,1.15286,0,1,0-1.15286,1.15287,1.15625,1.15625,0,0,0,1.15286-1.15287" transform="translate(0 -0.30768)"/><path class="cls-3" d="M41.24674,31.38825a1.15286,1.15286,0,1,0-1.15286,1.15287,1.15626,1.15626,0,0,0,1.15286-1.15287" transform="translate(0 -0.30768)"/><path class="cls-3" d="M41.24674,31.38825a1.15286,1.15286,0,1,0-1.15286,1.15287,1.15626,1.15626,0,0,0,1.15286-1.15287" transform="translate(0 -0.30768)"/><path class="cls-3" d="M41.24674,28.98645a1.15286,1.15286,0,1,0-1.15286,1.15286,1.15626,1.15626,0,0,0,1.15286-1.15286" transform="translate(0 -0.30768)"/><path class="cls-3" d="M41.24674,28.98645a1.15286,1.15286,0,1,0-1.15286,1.15286,1.15626,1.15626,0,0,0,1.15286-1.15286" transform="translate(0 -0.30768)"/><path class="cls-3" d="M38.66479,45.79909A1.15286,1.15286,0,1,0,37.51193,46.952a1.15623,1.15623,0,0,0,1.15286-1.15287" transform="translate(0 -0.30768)"/><path class="cls-3" d="M38.66479,45.79909A1.15286,1.15286,0,1,0,37.51193,46.952a1.15623,1.15623,0,0,0,1.15286-1.15287" transform="translate(0 -0.30768)"/><path class="cls-3" d="M38.66479,43.39728a1.15286,1.15286,0,1,0-1.15286,1.15287,1.15624,1.15624,0,0,0,1.15286-1.15287" transform="translate(0 -0.30768)"/><path class="cls-3" d="M38.66479,43.39728a1.15286,1.15286,0,1,0-1.15286,1.15287,1.15624,1.15624,0,0,0,1.15286-1.15287" transform="translate(0 -0.30768)"/><path class="cls-3" d="M38.66479,40.99548a1.15286,1.15286,0,1,0-1.15286,1.15286,1.15625,1.15625,0,0,0,1.15286-1.15286" transform="translate(0 -0.30768)"/><path class="cls-3" d="M38.66479,40.99548a1.15286,1.15286,0,1,0-1.15286,1.15286,1.15625,1.15625,0,0,0,1.15286-1.15286" transform="translate(0 -0.30768)"/><path class="cls-3" d="M38.66479,38.59368a1.15286,1.15286,0,1,0-1.15286,1.15286,1.15625,1.15625,0,0,0,1.15286-1.15286" transform="translate(0 -0.30768)"/><path class="cls-3" d="M38.66479,38.59368a1.15286,1.15286,0,1,0-1.15286,1.15286,1.15625,1.15625,0,0,0,1.15286-1.15286" transform="translate(0 -0.30768)"/><path class="cls-3" d="M38.66479,36.19187a1.15286,1.15286,0,1,0-1.15286,1.15286,1.15623,1.15623,0,0,0,1.15286-1.15286" transform="translate(0 -0.30768)"/><path class="cls-3" d="M38.66479,36.19187a1.15286,1.15286,0,1,0-1.15286,1.15286,1.15623,1.15623,0,0,0,1.15286-1.15286" transform="translate(0 -0.30768)"/><path class="cls-3" d="M38.66479,33.79006a1.15286,1.15286,0,1,0-1.15286,1.15287,1.15623,1.15623,0,0,0,1.15286-1.15287" transform="translate(0 -0.30768)"/><path class="cls-3" d="M38.66479,33.79006a1.15286,1.15286,0,1,0-1.15286,1.15287,1.15623,1.15623,0,0,0,1.15286-1.15287" transform="translate(0 -0.30768)"/><path class="cls-3" d="M38.66479,31.38825a1.15286,1.15286,0,1,0-1.15286,1.15287,1.15624,1.15624,0,0,0,1.15286-1.15287" transform="translate(0 -0.30768)"/><path class="cls-3" d="M38.66479,31.38825a1.15286,1.15286,0,1,0-1.15286,1.15287,1.15624,1.15624,0,0,0,1.15286-1.15287" transform="translate(0 -0.30768)"/><path class="cls-3" d="M38.66479,28.98645a1.15286,1.15286,0,1,0-1.15286,1.15286,1.15625,1.15625,0,0,0,1.15286-1.15286" transform="translate(0 -0.30768)"/><path class="cls-3" d="M38.66479,28.98645a1.15286,1.15286,0,1,0-1.15286,1.15286,1.15625,1.15625,0,0,0,1.15286-1.15286" transform="translate(0 -0.30768)"/><path class="cls-3" d="M38.66479,26.58465a1.15286,1.15286,0,1,0-1.15286,1.15286,1.15625,1.15625,0,0,0,1.15286-1.15286" transform="translate(0 -0.30768)"/><path class="cls-3" d="M38.66479,26.58465a1.15286,1.15286,0,1,0-1.15286,1.15286,1.15625,1.15625,0,0,0,1.15286-1.15286" transform="translate(0 -0.30768)"/><path class="cls-3" d="M38.66479,24.18284a1.15286,1.15286,0,1,0-1.15286,1.15286,1.15623,1.15623,0,0,0,1.15286-1.15286" transform="translate(0 -0.30768)"/><path class="cls-3" d="M38.66479,24.18284a1.15286,1.15286,0,1,0-1.15286,1.15286,1.15623,1.15623,0,0,0,1.15286-1.15286" transform="translate(0 -0.30768)"/><path class="cls-3" d="M35.9885,45.79909A1.15286,1.15286,0,1,0,34.83564,46.952a1.15625,1.15625,0,0,0,1.15286-1.15287" transform="translate(0 -0.30768)"/><path class="cls-3" d="M35.9885,45.79909A1.15286,1.15286,0,1,0,34.83564,46.952a1.15625,1.15625,0,0,0,1.15286-1.15287" transform="translate(0 -0.30768)"/><path class="cls-3" d="M35.9885,43.39728a1.15286,1.15286,0,1,0-1.15286,1.15287,1.15626,1.15626,0,0,0,1.15286-1.15287" transform="translate(0 -0.30768)"/><path class="cls-3" d="M35.9885,43.39728a1.15286,1.15286,0,1,0-1.15286,1.15287,1.15626,1.15626,0,0,0,1.15286-1.15287" transform="translate(0 -0.30768)"/><path class="cls-3" d="M35.9885,40.99548a1.15286,1.15286,0,1,0-1.15286,1.15286,1.15626,1.15626,0,0,0,1.15286-1.15286" transform="translate(0 -0.30768)"/><path class="cls-3" d="M35.9885,40.99548a1.15286,1.15286,0,1,0-1.15286,1.15286,1.15626,1.15626,0,0,0,1.15286-1.15286" transform="translate(0 -0.30768)"/><path class="cls-3" d="M35.9885,38.59368a1.15286,1.15286,0,1,0-1.15286,1.15286,1.15626,1.15626,0,0,0,1.15286-1.15286" transform="translate(0 -0.30768)"/><path class="cls-3" d="M35.9885,38.59368a1.15286,1.15286,0,1,0-1.15286,1.15286,1.15626,1.15626,0,0,0,1.15286-1.15286" transform="translate(0 -0.30768)"/><path class="cls-3" d="M35.9885,36.19187a1.15286,1.15286,0,1,0-1.15286,1.15286,1.15625,1.15625,0,0,0,1.15286-1.15286" transform="translate(0 -0.30768)"/><path class="cls-3" d="M35.9885,36.19187a1.15286,1.15286,0,1,0-1.15286,1.15286,1.15625,1.15625,0,0,0,1.15286-1.15286" transform="translate(0 -0.30768)"/><path class="cls-3" d="M35.9885,33.79006a1.15286,1.15286,0,1,0-1.15286,1.15287,1.15625,1.15625,0,0,0,1.15286-1.15287" transform="translate(0 -0.30768)"/><path class="cls-3" d="M35.9885,33.79006a1.15286,1.15286,0,1,0-1.15286,1.15287,1.15625,1.15625,0,0,0,1.15286-1.15287" transform="translate(0 -0.30768)"/><path class="cls-3" d="M35.9885,31.38825a1.15286,1.15286,0,1,0-1.15286,1.15287,1.15626,1.15626,0,0,0,1.15286-1.15287" transform="translate(0 -0.30768)"/><path class="cls-3" d="M35.9885,31.38825a1.15286,1.15286,0,1,0-1.15286,1.15287,1.15626,1.15626,0,0,0,1.15286-1.15287" transform="translate(0 -0.30768)"/><path class="cls-3" d="M35.9885,28.98645a1.15286,1.15286,0,1,0-1.15286,1.15286,1.15626,1.15626,0,0,0,1.15286-1.15286" transform="translate(0 -0.30768)"/><path class="cls-3" d="M35.9885,28.98645a1.15286,1.15286,0,1,0-1.15286,1.15286,1.15626,1.15626,0,0,0,1.15286-1.15286" transform="translate(0 -0.30768)"/><path class="cls-3" d="M35.9885,26.58465a1.15286,1.15286,0,1,0-1.15286,1.15286,1.15626,1.15626,0,0,0,1.15286-1.15286" transform="translate(0 -0.30768)"/><path class="cls-3" d="M35.9885,26.58465a1.15286,1.15286,0,1,0-1.15286,1.15286,1.15626,1.15626,0,0,0,1.15286-1.15286" transform="translate(0 -0.30768)"/><path class="cls-3" d="M33.4666,45.79909A1.15286,1.15286,0,1,0,32.31374,46.952a1.15623,1.15623,0,0,0,1.15286-1.15287" transform="translate(0 -0.30768)"/><path class="cls-3" d="M33.4666,45.79909A1.15286,1.15286,0,1,0,32.31374,46.952a1.15623,1.15623,0,0,0,1.15286-1.15287" transform="translate(0 -0.30768)"/><path class="cls-3" d="M33.4666,43.39728a1.15286,1.15286,0,1,0-1.15286,1.15287,1.15624,1.15624,0,0,0,1.15286-1.15287" transform="translate(0 -0.30768)"/><path class="cls-3" d="M33.4666,43.39728a1.15286,1.15286,0,1,0-1.15286,1.15287,1.15624,1.15624,0,0,0,1.15286-1.15287" transform="translate(0 -0.30768)"/><path class="cls-3" d="M33.4666,40.99548a1.15286,1.15286,0,1,0-1.15286,1.15286,1.15625,1.15625,0,0,0,1.15286-1.15286" transform="translate(0 -0.30768)"/><path class="cls-3" d="M33.4666,40.99548a1.15286,1.15286,0,1,0-1.15286,1.15286,1.15625,1.15625,0,0,0,1.15286-1.15286" transform="translate(0 -0.30768)"/><path class="cls-3" d="M33.4666,38.59368a1.15286,1.15286,0,1,0-1.15286,1.15286,1.15625,1.15625,0,0,0,1.15286-1.15286" transform="translate(0 -0.30768)"/><path class="cls-3" d="M33.4666,38.59368a1.15286,1.15286,0,1,0-1.15286,1.15286,1.15625,1.15625,0,0,0,1.15286-1.15286" transform="translate(0 -0.30768)"/><path class="cls-3" d="M33.4666,36.19187a1.15286,1.15286,0,1,0-1.15286,1.15286,1.15623,1.15623,0,0,0,1.15286-1.15286" transform="translate(0 -0.30768)"/><path class="cls-3" d="M33.4666,36.19187a1.15286,1.15286,0,1,0-1.15286,1.15286,1.15623,1.15623,0,0,0,1.15286-1.15286" transform="translate(0 -0.30768)"/><path class="cls-3" d="M33.4666,33.79006a1.15286,1.15286,0,1,0-1.15286,1.15287,1.15623,1.15623,0,0,0,1.15286-1.15287" transform="translate(0 -0.30768)"/><path class="cls-3" d="M33.4666,33.79006a1.15286,1.15286,0,1,0-1.15286,1.15287,1.15623,1.15623,0,0,0,1.15286-1.15287" transform="translate(0 -0.30768)"/><path class="cls-3" d="M33.4666,31.38825a1.15286,1.15286,0,1,0-1.15286,1.15287,1.15624,1.15624,0,0,0,1.15286-1.15287" transform="translate(0 -0.30768)"/><path class="cls-3" d="M33.4666,31.38825a1.15286,1.15286,0,1,0-1.15286,1.15287,1.15624,1.15624,0,0,0,1.15286-1.15287" transform="translate(0 -0.30768)"/><path class="cls-3" d="M33.4666,28.98645a1.15286,1.15286,0,1,0-1.15286,1.15286,1.15625,1.15625,0,0,0,1.15286-1.15286" transform="translate(0 -0.30768)"/><path class="cls-3" d="M33.4666,28.98645a1.15286,1.15286,0,1,0-1.15286,1.15286,1.15625,1.15625,0,0,0,1.15286-1.15286" transform="translate(0 -0.30768)"/><path class="cls-3" d="M33.4666,26.58465a1.15286,1.15286,0,1,0-1.15286,1.15286,1.15625,1.15625,0,0,0,1.15286-1.15286" transform="translate(0 -0.30768)"/><path class="cls-3" d="M33.4666,26.58465a1.15286,1.15286,0,1,0-1.15286,1.15286,1.15625,1.15625,0,0,0,1.15286-1.15286" transform="translate(0 -0.30768)"/><path class="cls-3" d="M30.93614,45.79909A1.15287,1.15287,0,1,0,29.78328,46.952a1.15625,1.15625,0,0,0,1.15286-1.15287" transform="translate(0 -0.30768)"/><path class="cls-3" d="M30.93614,45.79909A1.15287,1.15287,0,1,0,29.78328,46.952a1.15625,1.15625,0,0,0,1.15286-1.15287" transform="translate(0 -0.30768)"/><path class="cls-3" d="M30.93614,43.39728a1.15287,1.15287,0,1,0-1.15286,1.15287,1.15626,1.15626,0,0,0,1.15286-1.15287" transform="translate(0 -0.30768)"/><path class="cls-3" d="M30.93614,43.39728a1.15287,1.15287,0,1,0-1.15286,1.15287,1.15626,1.15626,0,0,0,1.15286-1.15287" transform="translate(0 -0.30768)"/><path class="cls-3" d="M30.93614,40.99548a1.15287,1.15287,0,1,0-1.15286,1.15286,1.15626,1.15626,0,0,0,1.15286-1.15286" transform="translate(0 -0.30768)"/><path class="cls-3" d="M30.93614,40.99548a1.15287,1.15287,0,1,0-1.15286,1.15286,1.15626,1.15626,0,0,0,1.15286-1.15286" transform="translate(0 -0.30768)"/><path class="cls-3" d="M30.93614,38.59368a1.15287,1.15287,0,1,0-1.15286,1.15286,1.15626,1.15626,0,0,0,1.15286-1.15286" transform="translate(0 -0.30768)"/><path class="cls-3" d="M30.93614,38.59368a1.15287,1.15287,0,1,0-1.15286,1.15286,1.15626,1.15626,0,0,0,1.15286-1.15286" transform="translate(0 -0.30768)"/><path class="cls-3" d="M30.93614,36.19187a1.15287,1.15287,0,1,0-1.15286,1.15286,1.15625,1.15625,0,0,0,1.15286-1.15286" transform="translate(0 -0.30768)"/><path class="cls-3" d="M30.93614,36.19187a1.15287,1.15287,0,1,0-1.15286,1.15286,1.15625,1.15625,0,0,0,1.15286-1.15286" transform="translate(0 -0.30768)"/><path class="cls-3" d="M30.93614,33.79006a1.15287,1.15287,0,1,0-1.15286,1.15287,1.15625,1.15625,0,0,0,1.15286-1.15287" transform="translate(0 -0.30768)"/><path class="cls-3" d="M30.93614,33.79006a1.15287,1.15287,0,1,0-1.15286,1.15287,1.15625,1.15625,0,0,0,1.15286-1.15287" transform="translate(0 -0.30768)"/><path class="cls-3" d="M30.93614,31.38825a1.15287,1.15287,0,1,0-1.15286,1.15287,1.15626,1.15626,0,0,0,1.15286-1.15287" transform="translate(0 -0.30768)"/><path class="cls-3" d="M30.93614,31.38825a1.15287,1.15287,0,1,0-1.15286,1.15287,1.15626,1.15626,0,0,0,1.15286-1.15287" transform="translate(0 -0.30768)"/><path class="cls-3" d="M30.93614,28.98645a1.15287,1.15287,0,1,0-1.15286,1.15286,1.15626,1.15626,0,0,0,1.15286-1.15286" transform="translate(0 -0.30768)"/><path class="cls-3" d="M30.93614,28.98645a1.15287,1.15287,0,1,0-1.15286,1.15286,1.15626,1.15626,0,0,0,1.15286-1.15286" transform="translate(0 -0.30768)"/><path class="cls-3" d="M28.5,45.79909A1.15287,1.15287,0,1,0,27.34714,46.952,1.15626,1.15626,0,0,0,28.5,45.79909" transform="translate(0 -0.30768)"/><path class="cls-3" d="M28.5,45.79909A1.15287,1.15287,0,1,0,27.34714,46.952,1.15626,1.15626,0,0,0,28.5,45.79909" transform="translate(0 -0.30768)"/><path class="cls-3" d="M28.5,43.39728a1.15287,1.15287,0,1,0-1.15289,1.15287A1.15626,1.15626,0,0,0,28.5,43.39728" transform="translate(0 -0.30768)"/><path class="cls-3" d="M28.5,43.39728a1.15287,1.15287,0,1,0-1.15289,1.15287A1.15626,1.15626,0,0,0,28.5,43.39728" transform="translate(0 -0.30768)"/><path class="cls-3" d="M28.5,40.99548a1.15287,1.15287,0,1,0-1.15289,1.15286A1.15627,1.15627,0,0,0,28.5,40.99548" transform="translate(0 -0.30768)"/><path class="cls-3" d="M28.5,40.99548a1.15287,1.15287,0,1,0-1.15289,1.15286A1.15627,1.15627,0,0,0,28.5,40.99548" transform="translate(0 -0.30768)"/><path class="cls-3" d="M28.5,38.59368a1.15287,1.15287,0,1,0-1.15289,1.15286A1.15627,1.15627,0,0,0,28.5,38.59368" transform="translate(0 -0.30768)"/><path class="cls-3" d="M28.5,38.59368a1.15287,1.15287,0,1,0-1.15289,1.15286A1.15627,1.15627,0,0,0,28.5,38.59368" transform="translate(0 -0.30768)"/><path class="cls-3" d="M28.5,36.19187a1.15287,1.15287,0,1,0-1.15289,1.15286A1.15626,1.15626,0,0,0,28.5,36.19187" transform="translate(0 -0.30768)"/><path class="cls-3" d="M28.5,36.19187a1.15287,1.15287,0,1,0-1.15289,1.15286A1.15626,1.15626,0,0,0,28.5,36.19187" transform="translate(0 -0.30768)"/><path class="cls-3" d="M28.5,33.79006a1.15287,1.15287,0,1,0-1.15289,1.15287A1.15626,1.15626,0,0,0,28.5,33.79006" transform="translate(0 -0.30768)"/><path class="cls-3" d="M28.5,33.79006a1.15287,1.15287,0,1,0-1.15289,1.15287A1.15626,1.15626,0,0,0,28.5,33.79006" transform="translate(0 -0.30768)"/><path class="cls-3" d="M28.5,31.38825a1.15287,1.15287,0,1,0-1.15289,1.15287A1.15626,1.15626,0,0,0,28.5,31.38825" transform="translate(0 -0.30768)"/><path class="cls-3" d="M28.5,31.38825a1.15287,1.15287,0,1,0-1.15289,1.15287A1.15626,1.15626,0,0,0,28.5,31.38825" transform="translate(0 -0.30768)"/><path class="cls-3" d="M25.92666,45.79909A1.15287,1.15287,0,1,0,24.77377,46.952a1.15626,1.15626,0,0,0,1.15289-1.15287" transform="translate(0 -0.30768)"/><path class="cls-3" d="M25.92666,45.79909A1.15287,1.15287,0,1,0,24.77377,46.952a1.15626,1.15626,0,0,0,1.15289-1.15287" transform="translate(0 -0.30768)"/><path class="cls-3" d="M25.92666,43.39728a1.15287,1.15287,0,1,0-1.15289,1.15287,1.15626,1.15626,0,0,0,1.15289-1.15287" transform="translate(0 -0.30768)"/><path class="cls-3" d="M25.92666,43.39728a1.15287,1.15287,0,1,0-1.15289,1.15287,1.15626,1.15626,0,0,0,1.15289-1.15287" transform="translate(0 -0.30768)"/><path class="cls-3" d="M25.92666,40.99548a1.15287,1.15287,0,1,0-1.15289,1.15286,1.15627,1.15627,0,0,0,1.15289-1.15286" transform="translate(0 -0.30768)"/><path class="cls-3" d="M25.92666,40.99548a1.15287,1.15287,0,1,0-1.15289,1.15286,1.15627,1.15627,0,0,0,1.15289-1.15286" transform="translate(0 -0.30768)"/><path class="cls-3" d="M25.92666,38.59368a1.15287,1.15287,0,1,0-1.15289,1.15286,1.15627,1.15627,0,0,0,1.15289-1.15286" transform="translate(0 -0.30768)"/><path class="cls-3" d="M25.92666,38.59368a1.15287,1.15287,0,1,0-1.15289,1.15286,1.15627,1.15627,0,0,0,1.15289-1.15286" transform="translate(0 -0.30768)"/><path class="cls-3" d="M25.92666,36.19187a1.15287,1.15287,0,1,0-1.15289,1.15286,1.15626,1.15626,0,0,0,1.15289-1.15286" transform="translate(0 -0.30768)"/><path class="cls-3" d="M25.92666,36.19187a1.15287,1.15287,0,1,0-1.15289,1.15286,1.15626,1.15626,0,0,0,1.15289-1.15286" transform="translate(0 -0.30768)"/><path class="cls-3" d="M25.92666,33.79006a1.15287,1.15287,0,1,0-1.15289,1.15287,1.15626,1.15626,0,0,0,1.15289-1.15287" transform="translate(0 -0.30768)"/><path class="cls-3" d="M25.92666,33.79006a1.15287,1.15287,0,1,0-1.15289,1.15287,1.15626,1.15626,0,0,0,1.15289-1.15287" transform="translate(0 -0.30768)"/><path class="cls-3" d="M23.28466,45.79909A1.15286,1.15286,0,1,0,22.1318,46.952a1.15625,1.15625,0,0,0,1.15286-1.15287" transform="translate(0 -0.30768)"/><path class="cls-3" d="M23.28466,45.79909A1.15286,1.15286,0,1,0,22.1318,46.952a1.15625,1.15625,0,0,0,1.15286-1.15287" transform="translate(0 -0.30768)"/><path class="cls-3" d="M23.28466,43.39728a1.15286,1.15286,0,1,0-1.15286,1.15287,1.15626,1.15626,0,0,0,1.15286-1.15287" transform="translate(0 -0.30768)"/><path class="cls-3" d="M23.28466,43.39728a1.15286,1.15286,0,1,0-1.15286,1.15287,1.15626,1.15626,0,0,0,1.15286-1.15287" transform="translate(0 -0.30768)"/><path class="cls-3" d="M23.28466,40.99548a1.15286,1.15286,0,1,0-1.15286,1.15286,1.15626,1.15626,0,0,0,1.15286-1.15286" transform="translate(0 -0.30768)"/><path class="cls-3" d="M23.28466,40.99548a1.15286,1.15286,0,1,0-1.15286,1.15286,1.15626,1.15626,0,0,0,1.15286-1.15286" transform="translate(0 -0.30768)"/><path class="cls-3" d="M23.28466,38.59368a1.15286,1.15286,0,1,0-1.15286,1.15286,1.15626,1.15626,0,0,0,1.15286-1.15286" transform="translate(0 -0.30768)"/><path class="cls-3" d="M23.28466,38.59368a1.15286,1.15286,0,1,0-1.15286,1.15286,1.15626,1.15626,0,0,0,1.15286-1.15286" transform="translate(0 -0.30768)"/><path class="cls-3" d="M20.62551,45.79909A1.15286,1.15286,0,1,0,19.47265,46.952a1.15623,1.15623,0,0,0,1.15286-1.15287" transform="translate(0 -0.30768)"/><path class="cls-3" d="M20.62551,45.79909A1.15286,1.15286,0,1,0,19.47265,46.952a1.15623,1.15623,0,0,0,1.15286-1.15287" transform="translate(0 -0.30768)"/><path class="cls-3" d="M20.62551,43.39728a1.15286,1.15286,0,1,0-1.15286,1.15287,1.15624,1.15624,0,0,0,1.15286-1.15287" transform="translate(0 -0.30768)"/><path class="cls-3" d="M20.62551,43.39728a1.15286,1.15286,0,1,0-1.15286,1.15287,1.15624,1.15624,0,0,0,1.15286-1.15287" transform="translate(0 -0.30768)"/><path class="cls-3" d="M20.62551,40.99548a1.15286,1.15286,0,1,0-1.15286,1.15286,1.15625,1.15625,0,0,0,1.15286-1.15286" transform="translate(0 -0.30768)"/><path class="cls-3" d="M20.62551,40.99548a1.15286,1.15286,0,1,0-1.15286,1.15286,1.15625,1.15625,0,0,0,1.15286-1.15286" transform="translate(0 -0.30768)"/><path class="cls-3" d="M17.63184,45.79909A1.15286,1.15286,0,1,0,16.479,46.952a1.15625,1.15625,0,0,0,1.15286-1.15287" transform="translate(0 -0.30768)"/><path class="cls-3" d="M17.63184,45.79909A1.15286,1.15286,0,1,0,16.479,46.952a1.15625,1.15625,0,0,0,1.15286-1.15287" transform="translate(0 -0.30768)"/><path class="cls-3" d="M17.63184,43.39728A1.15286,1.15286,0,1,0,16.479,44.55016a1.15626,1.15626,0,0,0,1.15286-1.15287" transform="translate(0 -0.30768)"/><path class="cls-3" d="M17.63184,43.39728A1.15286,1.15286,0,1,0,16.479,44.55016a1.15626,1.15626,0,0,0,1.15286-1.15287" transform="translate(0 -0.30768)"/><path class="cls-3" d="M14.175,45.79909A1.15286,1.15286,0,1,0,13.0221,46.952,1.15625,1.15625,0,0,0,14.175,45.79909" transform="translate(0 -0.30768)"/><path class="cls-3" d="M14.175,45.79909A1.15286,1.15286,0,1,0,13.0221,46.952,1.15625,1.15625,0,0,0,14.175,45.79909" transform="translate(0 -0.30768)"/><path class="cls-3" d="M9.80023,45.79909A1.15286,1.15286,0,1,0,8.64737,46.952a1.15625,1.15625,0,0,0,1.15286-1.15287" transform="translate(0 -0.30768)"/><path class="cls-3" d="M9.80023,45.79909A1.15286,1.15286,0,1,0,8.64737,46.952a1.15625,1.15625,0,0,0,1.15286-1.15287" transform="translate(0 -0.30768)"/></g><path class="cls-3" d="M12.58789,55.86035H10.52637v3.49512c0,.89648.01465,1.61328,1.0459,1.61328a2.25619,2.25619,0,0,0,1.03027-.23926l.04492,1.06152a3.55134,3.55134,0,0,1-1.35937.25391c-1.6582,0-1.92676-.89648-1.92676-2.3457V55.86035H7.83789V54.874H9.36133V52.8877h1.165V54.874h2.06152Z" transform="translate(0 -0.30768)"/><path class="cls-3" d="M14.72559,51.28906a.85166.85166,0,0,1,.85156.85156.85156.85156,0,0,1-1.70312,0A.851.851,0,0,1,14.72559,51.28906Zm-.583,3.585h1.165v6.99121h-1.165Z" transform="translate(0 -0.30768)"/><path class="cls-3" d="M23.13574,60.625h-.0293A3.02885,3.02885,0,0,1,20.417,62.04492a3.67756,3.67756,0,0,1,.17969-7.35059,3.24182,3.24182,0,0,1,2.50977,1.19531h.0293V50.57227h1.166v11.293h-1.166Zm-2.47949-4.85449a2.602,2.602,0,1,0,2.47949,2.59961A2.44006,2.44006,0,0,0,20.65625,55.77051Z" transform="translate(0 -0.30768)"/><path class="cls-3" d="M29.11328,63.46387c-.46289,1.17969-.92578,1.98633-2.33008,1.98633a2.53134,2.53134,0,0,1-1.0459-.17871l.14941-1.0166a2.2657,2.2657,0,0,0,.82129.12012c.76172,0,1.0459-.46289,1.2998-1.15039l.47852-1.31445L25.58789,54.874h1.35938l2.166,5.48242h.03027L31.21973,54.874h1.26953Z" transform="translate(0 -0.30768)"/><path class="cls-3" d="M34.03027,50.57227h1.793v5.03418h.04492a2.94536,2.94536,0,0,1,2.43457-1.09082,3.51662,3.51662,0,0,1,3.46582,3.76465,3.47986,3.47986,0,0,1-3.54,3.76465A2.76361,2.76361,0,0,1,35.76367,60.79H35.7334v1.0752H34.03027Zm3.83887,5.55664a2.15135,2.15135,0,1,0,2.10645,2.15137A2.07457,2.07457,0,0,0,37.86914,56.12891Z" transform="translate(0 -0.30768)"/><path class="cls-3" d="M47.91113,60.87891h-.04492a2.576,2.576,0,0,1-2.2998,1.166c-1.33008,0-2.61426-.73242-2.61426-2.15137,0-2.33008,2.71875-2.49512,4.51074-2.49512h.44824V57.2041c0-.88086-.68652-1.34375-1.64258-1.34375a2.82246,2.82246,0,0,0-1.91211.74609L43.415,55.666a4.20133,4.20133,0,0,1,3.04688-1.15039c3.0625,0,3.0625,2.21094,3.0625,3.22656v4.123H47.91113Zm-.10449-2.22559h-.373c-.98633,0-2.68945.0752-2.68945,1.10547,0,.65723.67285.94141,1.25488.94141,1.22559,0,1.80762-.64258,1.80762-1.64355Z" transform="translate(0 -0.30768)"/><path class="cls-3" d="M50.30371,54.69434h1.97168l2.002,4.97461h.0293l1.793-4.97461H57.9668l-3.39062,8.71c-.52344,1.34375-1.15039,2.0459-2.73437,2.0459a5.354,5.354,0,0,1-1.374-.17871l.22461-1.61328a2.66741,2.66741,0,0,0,.91113.17871c.88086,0,1.12012-.31348,1.41895-1.06055l.34375-.85156Z" transform="translate(0 -0.30768)"/><path class="cls-3" d="M59.9707,58.90723a1.85725,1.85725,0,0,0,1.92676,1.70313,2.35633,2.35633,0,0,0,1.92676-.9707l1.28516.9707a3.83471,3.83471,0,1,1-3.03223-6.09473c2.001,0,3.36035,1.4043,3.36035,3.89844v.49316Zm3.6748-1.34375a1.64984,1.64984,0,0,0-1.82227-1.70312,1.78186,1.78186,0,0,0-1.85254,1.70313Z" transform="translate(0 -0.30768)"/><path class="cls-3" d="M70.68262,56.68164a1.6273,1.6273,0,0,0-1.4043-.73242c-.47754,0-1.04492.22461-1.04492.7627,0,1.28418,3.86816.23828,3.86816,3.03223,0,1.70313-1.62793,2.30078-3.0918,2.30078a3.50886,3.50886,0,0,1-2.79395-1.10547l1.19531-1.12109a2.194,2.194,0,0,0,1.70313.88184c.52246,0,1.19531-.25391,1.19531-.82129,0-1.47949-3.86914-.31445-3.86914-3.04785,0-1.59863,1.43359-2.31543,2.88281-2.31543a3.10385,3.10385,0,0,1,2.55469,1.09082Z" transform="translate(0 -0.30768)"/><g class="cls-9"><path class="cls-3" d="M74.44073,46.94228l-.17.01h-1.9l-.16-.01h-.16l-.16-.01-.16-.00995h-.16l-.15-.01-.16-.01-.31995-.02-.16-.01-.16-.00995-.15-.01h-.17l-.15-.01-.17-.01-.15-.01-.17-.01-.15-.01-.16-.00995h-.16l-.16-.01-.16-.01-.16-.01h-.15l-.16-.01-.16-.01-.16-.00995h-.16l-.16-.01-.16-.01-.15-.01-.17-.01-.15-.01-.17-.00995-.15-.01-.16-.01-.16-.02-.16-.01-.16-.02-.16-.01-.15-.02-.17-.01-.15-.01-.16-.02-.16-.02-.16-.02-.16-.02-.16-.01-.16-.02-.15-.03-.17-.02-.15-.03-.16-.02-.16-.03-.16-.03-.16-.03-.16-.03-.16-.04-.16-.03-.15-.03-.17-.04-.15-.03-.16-.04-.16-.04-.16-.03-.16-.04-.16-.04-.16-.03-.15-.04-.16-.04-.16-.04-.16-.04-.16-.04-.16-.05-.16-.03-.16-.05-.15-.04-.17-.05-.15-.05-.17-.05-.15-.05-.16-.06-.16-.05-.16-.05-.16-.06-.16-.05-.16-.06995-.15-.05-.16-.07-.16-.06-.16-.06-.16-.06-.16-.07-.15-.06-.17-.06995-.15-.07-.17-.07-.15-.08-.16-.08-.16-.08-.16-.09-.16-.09-.16-.1-.16-.1-.16-.11-.15-.11-.16-.12-.16-.12-.16-.13-.16-.13-.15-.13-.17-.14-.15-.15-.17-.14-.15-.15-.17-.16-.15-.15-.16-.16-.16-.15-.16-.16-.16-.17-.16-.16-.15-.17-.17-.17-.15-.17-.16-.17-.16-.18-.16-.19-.16-.18-.15-.19-.17-.2-.15-.2-.17-.2-.15-.21-.16-.21-.16-.21-.16-.22-.16-.23-.16-.22-.15-.23-.17-.23-.15-.23-.17-.24005-.15-.24-.16-.23-.16-.24-.16-.23-.16-.24-.15-.23-.17-.23-.15-.24005-.16-.23-.16-.24-.16-.24-.16-.23-.16-.24-.16-.23-.16-.24-.15-.24-.17-.25-.15-.25-.17-.24-.15-.25-.16-.25-.16-.25-.16-.26-.16-.25-.15-.26-.16-.25-.16-.25-.16-.25-.31995-.48-.16-.24005-.16-.22-.15-.23-.17-.21-.15-.21-.17-.2-.15-.18994-.16-.19-.16-.17-.31995-.34-.16-.15-.16-.16-.15-.14-.16-.14-.16-.14-.16-.13-.16-.12994-.16-.13-.15-.12-.17-.12006-.15-.12-.17-.11-.15-.12-.16-.1-.16-.11-.16-.1-.16-.09-.16-.09-.16-.09-.16-.08a7.58724,7.58724,0,0,0-4.6-.91h-.16l-.16.02-.16.03-.16.05-.16.05-.15.07-.17.09-.15.09-.17.11-.15.11-.31995.26-.16.14-.16.15-.15.14-.17.15-.15.14-.16.14-.16.14-.16.13-.16.13-.16.12-.16.11-.16.1-.15.1-.17.09-.15.09-.17.08-.15.07-.16.08-.16.08-.16.07-.16.08-.15.08-.16.09-.16.1-.16.1-.16.11-.16.12-.16.13-.16.13-.15.15-.17.15-.15.17-.17.17-.15.18-.16.18-.16.19-.16.2-.16.2-.16.21-.16.21-.16.22-.15.21-.16.22-.16.22-.16.22-.16.23-.15.22-.17.23-.15.23-.17.22-.15.23-.16.24-.16.22-.16.24005-.16.23-.31995.46-.16.23-.15.24-.17.23-.15.23-.16.23-.16.23-.16.22-.16.22-.15.23-.17.22-.15.21-.17.22-.15.21-.16.21-.16.21-.16.21-.16.21-.16.2-.15.2-.17.2-.15.2-.17.2-.15.2-.16.2-.16.19-.16.19-.16.19-.15.19-.17.18-.15.18-.16.17-.16.17-.16.17-.16.16-.16.15-.15.15-.17.15-.15.13-.17.13-.15.13-.17.11-.15.12-.16.11-.16.11-.31995.2-.15.09-.16.09-.16.09-.16.09-.16.09-.16.09-.16.09-.16.1-.15.09-.17.09-.15.09-.17.09-.15.1-.16.09-.16.1-.16.09-.16.1-.16.09-.15.1-.16.09-.16.09-.16.09-.16.09-.16.09-.16.09-.15.08-.17.08-.15.08-.17.08-.15.06995-.16.07-.16.07-.16.06-.16.07-.16.05-.31995.12-.15.05-.16.05-.16.05-.16.04-.16.04-.15.03-.17.04-.15.04-.17.02-.15.03-.17.03-.15.03-.16.01-.16.03-.16.02-.16.01-.16.02-.15.01-.17.02-.15.02-.16.01-.16.02-.16.02-.16.01-.15.01-.17.02-.15.02-.17.02-.15.02-.16.00995-.16.02-.16.02-.16.02-.16.02-.15.02-.17.02-.15.02-.17.02-.15.01-.16.02-.16.01-.16.02-.16.02-.15.00995-.17.02-.15.01-.31995.02-.16.02-.16.01-.16.01-.15.01-.17.02-.15.01-.17.01h-.15l-.17.01-.15.01-.16.01-.16.00995-.16.01-.16.01-.1333.00891v.17108H76.50072v-.06Z" transform="translate(0 -0.30768)"/></g></g></svg>